SplineFontDB: 3.0
FontName: MapkeyIcons
FullName: Mapkey Icons
FamilyName: Mapkey Icons
Weight: Book
Copyright: (c) mapshakers 2015 \nLicense: CC0 1.0 Universal\nwww.mapshakers.com\nAuthor: Filip Zavadil \nwww.filipzavadil.com 
Version: 1.1.0
ItalicAngle: 0
UnderlinePosition: -100
UnderlineWidth: 50
Ascent: 819
Descent: 205
InvalidEm: 0
sfntRevision: 0x00010000
LayerCount: 2
Layer: 0 1 "Back" 1
Layer: 1 1 "Fore" 0
XUID: [1021 901 -259729385 11223]
StyleMap: 0x0000
FSType: 8
OS2Version: 1
OS2_WeightWidthSlopeOnly: 0
OS2_UseTypoMetrics: 0
CreationTime: 1422989929
ModificationTime: 1441962083
PfmFamily: 17
TTFWeight: 400
TTFWidth: 5
LineGap: 92
VLineGap: 0
Panose: 2 0 5 3 0 0 0 0 0 0
OS2TypoAscent: 819
OS2TypoAOffset: 0
OS2TypoDescent: -205
OS2TypoDOffset: 0
OS2TypoLinegap: 92
OS2WinAscent: 682
OS2WinAOffset: 0
OS2WinDescent: 212
OS2WinDOffset: 0
HheadAscent: 682
HheadAOffset: 0
HheadDescent: -212
HheadDOffset: 0
OS2SubXSize: 666
OS2SubYSize: 716
OS2SubXOff: 0
OS2SubYOff: 143
OS2SupXSize: 666
OS2SupYSize: 716
OS2SupXOff: 0
OS2SupYOff: 490
OS2StrikeYSize: 50
OS2StrikeYPos: 264
OS2Vendor: 'PfEd'
OS2CodePages: 00000001.00000000
OS2UnicodeRanges: 00000000.00000000.00000000.00000000
MarkAttachClasses: 1
DEI: 91125
TtTable: prep
PUSHW_1
 511
SCANCTRL
PUSHB_1
 1
SCANTYPE
SVTCA[y-axis]
MPPEM
PUSHB_1
 8
LT
IF
PUSHB_2
 1
 1
INSTCTRL
EIF
PUSHB_2
 70
 6
CALL
IF
POP
PUSHB_1
 16
EIF
MPPEM
PUSHB_1
 20
GT
IF
POP
PUSHB_1
 128
EIF
SCVTCI
PUSHB_1
 20
CALL
EndTTInstrs
TtTable: fpgm
PUSHB_1
 0
FDEF
PUSHB_1
 0
SZP0
MPPEM
PUSHB_1
 42
LT
IF
PUSHB_1
 74
SROUND
EIF
PUSHB_1
 0
SWAP
MIAP[rnd]
RTG
PUSHB_1
 6
CALL
IF
RTDG
EIF
MPPEM
PUSHB_1
 42
LT
IF
RDTG
EIF
DUP
MDRP[rp0,rnd,grey]
PUSHB_1
 1
SZP0
MDAP[no-rnd]
RTG
ENDF
PUSHB_1
 1
FDEF
DUP
MDRP[rp0,min,white]
PUSHB_1
 12
CALL
ENDF
PUSHB_1
 2
FDEF
MPPEM
GT
IF
RCVT
SWAP
EIF
POP
ENDF
PUSHB_1
 3
FDEF
ROUND[Black]
RTG
DUP
PUSHB_1
 64
LT
IF
POP
PUSHB_1
 64
EIF
ENDF
PUSHB_1
 4
FDEF
PUSHB_1
 6
CALL
IF
POP
SWAP
POP
ROFF
IF
MDRP[rp0,min,rnd,black]
ELSE

StartChar: mapshakers
Encoding: 57344 57344 33
Width: 744
VWidth: 828
Flags: W
HStem: -69 49<242.163 494.177> 128 76<390.703 465.312> 215 86<235.438 293.938> 505 61<207.531 485.326>
VStem: 76 92<366 441.062> 510 78<23.3115 84.3906>
LayerCount: 2
Fore
SplineSet
500 74 m 2,0,-1
 451 120 l 2,1,2
 440 129 440 129 425 128.5 c 128,-1,3
 410 128 410 128 401 122 c 2,4,-1
 262 20 l 2,5,6
 251 12 251 12 245 3 c 128,-1,7
 239 -6 239 -6 242 -10 c 0,8,9
 247 -19 247 -19 280 -20 c 1,10,-1
 449 -20 l 2,11,12
 462 -20 462 -20 477 -12 c 128,-1,13
 492 -4 492 -4 498 9 c 1,14,-1
 507 23 l 1,15,16
 510 33 510 33 510 39 c 2,17,-1
 510 49 l 2,18,19
 510 65 510 65 500 74 c 2,0,-1
575 79 m 2,20,21
 588 66 588 66 588 51 c 128,-1,22
 588 36 588 36 582 28 c 1,23,-1
 545 -39 l 2,24,25
 539 -51 539 -51 524 -60 c 128,-1,26
 509 -69 509 -69 494 -69 c 2,27,-1
 203 -69 l 1,28,29
 190 -70 190 -70 176 -60 c 0,30,31
 151 -44 151 -44 150 -22.5 c 128,-1,32
 149 -1 149 -1 163 11 c 1,33,-1
 410 197 l 2,34,35
 419 204 419 204 426 204 c 2,36,-1
 435 204 l 1,37,38
 449 203 449 203 458 194 c 2,39,-1
 575 79 l 2,20,21
174 426 m 2,40,41
 169 418 169 418 168.5 402.5 c 128,-1,42
 168 387 168 387 181 375 c 2,43,-1
 248 311 l 2,44,45
 259 301 259 301 273 300.5 c 128,-1,46
 287 300 287 300 298 308 c 2,47,-1
 471 441 l 1,48,49
 482 448 482 448 486 460 c 0,50,51
 495 485 495 485 467 499 c 0,52,53
 453 505 453 505 438 505 c 2,54,-1
 253 505 l 2,55,56
 239 505 239 505 224.5 496.5 c 128,-1,57
 210 488 210 488 203 476 c 2,58,-1
 174 426 l 2,40,41
89 359 m 2,59,60
 76 372 76 372 76.5 387.5 c 128,-1,61
 77 403 77 403 82 412 c 2,62,-1
 152 536 l 2,63,64
 158 548 158 548 173 557 c 128,-1,65
 188 566 188 566 203 566 c 2,66,-1
 494 566 l 2,67,68
 508 566 508 566 523 556 c 0,69,70
 537 549 537 549 545 536 c 2,71,-1
 572 488 l 2,72,73
 588 460 588 460 563 439 c 1,74,-1
 276 221 l 2,75,76
 267 214 267 214 260 215 c 1,77,-1
 251 215 l 1,78,79
 237 217 237 217 226 226 c 1,80,-1
 89 359 l 2,59,60
181 192 m 2,81,82
 190 182 190 182 189 169 c 128,-1,83
 188 156 188 156 178 147 c 1,84,-1
 113 98 l 2,85,86
 102 90 102 90 90 92 c 128,-1,87
 78 94 78 94 70 108 c 2,88,-1
 6 220 l 2,89,90
 0 232 0 232 0 249 c 0,91,92
 -2 266 -2 266 6 278 c 2,93,-1
 21 304 l 2,94,95
 27 316 27 316 39.5 317.5 c 128,-1,96
 52 319 52 319 62 309 c 2,97,-1
 181 192 l 2,81,82
690 220 m 2,98,-1
 644 136 l 2,99,100
 637 124 637 124 624 122 c 0,101,102
 613 118 613 118 604 128 c 2,103,-1
 503 228 l 2,104,105
 494 237 494 237 495 250 c 128,-1,106
 496 263 496 263 507 272 c 2,107,-1
 611 352 l 1,108,109
 622 358 622 358 635 356 c 128,-1,110
 648 354 648 354 654 342 c 2,111,-1
 690 278 l 2,112,113
 696 266 696 266 696 249 c 128,-1,114
 696 232 696 232 690 220 c 2,98,-1
EndSplineSet
Validated: 1
EndChar

StartChar: mapkey
Encoding: 57345 57345 34
Width: 707
VWidth: 828
Flags: W
HStem: -9 65<227.622 478.99> 95 90<283.157 320.844 326.455 424.613> 346 58<398.953 513.432>
VStem: 0 76<291.112 410.551> 371 2<629.801 644> 630 76<291.526 411.416>
LayerCount: 2
Fore
SplineSet
162 101 m 5,0,1
 232 56 232 56 355.5 55.5 c 132,-1,2
 479 55 479 55 545 103 c 5,3,4
 542 44 542 44 489.5 17.5 c 132,-1,5
 437 -9 437 -9 352.5 -9 c 132,-1,6
 268 -9 268 -9 217 18 c 132,-1,7
 166 45 166 45 162 101 c 5,0,1
571 493 m 5,8,9
 627 489 627 489 667 449 c 132,-1,10
 707 409 707 409 706.5 355.5 c 132,-1,11
 706 302 706 302 675.5 263.5 c 132,-1,12
 645 225 645 225 598 213 c 5,13,14
 582 191 582 191 558 175 c 5,15,16
 562 167 562 167 565 159 c 5,17,18
 543 128 543 128 482 111.5 c 132,-1,19
 421 95 421 95 351 95 c 132,-1,20
 281 95 281 95 222.5 111 c 132,-1,21
 164 127 164 127 141 154 c 5,22,23
 145 164 145 164 148 175 c 5,24,25
 125 193 125 193 108 213 c 5,26,27
 60 224 60 224 30 263 c 132,-1,28
 0 302 0 302 0 355.5 c 132,-1,29
 0 409 0 409 38.5 449.5 c 132,-1,30
 77 490 77 490 133 493 c 5,31,32
 209 562 209 562 322 572 c 5,33,34
 317 576 317 576 311 587 c 5,35,-1
 304 606 l 5,36,37
 332 592 332 592 349 594 c 4,38,39
 356 596 356 596 371 632 c 5,40,-1
 373 644 l 5,41,42
 375 590 375 590 385 586 c 4,43,44
 391 582 391 582 410.5 593.5 c 132,-1,45
 430 605 430 605 443 618 c 6,46,-1
 455 630 l 5,47,48
 439 579 439 579 425 567 c 5,49,-1
 423 566 l 5,50,51
 508 549 508 549 571 493 c 5,8,9
329 266 m 4,52,53
 321 272 321 272 311 269.5 c 132,-1,54
 301 267 301 267 295 258 c 5,55,-1
 274 219 l 6,56,57
 270 213 270 213 270 205 c 132,-1,58
 270 197 270 197 283 186 c 4,59,60
 288 183 288 183 298 184 c 132,-1,61
 308 185 308 185 315 197 c 6,62,-1
 337 236 l 5,63,64
 346 254 346 254 329 266 c 4,52,53
427 219 m 6,65,-1
 407 258 l 6,66,67
 403 266 403 266 393 269 c 132,-1,68
 383 272 383 272 375 266.5 c 132,-1,69
 367 261 367 261 363.5 252 c 132,-1,70
 360 243 360 243 365 236 c 6,71,-1
 387 197 l 6,72,73
 394 185 394 185 404 185 c 132,-1,74
 414 185 414 185 420.5 189 c 132,-1,75
 427 193 427 193 429 202 c 132,-1,76
 431 211 431 211 427 219 c 6,65,-1
178 218 m 5,77,78
 246 290 246 290 353 290 c 4,79,80
 405 290 405 290 451 271 c 132,-1,81
 497 252 497 252 527 219 c 5,82,83
 537 236 537 236 545 259 c 5,84,85
 581 261 581 261 605.5 288.5 c 132,-1,86
 630 316 630 316 630 353.5 c 132,-1,87
 630 391 630 391 603 417.5 c 132,-1,88
 576 444 576 444 538 444 c 4,89,90
 524 444 524 444 513 440 c 5,91,92
 480 480 480 480 433.5 480 c 132,-1,93
 387 480 387 480 353 437 c 5,94,95
 318 480 318 480 272.5 480 c 132,-1,96
 227 480 227 480 193 441 c 5,97,98
 182 444 182 444 169 444 c 4,99,100
 132 444 132 444 104 417 c 132,-1,101
 76 390 76 390 76 353 c 132,-1,102
 76 316 76 316 100.5 289 c 132,-1,103
 125 262 125 262 159 259 c 5,104,105
 166 237 166 237 178 218 c 5,77,78
537 311 m 5,106,107
 496 346 496 346 443 346 c 4,108,109
 416 346 416 346 385 336 c 5,110,-1
 373 331 l 5,111,112
 373 341 373 341 382 357.5 c 132,-1,113
 391 374 391 374 400 383 c 4,114,115
 419 404 419 404 451.5 404 c 132,-1,116
 484 404 484 404 502 392 c 4,117,118
 538 368 538 368 537 320 c 6,119,-1
 537 311 l 5,106,107
186.5 366 m 132,-1,121
 191 378 191 378 211 391.5 c 132,-1,122
 231 405 231 405 252 405 c 4,123,124
 295 405 295 405 313 384 c 132,-1,125
 331 363 331 363 339 335 c 5,126,127
 290 352 290 352 254 344 c 5,128,129
 216 340 216 340 184 319 c 5,130,-1
 178 312 l 6,131,132
 179 314 179 314 177 321 c 132,-1,133
 175 328 175 328 178.5 341 c 132,-1,120
 182 354 182 354 186.5 366 c 132,-1,121
178 312 m 1030,134,-1
EndSplineSet
Validated: 1
EndChar

StartChar: bar
Encoding: 57347 57347 35
Width: 568
VWidth: 828
Flags: W
HStem: 398 46<433.705 506.629> 452 92<160.782 245.529> 604 45<404.449 452 452 504.683>
VStem: 206 51<61.082 268.005> 528 40<468.752 577.647>
LayerCount: 2
Fore
SplineSet
208.5 452 m 128,-1,1
 186 452 186 452 169 438 c 128,-1,2
 152 424 152 424 152 404 c 128,-1,3
 152 384 152 384 169 370.5 c 128,-1,4
 186 357 186 357 208.5 357 c 128,-1,5
 231 357 231 357 246 370.5 c 128,-1,6
 261 384 261 384 261 404 c 128,-1,7
 261 424 261 424 246 438 c 128,-1,0
 231 452 231 452 208.5 452 c 128,-1,1
0 518 m 0,8,9
 0 544 0 544 37 544 c 2,10,-1
 425 544 l 2,11,12
 463 544 463 544 464 518 c 0,13,14
 464 504 464 504 450 487 c 2,15,-1
 304 309 l 2,16,17
 284 286 284 286 270.5 245.5 c 128,-1,18
 257 205 257 205 257 175 c 2,19,-1
 257 129 l 2,20,21
 257 97 257 97 276.5 65 c 128,-1,22
 296 33 296 33 325 22 c 128,-1,23
 354 11 354 11 354 2 c 128,-1,24
 354 -7 354 -7 324 -7 c 2,25,-1
 140 -7 l 2,26,27
 109 -7 109 -7 108.5 2.5 c 128,-1,28
 108 12 108 12 142 23 c 1,29,30
 169 36 169 36 188.5 67.5 c 128,-1,31
 208 99 208 99 206 129 c 1,32,-1
 206 175 l 2,33,34
 206 207 206 207 193 246 c 128,-1,35
 180 285 180 285 160 309 c 2,36,-1
 14 487 l 2,37,38
 -1 504 -1 504 0 518 c 0,8,9
369 608 m 0,39,40
 404 648 404 648 451 648 c 0,41,42
 452 648 452 648 452 649 c 0,43,44
 498 650 498 650 532 615.5 c 128,-1,45
 566 581 566 581 568 530 c 1,46,-1
 568 524 l 2,47,48
 568 477 568 477 536.5 437.5 c 128,-1,49
 505 398 505 398 455 398 c 0,50,51
 440 398 440 398 433.5 405.5 c 128,-1,52
 427 413 427 413 428 422.5 c 128,-1,53
 429 432 429 432 434.5 438.5 c 128,-1,54
 440 445 440 445 446 444.5 c 128,-1,55
 452 444 452 444 455 444 c 0,56,57
 487 444 487 444 508 468 c 128,-1,58
 529 492 529 492 528 523 c 1,59,-1
 528 527 l 1,60,61
 526 561 526 561 504 582.5 c 128,-1,62
 482 604 482 604 456 604 c 0,63,64
 453 603 453 603 450 603 c 0,65,66
 420 601 420 601 399 577 c 0,67,68
 387 564 387 564 371 576 c 0,69,70
 364 582 364 582 364 591.5 c 128,-1,71
 364 601 364 601 369 608 c 0,39,40
EndSplineSet
Validated: 1
EndChar

StartChar: traffic_signal
Encoding: 57348 57348 36
Width: 586
VWidth: 828
Flags: W
HStem: 1 39<240.956 344.43> 201 37<241.688 293 293 342.477> 397 37<242.672 342.477> 593 50<237.447 347.022>
VStem: 0 128<169 208 360.875 399 552.875 592> 153 61<64.7522 177.279 261.721 372.495 457.69 568.763> 372 58<63.6906 176.763 261.721 372.763 456.721 568.763> 457 128<169 208 360.875 399 552.875 592>
LayerCount: 2
Fore
SplineSet
292 201 m 0,0,1
 258 201 258 201 236 178 c 0,2,3
 214 156 214 156 214 122 c 128,-1,4
 214 88 214 88 236 64 c 128,-1,5
 258 40 258 40 292 40 c 2,6,-1
 293 40 l 2,7,8
 325 40 325 40 348 62 c 128,-1,9
 371 84 371 84 371.5 119 c 128,-1,10
 372 154 372 154 348.5 177.5 c 128,-1,11
 325 201 325 201 292 201 c 0,0,1
457 208 m 1,12,-1
 573 208 l 2,13,14
 584 208 584 208 585 201 c 128,-1,15
 586 194 586 194 580 186 c 2,16,-1
 457 50 l 1,17,-1
 457 208 l 1,12,-1
13 208 m 2,18,-1
 128 208 l 1,19,-1
 128 50 l 1,20,-1
 6 186 l 2,21,22
 -1 194 -1 194 0.5 201 c 128,-1,23
 2 208 2 208 13 208 c 2,18,-1
292 397 m 128,-1,25
 259 397 259 397 236 372.5 c 128,-1,26
 213 348 213 348 214 316 c 128,-1,27
 215 284 215 284 236 261 c 0,28,29
 258 239 258 239 292 238 c 0,30,31
 293 238 293 238 293 237 c 1,32,33
 325 236 325 236 348 260 c 128,-1,34
 371 284 371 284 371.5 317 c 128,-1,35
 372 350 372 350 348.5 373.5 c 128,-1,24
 325 397 325 397 292 397 c 128,-1,25
457 399 m 1,36,-1
 573 399 l 2,37,38
 584 399 584 399 585 392 c 0,39,40
 587 387 587 387 580 378 c 2,41,-1
 457 241 l 1,42,-1
 457 399 l 1,36,-1
13 399 m 2,43,-1
 128 399 l 1,44,-1
 128 241 l 1,45,-1
 6 378 l 2,46,47
 -2 387 -2 387 0 393 c 128,-1,48
 2 399 2 399 13 399 c 2,43,-1
457 592 m 1,49,-1
 573 592 l 2,50,51
 584 592 584 592 585 584.5 c 128,-1,52
 586 577 586 577 580 570 c 2,53,-1
 457 433 l 1,54,-1
 457 592 l 1,49,-1
13 592 m 2,55,-1
 128 592 l 1,56,-1
 128 433 l 1,57,-1
 6 570 l 2,58,59
 -2 578 -2 578 0 585 c 128,-1,60
 2 592 2 592 13 592 c 2,55,-1
292 593 m 128,-1,62
 259 593 259 593 236 569.5 c 128,-1,63
 213 546 213 546 214 512 c 128,-1,64
 215 478 215 478 237 456.5 c 128,-1,65
 259 435 259 435 292 434 c 128,-1,66
 325 433 325 433 348.5 456 c 128,-1,67
 372 479 372 479 372 512.5 c 128,-1,68
 372 546 372 546 348.5 569.5 c 128,-1,61
 325 593 325 593 292 593 c 128,-1,62
211 643 m 2,69,-1
 375 643 l 2,70,71
 398 643 398 643 414.5 626.5 c 128,-1,72
 431 610 431 610 430 584 c 1,73,-1
 430 60 l 2,74,75
 430 37 430 37 413.5 19.5 c 128,-1,76
 397 2 397 2 375 1 c 1,77,-1
 211 1 l 2,78,79
 187 1 187 1 170 18.5 c 128,-1,80
 153 36 153 36 153 60 c 2,81,-1
 153 584 l 2,82,83
 153 608 153 608 170 625.5 c 128,-1,84
 187 643 187 643 211 643 c 2,69,-1
EndSplineSet
Validated: 1
EndChar

StartChar: playground_alt
Encoding: 57349 57349 37
Width: 686
VWidth: 828
Flags: W
HStem: -17 79<235.482 464.793> 356 34<282.438 336> 486 176<262.727 391.501>
VStem: 0 248<301.232 443.735>
LayerCount: 2
Fore
SplineSet
398 469 m 1,0,1
 502 455 502 455 592 401 c 1,2,3
 560 496 560 496 474 547 c 1,4,5
 432 526 432 526 388 482 c 1,6,7
 394 476 394 476 398 469 c 1,0,1
342 62 m 0,8,9
 377 62 377 62 425.5 70.5 c 128,-1,10
 474 79 474 79 492 101 c 1,11,-1
 336 356 l 1,12,13
 334 356 334 356 322 355 c 2,14,-1
 310 353 l 1,15,16
 296 353 296 353 282 356 c 1,17,18
 244 314 244 314 212 252 c 0,19,20
 180 190 180 190 166 131 c 1,21,22
 240 62 240 62 342 62 c 0,8,9
220 553 m 1,23,24
 168 525 168 525 132 477 c 1,25,26
 156 482 156 482 179 482 c 0,27,28
 202 482 202 482 226 478 c 1,29,30
 236 490 236 490 248 500 c 1,31,-1
 220 553 l 1,23,24
311 486 m 128,-1,33
 284 486 284 486 266 471.5 c 128,-1,34
 248 457 248 457 248 437.5 c 128,-1,35
 248 418 248 418 266 404 c 128,-1,36
 284 390 284 390 311 390 c 128,-1,37
 338 390 338 390 358 404 c 128,-1,38
 378 418 378 418 378 437.5 c 128,-1,39
 378 457 378 457 358 471.5 c 128,-1,32
 338 486 338 486 311 486 c 128,-1,33
343 662 m 128,-1,41
 436 662 436 662 515 616.5 c 128,-1,42
 594 571 594 571 640 493 c 128,-1,43
 686 415 686 415 686 322.5 c 128,-1,44
 686 230 686 230 640 152.5 c 128,-1,45
 594 75 594 75 515 29 c 128,-1,46
 436 -17 436 -17 343 -17 c 128,-1,47
 250 -17 250 -17 171 29 c 128,-1,48
 92 75 92 75 46 152.5 c 128,-1,49
 0 230 0 230 0 322.5 c 128,-1,50
 0 415 0 415 46 493 c 128,-1,51
 92 571 92 571 171 616.5 c 128,-1,40
 250 662 250 662 343 662 c 128,-1,41
EndSplineSet
Validated: 1
EndChar

StartChar: dentist
Encoding: 57350 57350 38
Width: 492
VWidth: 828
Flags: W
VStem: 72 108<136.338 308.68> 317 128<112.809 311.107>
LayerCount: 2
Fore
SplineSet
346 441 m 1,0,-1
 409 475 l 1,1,-1
 346 510 l 1,2,-1
 312 573 l 1,3,-1
 278 510 l 1,4,-1
 215 475 l 1,5,-1
 278 441 l 1,6,-1
 312 378 l 1,7,-1
 346 441 l 1,0,-1
436 326 m 1,8,-1
 445 229 l 1,9,10
 445 134 445 134 380 22 c 0,11,12
 367 2 367 2 348.5 -18 c 128,-1,13
 330 -38 330 -38 325 -43.5 c 128,-1,14
 320 -49 320 -49 305 -52 c 128,-1,15
 290 -55 290 -55 284 -51.5 c 128,-1,16
 278 -48 278 -48 283 -28.5 c 128,-1,17
 288 -9 288 -9 299 66.5 c 128,-1,18
 310 142 310 142 313.5 164.5 c 128,-1,19
 317 187 317 187 317 219.5 c 128,-1,20
 317 252 317 252 308 292 c 0,21,22
 304 309 304 309 279 319 c 128,-1,23
 254 329 254 329 227 322 c 0,24,25
 178 309 178 309 180 236 c 0,26,27
 180 219 180 219 183 203.5 c 128,-1,28
 186 188 186 188 209.5 112 c 128,-1,29
 233 36 233 36 234.5 21 c 128,-1,30
 236 6 236 6 232.5 -13.5 c 128,-1,31
 229 -33 229 -33 218 -38 c 0,32,33
 216 -40 216 -40 206 -40 c 0,34,35
 189 -40 189 -40 123 50 c 1,36,37
 101 94 101 94 91 117 c 0,38,39
 67 173 67 173 69 228 c 2,40,-1
 72 292 l 1,41,42
 72 370 72 370 38 416 c 0,43,44
 18 443 18 443 9 463 c 128,-1,45
 0 483 0 483 0 508.5 c 128,-1,46
 0 534 0 534 13 562 c 0,47,48
 38 621 38 621 99 622 c 0,49,50
 115 622 115 622 147.5 609.5 c 128,-1,51
 180 597 180 597 191 593.5 c 128,-1,52
 202 590 202 590 214.5 590 c 128,-1,53
 227 590 227 590 245 595 c 128,-1,54
 263 600 263 600 299 617 c 128,-1,55
 335 634 335 634 347.5 635 c 128,-1,56
 360 636 360 636 379 636 c 128,-1,57
 398 636 398 636 430.5 624 c 128,-1,58
 463 612 463 612 477.5 584 c 128,-1,59
 492 556 492 556 492 521 c 128,-1,60
 492 486 492 486 464 436 c 128,-1,61
 436 386 436 386 436 333 c 2,62,-1
 436 326 l 1,8,-1
EndSplineSet
Validated: 1
EndChar

StartChar: fishing
Encoding: 57351 57351 39
Width: 701
VWidth: 828
Flags: W
HStem: -4 70<104.721 231.023> 428 57<386 492.017>
VStem: 0 70<101.409 225.423> 134 69<323.499 473.443> 326 103<488.823 551.431>
LayerCount: 2
Fore
SplineSet
545 485 m 1,0,1
 481 429 481 429 392 428 c 0,2,3
 380 428 380 428 373 429 c 2,4,-1
 358 432 l 2,5,6
 361 431 361 431 369 425 c 0,7,8
 406 402 406 402 444 401 c 0,9,10
 488 402 488 402 518 436 c 0,11,12
 545 467 545 467 545 485 c 1,0,1
463 485 m 0,13,14
 493 485 493 485 501 518 c 1,15,16
 501 540 501 540 487 548 c 128,-1,17
 473 556 473 556 465 556 c 0,18,19
 429 549 429 549 429 522 c 0,20,21
 429 500 429 500 449 490 c 0,22,23
 457 486 457 486 463 485 c 0,13,14
303 386 m 0,24,25
 307 425 307 425 326 445 c 1,26,27
 326 494 326 494 337 542.5 c 128,-1,28
 348 591 348 591 365 621 c 1,29,30
 379 598 379 598 411 582 c 1,31,32
 428 618 428 618 427 644 c 1,33,34
 460 629 460 629 502 598 c 128,-1,35
 544 567 544 567 575 528 c 1,36,37
 695 497 695 497 700 279 c 1,38,-1
 700 251 l 2,39,40
 700 252 700 252 695 258 c 0,41,42
 678 284 678 284 649 284 c 0,43,44
 642 284 642 284 636 282 c 1,45,46
 629 207 629 207 601 162 c 1,47,48
 635 158 635 158 661 136.5 c 128,-1,49
 687 115 687 115 697 81 c 0,50,51
 702 65 702 65 701 54 c 1,52,-1
 701 42 l 1,53,54
 664 72 664 72 623 71 c 0,55,56
 564 71 564 71 524 32 c 0,57,58
 500 9 500 9 491 -22 c 1,59,60
 469 10 469 10 468.5 53.5 c 128,-1,61
 468 97 468 97 501 129 c 1,62,63
 453 150 453 150 407.5 215.5 c 128,-1,64
 362 281 362 281 338 359 c 1,65,66
 328 353 328 353 324 316 c 1,67,68
 303 359 303 359 303 386 c 0,24,25
303 256 m 1,69,-1
 362 162 l 1,70,-1
 336 148 l 1,71,72
 330 84 330 84 282 40 c 128,-1,73
 234 -4 234 -4 166 -4 c 128,-1,74
 98 -4 98 -4 49 45 c 128,-1,75
 0 94 0 94 0 166 c 128,-1,76
 0 238 0 238 48 280 c 0,77,78
 68 297 68 297 101 316.5 c 128,-1,79
 134 336 134 336 134 342 c 2,80,-1
 134 461 l 1,81,82
 111 470 111 470 95.5 491 c 128,-1,83
 80 512 80 512 80 543.5 c 128,-1,84
 80 575 80 575 105 600.5 c 128,-1,85
 130 626 130 626 166 626 c 128,-1,86
 202 626 202 626 227.5 600.5 c 128,-1,87
 253 575 253 575 253 544 c 0,88,89
 253 484 253 484 203 462 c 1,90,-1
 203 342 l 1,91,92
 202 307 202 307 179 287 c 128,-1,93
 156 267 156 267 128 251.5 c 128,-1,94
 100 236 100 236 85 218 c 128,-1,95
 70 200 70 200 70 161 c 128,-1,96
 70 122 70 122 98.5 94 c 128,-1,97
 127 66 127 66 166 66 c 128,-1,98
 205 66 205 66 233 90 c 128,-1,99
 261 114 261 114 267 149 c 1,100,-1
 243 164 l 1,101,-1
 303 256 l 1,69,-1
EndSplineSet
Validated: 1
EndChar

StartChar: wind_generator
Encoding: 57352 57352 40
Width: 560
VWidth: 828
Flags: W
HStem: 248 46<433.688 539.364> 316 64<221.282 266.718>
VStem: 204 57<197.285 268.462>
LayerCount: 2
Fore
SplineSet
248 298 m 1,0,1
 253 300 253 300 261 302 c 1,2,-1
 284 -34 l 1,3,-1
 188 -34 l 1,4,-1
 204 246 l 1,5,6
 228 269 228 269 240 285 c 1,7,-1
 248 298 l 1,0,1
298 354 m 1,8,9
 315 353 315 353 368.5 337.5 c 128,-1,10
 422 322 422 322 491 294 c 128,-1,11
 560 266 560 266 560 254 c 0,12,13
 560 241 560 241 482 254 c 128,-1,14
 404 267 404 267 348 283 c 128,-1,15
 292 299 292 299 278 309 c 1,16,17
 298 325 298 325 298 348 c 2,18,-1
 298 354 l 1,8,9
4 127 m 0,19,20
 0 126 0 126 0 130 c 0,21,22
 0 143 0 143 46 197.5 c 128,-1,23
 92 252 92 252 135 290 c 128,-1,24
 178 328 178 328 192 336 c 1,25,26
 198 310 198 310 224 300 c 1,27,28
 183 246 183 246 76 169 c 0,29,30
 18 127 18 127 4 127 c 0,19,20
250 400 m 1,31,-1
 240 400 l 1,32,33
 216 399 216 399 202 382 c 1,34,35
 193 395 193 395 177.5 449 c 128,-1,36
 162 503 162 503 152 560.5 c 128,-1,37
 142 618 142 618 142 635 c 128,-1,38
 142 652 142 652 145 653 c 128,-1,39
 148 654 148 654 148 655 c 1,40,41
 159 655 159 655 187.5 587.5 c 128,-1,42
 216 520 216 520 232 468.5 c 128,-1,43
 248 417 248 417 250 400 c 1,31,-1
244 380 m 128,-1,45
 258 380 258 380 267 370.5 c 128,-1,46
 276 361 276 361 277 348 c 128,-1,47
 278 335 278 335 268 325.5 c 128,-1,48
 258 316 258 316 244 316 c 128,-1,49
 230 316 230 316 221 325.5 c 128,-1,50
 212 335 212 335 212 348 c 128,-1,51
 212 361 212 361 221 370.5 c 128,-1,44
 230 380 230 380 244 380 c 128,-1,45
EndSplineSet
Validated: 1
EndChar

StartChar: crucifix
Encoding: 57353 57353 41
Width: 452
VWidth: 828
Flags: W
HStem: 383 98<14.439 178 274 437.561>
VStem: 178 96<-26.561 383 481 650.076>
LayerCount: 2
Fore
SplineSet
452 431.5 m 128,-1,1
 452 411 452 411 438 397 c 128,-1,2
 424 383 424 383 404 383 c 2,3,-1
 274 383 l 1,4,-1
 274 7 l 2,5,6
 274 -14 274 -14 260 -27.5 c 128,-1,7
 246 -41 246 -41 226 -41 c 128,-1,8
 206 -41 206 -41 192 -27 c 128,-1,9
 178 -13 178 -13 178 7 c 2,10,-1
 178 383 l 1,11,-1
 48 383 l 2,12,13
 27 383 27 383 13.5 397 c 128,-1,14
 0 411 0 411 0 431.5 c 128,-1,15
 0 452 0 452 14 466.5 c 128,-1,16
 28 481 28 481 48 481 c 2,17,-1
 178 481 l 1,18,-1
 178 616 l 2,19,20
 178 637 178 637 192 650.5 c 128,-1,21
 206 664 206 664 226 664 c 128,-1,22
 246 664 246 664 260 649.5 c 128,-1,23
 274 635 274 635 274 616 c 2,24,-1
 274 481 l 1,25,-1
 404 481 l 2,26,27
 425 481 425 481 438.5 466.5 c 128,-1,0
 452 452 452 452 452 431.5 c 128,-1,1
EndSplineSet
Validated: 1
EndChar

StartChar: cave_entrance
Encoding: 57354 57354 42
Width: 771
VWidth: 828
Flags: W
HStem: 0 316<571.781 673.802> 253 271<337.654 442.534>
VStem: 0 231<33.1257 184.962>
LayerCount: 2
Fore
SplineSet
56 0 m 2,0,1
 4 0 4 0 0 50 c 1,2,-1
 0 60 l 2,3,4
 0 146 0 146 54 268 c 0,5,6
 86 343 86 343 140 377 c 0,7,8
 177 400 177 400 217 400 c 0,9,10
 235 400 235 400 256 395 c 1,11,12
 276 460 276 460 329 496 c 0,13,14
 369 524 369 524 410.5 524 c 128,-1,15
 452 524 452 524 492 488 c 0,16,17
 546 441 546 441 571 308 c 1,18,19
 596 316 596 316 621.5 316 c 128,-1,20
 647 316 647 316 670 297 c 0,21,22
 711 262 711 262 733.5 204.5 c 128,-1,23
 756 147 756 147 763 105 c 1,24,-1
 771 21 l 2,25,26
 772 12 772 12 754.5 6 c 128,-1,27
 737 0 737 0 713 0 c 2,28,-1
 544 0 l 2,29,30
 521 0 521 0 505.5 8 c 128,-1,31
 490 16 490 16 490 29 c 1,32,33
 506 62 506 62 506.5 114.5 c 128,-1,34
 507 167 507 167 466.5 210 c 128,-1,35
 426 253 426 253 368.5 253 c 128,-1,36
 311 253 311 253 271 209.5 c 128,-1,37
 231 166 231 166 231 107 c 0,38,39
 231 68 231 68 249 32 c 1,40,41
 250 18 250 18 235 9 c 128,-1,42
 220 0 220 0 195 0 c 2,43,-1
 56 0 l 2,0,1
EndSplineSet
Validated: 1
EndChar

StartChar: castle_defensive
Encoding: 57355 57355 43
Width: 759
VWidth: 828
Flags: W
HStem: 2 100<165 250> 235 63<529.469 586.174> 248 70<176.437 241.313> 465 95<176.346 231.851>
VStem: 0 56<561.992 632.951> 47 118<102.248 241.65 318.268 457.663> 113 61<561.834 632.862> 232 61<561.861 632.842> 250 108<373.032 456.547> 349 56<561.385 632.842> 468 61<299.54 371.862> 587 59<301 364.781> 650 109<8.70398 167.916> 704 55<299.439 364.781>
LayerCount: 2
Fore
SplineSet
250 340 m 2,0,-1
 250 401 l 2,1,2
 250 444 250 444 226 460 c 0,3,4
 218 465 218 465 209 465 c 0,5,6
 186 466 186 466 178 446 c 0,7,8
 167 425 167 425 165 401 c 1,9,-1
 165 340 l 2,10,11
 165 331 165 331 173.5 324.5 c 128,-1,12
 182 318 182 318 191 318 c 2,13,-1
 225 318 l 2,14,15
 235 318 235 318 242.5 324.5 c 128,-1,16
 250 331 250 331 250 340 c 2,0,-1
250 124 m 2,17,-1
 250 186 l 2,18,19
 250 227 250 227 226 243 c 0,20,21
 218 248 218 248 209 248 c 0,22,23
 186 248 186 248 178 229 c 0,24,25
 167 208 167 208 165 186 c 1,26,-1
 165 124 l 2,27,28
 165 114 165 114 173.5 108 c 128,-1,29
 182 102 182 102 191 102 c 2,30,-1
 225 102 l 2,31,32
 235 102 235 102 242.5 108.5 c 128,-1,33
 250 115 250 115 250 124 c 2,17,-1
371 372 m 2,34,-1
 387 372 l 1,35,36
 397 373 397 373 404.5 365.5 c 128,-1,37
 412 358 412 358 412 349 c 2,38,-1
 412 323 l 2,39,40
 412 315 412 315 422 307 c 128,-1,41
 432 299 432 299 441 299 c 128,-1,42
 450 299 450 299 459 307 c 128,-1,43
 468 315 468 315 468 323 c 2,44,-1
 468 349 l 2,45,46
 468 359 468 359 476 365.5 c 128,-1,47
 484 372 484 372 493 372 c 2,48,-1
 504 372 l 2,49,50
 514 372 514 372 521.5 365 c 128,-1,51
 529 358 529 358 529 349 c 2,52,-1
 529 322 l 2,53,54
 529 313 529 313 539 305.5 c 128,-1,55
 549 298 549 298 558 298 c 128,-1,56
 567 298 567 298 577 305.5 c 128,-1,57
 587 313 587 313 587 322 c 2,58,-1
 587 349 l 2,59,60
 587 359 587 359 594 365.5 c 128,-1,61
 601 372 601 372 610 372 c 2,62,-1
 623 372 l 2,63,64
 634 372 634 372 640 365 c 128,-1,65
 646 358 646 358 646 349 c 2,66,-1
 646 323 l 2,67,68
 646 315 646 315 657.5 307 c 128,-1,69
 669 299 669 299 677.5 299 c 128,-1,70
 686 299 686 299 695 307 c 128,-1,71
 704 315 704 315 704 323 c 2,72,-1
 704 349 l 2,73,74
 704 359 704 359 711 365.5 c 128,-1,75
 718 372 718 372 727 372 c 2,76,-1
 736 372 l 2,77,78
 747 372 747 372 753 365 c 128,-1,79
 759 358 759 358 759 349 c 2,80,-1
 759 25 l 2,81,82
 759 15 759 15 752 8.5 c 128,-1,83
 745 2 745 2 736 2 c 2,84,-1
 673 2 l 2,85,86
 663 2 663 2 656.5 8.5 c 128,-1,87
 650 15 650 15 650 25 c 2,88,-1
 650 104 l 1,89,90
 648 141 648 141 615 188 c 0,91,92
 584 235 584 235 538 235 c 0,93,94
 490 234 490 234 452 178 c 0,95,96
 439 159 439 159 432 143.5 c 128,-1,97
 425 128 425 128 425 104 c 2,98,-1
 425 25 l 2,99,100
 425 15 425 15 417.5 8.5 c 128,-1,101
 410 2 410 2 399 2 c 2,102,-1
 74 2 l 2,103,104
 49 2 49 2 47 7 c 1,105,-1
 47 405 l 2,106,107
 47 429 47 429 34 446 c 2,108,-1
 14 471 l 2,109,110
 0 489 0 489 0 512 c 2,111,-1
 0 609 l 2,112,113
 0 619 0 619 7 626 c 128,-1,114
 14 633 14 633 23 633 c 2,115,-1
 32 633 l 2,116,117
 43 633 43 633 49.5 625 c 128,-1,118
 56 617 56 617 56 609 c 2,119,-1
 56 584 l 2,120,121
 56 574 56 574 66.5 567.5 c 128,-1,122
 77 561 77 561 85 561 c 128,-1,123
 93 561 93 561 103 568 c 128,-1,124
 113 575 113 575 113 584 c 2,125,-1
 113 609 l 2,126,127
 113 619 113 619 120.5 626 c 128,-1,128
 128 633 128 633 138 633 c 2,129,-1
 151 633 l 2,130,131
 162 633 162 633 168 625 c 128,-1,132
 174 617 174 617 174 609 c 2,133,-1
 174 583 l 2,134,135
 174 573 174 573 184 566.5 c 128,-1,136
 194 560 194 560 204 560 c 128,-1,137
 214 560 214 560 223 567 c 128,-1,138
 232 574 232 574 232 583 c 2,139,-1
 232 609 l 2,140,141
 232 619 232 619 239 626 c 128,-1,142
 246 633 246 633 255 633 c 2,143,-1
 268 633 l 2,144,145
 278 633 278 633 285.5 625 c 128,-1,146
 293 617 293 617 293 609 c 2,147,-1
 293 584 l 2,148,149
 293 574 293 574 303 567.5 c 128,-1,150
 313 561 313 561 322.5 561 c 128,-1,151
 332 561 332 561 340.5 568 c 128,-1,152
 349 575 349 575 349 584 c 2,153,-1
 349 609 l 2,154,155
 349 619 349 619 357 626 c 128,-1,156
 365 633 365 633 374 633 c 2,157,-1
 383 633 l 2,158,159
 393 633 393 633 399 625 c 128,-1,160
 405 617 405 617 405 609 c 2,161,-1
 405 512 l 2,162,163
 405 490 405 490 392 471 c 1,164,-1
 372 446 l 2,165,166
 358 428 358 428 358 380 c 0,167,168
 358 374 358 374 361.5 373 c 128,-1,169
 365 372 365 372 371 372 c 2,34,-1
EndSplineSet
Validated: 1
EndChar

StartChar: cinema
Encoding: 57356 57356 44
Width: 749
VWidth: 828
Flags: W
HStem: -66 39<143.579 200.352> 16 37<141.734 201.658> 69 38<563 625.057> 137 37<496.125 515.906> 150 36<567.13 623.862> 270 40<137.249 194.384> 352 28<137.589 196.007> 406 40<560.383 620.825> 486 28<561.381 618.582>
VStem: 0 58<68.3125 292.968> 0 34<1.59473 45 339.78 384> 96 45<-14.4828 15.676 325.517 352> 202 45<-8.99854 16.5625 328 353.998> 238 39<86.4795 278.422> 308 43<33.9092 43.9213 375 383.453> 409 45<82.5126 95.4523 417.063 426> 457 39<176.682 370.452> 519 44<107.32 134.937 444.902 470.453> 625 44<107 129.906 445 467.999> 677 72<174.063 396.021> 727 22<67 108.197 407 443.003>
LayerCount: 2
Fore
SplineSet
83 367 m 0,0,1
 61 374 61 374 46 384 c 128,-1,2
 31 394 31 394 31 384 c 2,3,-1
 31 363 l 2,4,5
 31 352 31 352 42 345 c 0,6,7
 75 325 75 325 84.5 325.5 c 128,-1,8
 94 326 94 326 94 331 c 2,9,-1
 94 352 l 2,10,11
 94 363 94 363 83 367 c 0,0,1
146 352 m 2,12,13
 137 352 137 352 137 343 c 2,14,-1
 137 322 l 2,15,16
 137 310 137 310 146 310 c 2,17,-1
 162 310 l 2,18,19
 191 310 191 310 194.5 314.5 c 128,-1,20
 198 319 198 319 198 324 c 2,21,-1
 198 345 l 2,22,23
 198 354 198 354 184.5 353 c 128,-1,24
 171 352 171 352 162 352 c 2,25,-1
 146 352 l 2,12,13
301 383.5 m 128,-1,27
 299 385 299 385 285.5 380 c 128,-1,28
 272 375 272 375 257.5 370.5 c 128,-1,29
 243 366 243 366 243 356 c 2,30,-1
 243 334 l 1,31,32
 245 330 245 330 245 328 c 0,33,34
 252 324 252 324 294 342 c 0,35,36
 305 346 305 346 303 356 c 1,37,-1
 303 378 l 2,38,26
 303 382 303 382 301 383.5 c 128,-1,27
409 426 m 2,39,40
 409 436 409 436 401 432 c 128,-1,41
 393 428 393 428 377.5 420.5 c 128,-1,42
 362 413 362 413 355.5 410 c 128,-1,43
 349 407 349 407 349 397 c 2,44,-1
 349 375 l 2,45,46
 349 365 349 365 358 369 c 0,47,48
 389 383 389 383 399 388 c 128,-1,49
 409 393 409 393 409 404 c 2,50,-1
 409 426 l 2,39,40
517 465 m 2,51,52
 517 472 517 472 509 472 c 128,-1,53
 501 472 501 472 465 460 c 0,54,55
 454 457 454 457 454 446 c 2,56,-1
 454 423 l 2,57,58
 454 412 454 412 470 418.5 c 128,-1,59
 486 425 486 425 501 429 c 0,60,61
 515 434 515 434 517 446 c 1,62,-1
 517 465 l 2,51,52
589 486 m 0,63,64
 558 486 558 486 560 473 c 1,65,-1
 560 452 l 2,66,67
 560 443 560 443 571 444 c 0,68,69
 593 446 593 446 610 446 c 0,70,71
 619 444 619 444 621 452 c 1,72,-1
 621 473 l 2,73,74
 621 482 621 482 610 485 c 0,75,76
 598 485 598 485 589 486 c 0,63,64
727 428 m 1,77,78
 725 443 725 443 675 468 c 0,79,80
 666 472 666 472 666 464 c 2,81,-1
 666 441 l 2,82,83
 666 432 666 432 675 428 c 0,84,85
 696 419 696 419 711.5 408 c 128,-1,86
 727 397 727 397 727 407 c 2,87,-1
 727 428 l 1,77,78
235 278.5 m 128,-1,89
 232 281 232 281 212.5 275.5 c 128,-1,90
 193 270 193 270 151.5 270 c 128,-1,91
 110 270 110 270 69 292 c 0,92,93
 58 298 58 298 58 286 c 2,94,-1
 58 88 l 2,95,96
 58 77 58 77 69 73 c 0,97,98
 111 53 111 53 152 53 c 128,-1,99
 193 53 193 53 227 63 c 0,100,101
 236 66 236 66 238 76 c 1,102,-1
 238 272 l 2,103,88
 238 276 238 276 235 278.5 c 128,-1,89
454.5 370.5 m 128,-1,105
 452 372 452 372 438.5 366.5 c 128,-1,106
 425 361 425 361 371 335.5 c 128,-1,107
 317 310 317 310 288 300 c 0,108,109
 277 296 277 296 277 285 c 2,110,-1
 277 87 l 2,111,112
 277 77 277 77 288 82 c 0,113,114
 330 99 330 99 447 153 c 0,115,116
 458 156 458 156 457 166 c 1,117,-1
 457 364 l 2,118,104
 457 369 457 369 454.5 370.5 c 128,-1,105
666 392 m 0,119,120
 597 419 597 419 508 392 c 0,121,122
 498 388 498 388 496 378 c 1,123,-1
 496 181 l 1,124,125
 497 172 497 172 508 174 c 0,126,127
 596 199 596 199 666 174 c 0,128,129
 670 172 670 172 673.5 174 c 128,-1,130
 677 176 677 176 677 179 c 2,131,-1
 677 376 l 2,132,133
 677 388 677 388 666 392 c 0,119,120
87 29 m 0,134,135
 65 36 65 36 49.5 45 c 128,-1,136
 34 54 34 54 34 45 c 2,137,-1
 34 23 l 2,138,139
 34 12 34 12 45 5 c 0,140,141
 96 -27 96 -27 96 -7 c 2,142,-1
 96 14 l 2,143,144
 96 25 96 25 87 29 c 0,134,135
141 -15 m 2,145,146
 142 -27 142 -27 152 -27 c 2,147,-1
 162 -27 l 1,148,149
 203 -28 203 -28 202 -13 c 1,150,-1
 202 8 l 2,151,152
 202 20 202 20 188.5 18 c 128,-1,153
 175 16 175 16 166 16 c 2,154,-1
 151 16 l 2,155,156
 140 16 140 16 141 5 c 1,157,-1
 141 -15 l 2,145,146
308 41 m 2,158,159
 308 53 308 53 292 46.5 c 128,-1,160
 276 40 276 40 261.5 35 c 128,-1,161
 247 30 247 30 247 20 c 2,162,-1
 247 -3 l 2,163,164
 247 -9 247 -9 254 -9 c 128,-1,165
 261 -9 261 -9 297 5 c 0,166,167
 306 9 306 9 308 21 c 1,168,-1
 308 41 l 2,158,159
410.5 95.5 m 128,-1,170
 407 97 407 97 388 88 c 128,-1,171
 369 79 369 79 360 75 c 128,-1,172
 351 71 351 71 351 62 c 2,173,-1
 351 40 l 2,174,175
 351 31 351 31 362 34 c 1,176,-1
 378 42 l 2,177,178
 394 50 394 50 403 54 c 128,-1,179
 412 58 412 58 414 68 c 1,180,-1
 414 89 l 2,181,169
 414 94 414 94 410.5 95.5 c 128,-1,170
519 129 m 2,182,183
 518 137 518 137 508 137 c 0,184,185
 504 137 504 137 468 122 c 0,186,187
 458 118 458 118 457 108 c 1,188,-1
 457 86 l 2,189,190
 457 75 457 75 473.5 81.5 c 128,-1,191
 490 88 490 88 510 94 c 0,192,193
 519 97 519 97 519 108 c 2,194,-1
 519 129 l 2,182,183
625 137 m 2,195,196
 625 151 625 151 598 150.5 c 128,-1,197
 571 150 571 150 567 145.5 c 128,-1,198
 563 141 563 141 563 137 c 2,199,-1
 563 117 l 2,200,201
 563 107 563 107 574 107 c 2,202,-1
 607 107 l 1,203,204
 627 105 627 105 625 115 c 1,205,-1
 625 137 l 2,195,196
720 106 m 0,206,207
 682 130 682 130 673 130 c 0,208,209
 669 127 669 127 669 124 c 2,210,-1
 669 104 l 1,211,212
 668 94 668 94 679 87 c 0,213,214
 699 78 699 78 720 64 c 0,215,216
 729 59 729 59 731 67 c 1,217,-1
 731 87 l 1,218,219
 729 99 729 99 720 106 c 0,206,207
0 13 m 2,220,-1
 0 436 l 2,221,222
 0 440 0 440 3.5 440 c 128,-1,223
 7 440 7 440 11 436 c 0,224,225
 78 379 78 379 164 380 c 0,226,227
 229 382 229 382 322 424 c 0,228,229
 376 447 376 447 429 470 c 0,230,231
 528 514 528 514 587 514 c 0,232,233
 673 510 673 510 740 456 c 0,234,235
 751 447 751 447 749 436 c 1,236,-1
 749 13 l 2,237,238
 749 9 749 9 746.5 7.5 c 128,-1,239
 744 6 744 6 740 12 c 0,240,241
 675 65 675 65 587 69 c 0,242,243
 526 68 526 68 429 24 c 0,244,245
 377 0 377 0 322 -22 c 0,246,247
 223 -66 223 -66 164 -66 c 0,248,249
 78 -66 78 -66 11 -8 c 0,250,251
 0 2 0 2 0 13 c 2,220,-1
EndSplineSet
Validated: 1
EndChar

StartChar: water_tower
Encoding: 57357 57357 45
Width: 309
VWidth: 828
Flags: W
HStem: 4 69<71.7051 231.551> 101 67<71.3301 231.551> 199 66<71.0957 231.581> 300 51<76.1191 222.007> 309 85<52.0625 76.8774 220.693 265.851> 378 47<76.0312 134.094 165.266 222.667> 418 46<29.656 77.5338> 479 56<5.15771 50.5642 111.206 289> 479 47<112.652 177.478> 556 78<95.8506 214.322> 556 14<0.292969 24.0586>
VStem: 71 170<16.2808 72.8743 112.188 167.882 207.281 264.359>
LayerCount: 2
Fore
SplineSet
241 62 m 2,0,-1
 241 32 l 1,1,2
 240 25 240 25 232 16 c 0,3,4
 218 3 218 3 155 4 c 1,5,-1
 99 7 l 1,6,7
 71 12 71 12 71 32 c 2,8,-1
 71 62 l 2,9,10
 70 79 70 79 106 75 c 0,11,12
 126 73 126 73 154 73 c 0,13,14
 184 74 184 74 204 76 c 0,15,16
 242 80 242 80 241 62 c 2,0,-1
241 157 m 2,17,-1
 241 126 l 1,18,19
 238 98 238 98 155 101 c 1,20,-1
 99 104 l 1,21,22
 87 106 87 106 79 113 c 128,-1,23
 71 120 71 120 71 126 c 2,24,-1
 71 157 l 2,25,26
 71 164 71 164 79 169 c 128,-1,27
 87 174 87 174 106.5 171 c 128,-1,28
 126 168 126 168 154.5 168 c 128,-1,29
 183 168 183 168 203.5 171 c 128,-1,30
 224 174 224 174 232.5 169 c 128,-1,31
 241 164 241 164 241 157 c 2,17,-1
241 253 m 2,32,-1
 241 223 l 1,33,34
 240 216 240 216 232 207 c 0,35,36
 219 195 219 195 155 195 c 1,37,-1
 99 199 l 1,38,39
 87 201 87 201 79 208.5 c 128,-1,40
 71 216 71 216 71 223 c 2,41,-1
 71 253 l 2,42,43
 71 260 71 260 79 265 c 128,-1,44
 87 270 87 270 106.5 267.5 c 128,-1,45
 126 265 126 265 154 265 c 0,46,47
 184 265 184 265 204 267 c 0,48,49
 242 271 242 271 241 253 c 2,32,-1
273 434 m 0,50,51
 280 437 280 437 284 432 c 128,-1,52
 288 427 288 427 285.5 417 c 128,-1,53
 283 407 283 407 278.5 400.5 c 128,-1,54
 274 394 274 394 270 395 c 0,55,56
 269 396 269 396 262 406.5 c 128,-1,57
 255 417 255 417 246 414.5 c 128,-1,58
 237 412 237 412 227 403.5 c 128,-1,59
 217 395 217 395 208 386.5 c 128,-1,60
 199 378 199 378 190 378 c 128,-1,61
 181 378 181 378 171.5 392 c 128,-1,62
 162 406 162 406 152.5 406.5 c 128,-1,63
 143 407 143 407 133.5 400 c 128,-1,64
 124 393 124 393 115.5 386 c 128,-1,65
 107 379 107 379 96.5 379 c 128,-1,66
 86 379 86 379 76 398.5 c 128,-1,67
 66 418 66 418 52 418 c 0,68,69
 48 418 48 418 43.5 414.5 c 128,-1,70
 39 411 39 411 33 414 c 0,71,72
 19 419 19 419 26 443 c 0,73,74
 34 459 34 459 37 460 c 128,-1,75
 40 461 40 461 42 462 c 128,-1,76
 44 463 44 463 46.5 463.5 c 128,-1,77
 49 464 49 464 51.5 464 c 128,-1,78
 54 464 54 464 57.5 462.5 c 128,-1,79
 61 461 61 461 64 459 c 0,80,81
 70 455 70 455 78 445 c 0,82,83
 92 418 92 418 116 432 c 0,84,85
 124 438 124 438 133.5 446 c 128,-1,86
 143 454 143 454 152.5 454 c 128,-1,87
 162 454 162 454 171.5 439.5 c 128,-1,88
 181 425 181 425 190 425 c 128,-1,89
 199 425 199 425 208 434 c 128,-1,90
 217 443 217 443 226.5 450.5 c 128,-1,91
 236 458 236 458 245 460 c 128,-1,92
 254 462 254 462 265 448 c 0,93,94
 270 437 270 437 273 434 c 0,50,51
97 452 m 128,-1,96
 85 452 85 452 75 470.5 c 128,-1,97
 65 489 65 489 51 489.5 c 128,-1,98
 37 490 37 490 30.5 483.5 c 128,-1,99
 24 477 24 477 16.5 479 c 128,-1,100
 9 481 9 481 7 491 c 0,101,102
 4 501 4 501 2 512 c 0,103,104
 -3 535 -3 535 21 535 c 0,105,106
 88 526 88 526 154 526 c 1,107,-1
 289 535 l 2,108,109
 299 536 299 536 303.5 530 c 128,-1,110
 308 524 308 524 306 514 c 0,111,112
 306 504 306 504 302 494 c 0,113,114
 292 467 292 467 274 457 c 0,115,116
 273 457 273 457 263.5 472 c 128,-1,117
 254 487 254 487 244.5 485.5 c 128,-1,118
 235 484 235 484 225.5 476 c 128,-1,119
 216 468 216 468 207.5 459.5 c 128,-1,120
 199 451 199 451 189 451.5 c 128,-1,121
 179 452 179 452 170 466 c 0,122,123
 154 490 154 490 131.5 471 c 128,-1,95
 109 452 109 452 97 452 c 128,-1,96
300 570 m 0,124,125
 311 566 311 566 309 562 c 0,126,127
 303 550 303 550 154 550 c 1,128,-1
 12 556 l 2,129,130
 0 557 0 557 0 561.5 c 128,-1,131
 0 566 0 566 9 570 c 0,132,133
 55 590 55 590 129 628 c 0,134,135
 140 633 140 633 155.5 633.5 c 128,-1,136
 171 634 171 634 182 628 c 0,137,138
 254 590 254 590 300 570 c 0,124,125
230 308 m 0,139,140
 201 300 201 300 162 300 c 128,-1,141
 123 300 123 300 102.5 303.5 c 128,-1,142
 82 307 82 307 72 309 c 128,-1,143
 62 311 62 311 49.5 324.5 c 128,-1,144
 37 338 37 338 37 361.5 c 128,-1,145
 37 385 37 385 52 393 c 0,146,147
 54 394 54 394 56 394 c 0,148,149
 66 394 66 394 75.5 374.5 c 128,-1,150
 85 355 85 355 95 353.5 c 128,-1,151
 105 352 105 352 114.5 359 c 128,-1,152
 124 366 124 366 133.5 373 c 128,-1,153
 143 380 143 380 152.5 379.5 c 128,-1,154
 162 379 162 379 171.5 365 c 128,-1,155
 181 351 181 351 190 351 c 128,-1,156
 199 351 199 351 208 360 c 0,157,158
 232 384 232 384 243.5 388.5 c 128,-1,159
 255 393 255 393 265 378 c 0,160,161
 268 374 268 374 268 373 c 0,162,163
 275 369 275 369 271 349 c 0,164,165
 265 315 265 315 241 310 c 0,166,167
 237 308 237 308 230 308 c 0,139,140
EndSplineSet
Validated: 1
EndChar

StartChar: boundary_stone
Encoding: 57358 57358 46
Width: 414
VWidth: 828
Flags: W
LayerCount: 2
Fore
SplineSet
206 179 m 1,0,-1
 414 24 l 1,1,-1
 414 20 l 2,2,3
 414 13 414 13 407 7.5 c 128,-1,4
 400 2 400 2 394 2 c 2,5,-1
 18 2 l 2,6,7
 10 2 10 2 5 7.5 c 128,-1,8
 0 13 0 13 0 20 c 2,9,-1
 0 24 l 1,10,-1
 206 179 l 1,0,-1
206 384 m 1,11,-1
 340 284 l 1,12,-1
 340 158 l 1,13,-1
 206 259 l 1,14,-1
 72 158 l 1,15,-1
 72 284 l 1,16,-1
 206 384 l 1,11,-1
206 658 m 128,-1,18
 214 658 214 658 218 651 c 2,19,-1
 328 486 l 1,20,21
 340 470 340 470 340 452 c 2,22,-1
 340 363 l 1,23,-1
 206 463 l 1,24,-1
 72 363 l 1,25,-1
 72 452 l 2,26,27
 72 472 72 472 84 486 c 1,28,-1
 196 651 l 1,29,17
 198 658 198 658 206 658 c 128,-1,18
EndSplineSet
Validated: 1
EndChar

StartChar: cinema_alt
Encoding: 57360 57360 47
Width: 745
VWidth: 828
Flags: W
HStem: 1 237<49.1504 201.195 331.352 517.77> 290 92<97.5374 141.19> 290 38<52.6615 141.5> 291 139<397.74 461.921> 432 93<96.8285 137.414> 590 57<343.607 468.75>
VStem: 0 93<389.279 428.047> 0 35<344.963 430.75> 142 92<382.652 428.047> 254 56<431.25 556.88> 470 140<438.351 498.92> 553 192<145.209 280.013>
LayerCount: 2
Fore
SplineSet
430 238 m 0,0,1
 477 238 477 238 522 257 c 1,2,-1
 522 40 l 2,3,4
 522 25 522 25 510.5 13.5 c 128,-1,5
 499 2 499 2 483 1 c 1,6,-1
 85 1 l 2,7,8
 69 1 69 1 57 12.5 c 128,-1,9
 45 24 45 24 45 40 c 2,10,-1
 45 253 l 1,11,12
 78 239 78 239 117.5 238 c 128,-1,13
 157 237 157 237 192.5 255.5 c 128,-1,14
 228 274 228 274 252 307 c 1,15,-1
 266 307 l 1,16,17
 335 238 335 238 430 238 c 0,0,1
117 382 m 128,-1,19
 127 382 127 382 134.5 389.5 c 128,-1,20
 142 397 142 397 142 407.5 c 128,-1,21
 142 418 142 418 134.5 425 c 128,-1,22
 127 432 127 432 117 432 c 128,-1,23
 107 432 107 432 100 425 c 128,-1,24
 93 418 93 418 93 407.5 c 128,-1,25
 93 397 93 397 100 389.5 c 128,-1,18
 107 382 107 382 117 382 c 128,-1,19
82 394 m 1,26,27
 35 370 35 370 35 354 c 0,28,29
 35 348 35 348 45 338 c 128,-1,30
 55 328 55 328 61 328 c 0,31,32
 78 328 78 328 102 375 c 1,33,34
 88 381 88 381 82 394 c 1,26,27
117 525 m 128,-1,36
 166 525 166 525 200 490 c 128,-1,37
 234 455 234 455 234 406.5 c 128,-1,38
 234 358 234 358 200 324 c 128,-1,39
 166 290 166 290 117 290 c 128,-1,40
 68 290 68 290 34 324 c 128,-1,41
 0 358 0 358 0 406.5 c 128,-1,42
 0 455 0 455 34 490 c 128,-1,35
 68 525 68 525 117 525 c 128,-1,36
432.5 430 m 128,-1,44
 448 430 448 430 459 441.5 c 128,-1,45
 470 453 470 453 470 469 c 128,-1,46
 470 485 470 485 459 496 c 128,-1,47
 448 507 448 507 432.5 507 c 128,-1,48
 417 507 417 507 405.5 496 c 128,-1,49
 394 485 394 485 394 469 c 128,-1,50
 394 453 394 453 405.5 441.5 c 128,-1,43
 417 430 417 430 432.5 430 c 128,-1,44
378 495 m 1,51,52
 385 516 385 516 406 523 c 1,53,54
 398 540 398 540 384.5 558.5 c 128,-1,55
 371 577 371 577 364 583.5 c 128,-1,56
 357 590 357 590 349 590 c 128,-1,57
 341 590 341 590 325.5 575.5 c 128,-1,58
 310 561 310 561 310 552 c 128,-1,59
 310 543 310 543 316 537 c 0,60,61
 340 515 340 515 378 495 c 1,51,52
431.5 647 m 128,-1,63
 506 647 506 647 558 595 c 128,-1,64
 610 543 610 543 610 468.5 c 128,-1,65
 610 394 610 394 558 342.5 c 128,-1,66
 506 291 506 291 431.5 291 c 128,-1,67
 357 291 357 291 305.5 342.5 c 128,-1,68
 254 394 254 394 254 468.5 c 128,-1,69
 254 543 254 543 305.5 595 c 128,-1,62
 357 647 357 647 431.5 647 c 128,-1,63
724 337 m 0,70,71
 745 338 745 338 745 320 c 2,72,-1
 745 104 l 1,73,74
 746 91 746 91 734 87.5 c 128,-1,75
 722 84 722 84 706 91 c 2,76,-1
 590 137 l 2,77,78
 575 143 575 143 564 155.5 c 128,-1,79
 553 168 553 168 553 180 c 2,80,-1
 553 245 l 2,81,82
 553 256 553 256 563 269 c 128,-1,83
 573 282 573 282 590 286 c 1,84,-1
 706 334 l 1,85,86
 716 337 716 337 724 337 c 0,70,71
EndSplineSet
Validated: 1
EndChar

StartChar: court_house
Encoding: 57361 57361 48
Width: 703
VWidth: 828
Flags: W
HStem: 3 97<192.188 271.328 420.734 504> 3 66<116.376 186 504 595.799> 133 87<45.3213 175.302 529.152 657.787> 500 85<23.3906 175.906 593.282 659.285> 500 75<62.25 154.717> 537 77<159.223 316.689 381.187 545.929>
VStem: 0 44<220 277.161> 176 44<188.25 272.861> 285 127<146.25 457.746> 658 44<222.5 282.688>
LayerCount: 2
Fore
SplineSet
349 536 m 128,-1,1
 360 536 360 536 368 543.5 c 128,-1,2
 376 551 376 551 376 562 c 128,-1,3
 376 573 376 573 368 580.5 c 128,-1,4
 360 588 360 588 349 588 c 128,-1,5
 338 588 338 588 330 580.5 c 128,-1,6
 322 573 322 573 322 562 c 128,-1,7
 322 551 322 551 330 543.5 c 128,-1,0
 338 536 338 536 349 536 c 128,-1,1
674 580 m 1,8,9
 678 573 678 573 676 565 c 1,10,-1
 676 551 l 1,11,12
 674 530 674 530 666 526 c 0,13,14
 630 504 630 504 601 503.5 c 128,-1,15
 572 503 572 503 540 516.5 c 128,-1,16
 508 530 508 530 492 536 c 0,17,18
 451 551 451 551 376 524 c 1,19,20
 394 452 394 452 403 364.5 c 128,-1,21
 412 277 412 277 412 252 c 0,22,23
 410 182 410 182 404 143 c 1,24,25
 424 126 424 126 428 100 c 1,26,-1
 480 100 l 2,27,28
 490 100 490 100 497 93 c 128,-1,29
 504 86 504 86 504 78 c 2,30,-1
 504 69 l 1,31,-1
 560 69 l 2,32,33
 575 69 575 69 586.5 59 c 128,-1,34
 598 49 598 49 598 36 c 2,35,-1
 598 3 l 1,36,-1
 106 3 l 1,37,-1
 106 36 l 2,38,39
 106 48 106 48 116 58 c 0,40,41
 128 68 128 68 144 69 c 1,42,-1
 186 69 l 1,43,-1
 186 78 l 2,44,45
 186 87 186 87 192 93.5 c 128,-1,46
 198 100 198 100 208 100 c 2,47,-1
 264 100 l 1,48,49
 268 128 268 128 292 145 c 1,50,51
 284 185 284 185 285 226.5 c 128,-1,52
 286 268 286 268 292 337 c 0,53,54
 301 439 301 439 320 522 c 1,55,56
 246 548 246 548 202 532 c 0,57,58
 186 526 186 526 154 512 c 128,-1,59
 122 498 122 498 107 499 c 128,-1,60
 92 500 92 500 90 500 c 0,61,62
 60 500 60 500 28 519 c 0,63,64
 20 522 20 522 16 536 c 0,65,66
 13 546 13 546 18 572 c 1,67,68
 31 585 31 585 62 585 c 0,69,70
 70 586 70 586 78 580 c 0,71,72
 92 570 92 570 128 586 c 0,73,74
 196 616 196 616 236 615 c 128,-1,75
 276 614 276 614 318 603 c 1,76,77
 320 616 320 616 328 628 c 0,78,79
 335 640 335 640 350 650 c 1,80,81
 376 632 376 632 380 606 c 1,82,83
 418 616 418 616 455 616 c 128,-1,84
 492 616 492 616 516 608.5 c 128,-1,85
 540 601 540 601 562 591 c 128,-1,86
 584 581 584 581 593 580.5 c 128,-1,87
 602 580 602 580 613 586 c 0,88,89
 634 597 634 597 664 584 c 1,90,-1
 674 580 l 1,8,9
558 221 m 2,91,-1
 594 222 l 1,92,-1
 620 222 l 1,93,94
 658 221 658 221 658 236 c 0,95,96
 658 243 658 243 643 285.5 c 128,-1,97
 628 328 628 328 610 364 c 1,98,-1
 594 401 l 1,99,100
 528 251 528 251 529 235 c 0,101,102
 527 221 527 221 558 221 c 2,91,-1
594 477 m 1,103,104
 598 467 598 467 607 452.5 c 128,-1,105
 616 438 616 438 634 395 c 2,106,-1
 666 319 l 2,107,108
 703 229 703 229 702.5 203 c 128,-1,109
 702 177 702 177 671 157 c 128,-1,110
 640 137 640 137 594 137 c 128,-1,111
 548 137 548 137 517 157 c 128,-1,112
 486 177 486 177 486 206 c 0,113,114
 486 222 486 222 512 291 c 128,-1,115
 538 360 538 360 566 418 c 2,116,-1
 594 477 l 1,103,104
60 220 m 1,117,118
 104 220 104 220 148 220 c 0,119,120
 176 222 176 222 176 235 c 128,-1,121
 176 248 176 248 126 362 c 1,122,-1
 108 399 l 1,123,124
 42 249 42 249 44 232 c 0,125,126
 44 222 44 222 60 220 c 1,117,118
108 475 m 1,127,128
 129 436 129 436 174.5 330.5 c 128,-1,129
 220 225 220 225 220 200.5 c 128,-1,130
 220 176 220 176 187 154.5 c 128,-1,131
 154 133 154 133 109 133 c 128,-1,132
 64 133 64 133 32 154.5 c 128,-1,133
 0 176 0 176 0 206.5 c 128,-1,134
 0 237 0 237 82 418 c 2,135,-1
 108 475 l 1,127,128
EndSplineSet
Validated: 1
EndChar

StartChar: fort
Encoding: 57362 57362 49
Width: 678
VWidth: 828
Flags: W
HStem: 326 68<92.125 129.688 548.125 583.657> 493 130<91 133.687 548.25 583.875>
VStem: 0 46<569 623> 26 242<5.09448 139.594 281 285 304 310> 26 62<225 325.733 397.156 492.825> 88 46<568 623> 138 60<394 478.625> 178 46<568 623> 312 66<273 319> 406 244<2 164.932> 424 119<273 318.91> 452 42<568 618.875> 476 67<397.156 478.594> 538 46<568.015 623> 594 56<225 314.501 394 482.562> 630 48<568 623>
LayerCount: 2
Fore
SplineSet
543 406 m 1,0,1
 546 394 546 394 556 394 c 2,2,-1
 580 394 l 2,3,4
 584 394 584 394 589 398 c 128,-1,5
 594 402 594 402 594 406 c 2,6,-1
 594 454 l 2,7,8
 594 469 594 469 584 483 c 0,9,10
 580 486 580 486 577 489.5 c 128,-1,11
 574 493 574 493 565 493 c 128,-1,12
 556 493 556 493 548 479 c 0,13,14
 543 466 543 466 543 454 c 2,15,-1
 543 406 l 1,0,1
594 237 m 2,16,-1
 594 286 l 2,17,18
 594 299 594 299 584 315 c 0,19,20
 573 326 573 326 564.5 326 c 128,-1,21
 556 326 556 326 548 311 c 0,22,23
 543 298 543 298 543 286 c 2,24,-1
 543 237 l 2,25,26
 543 233 543 233 546.5 229 c 128,-1,27
 550 225 550 225 556 225 c 2,28,-1
 580 225 l 2,29,30
 584 225 584 225 589 229 c 128,-1,31
 594 233 594 233 594 237 c 2,16,-1
112 493 m 0,32,33
 92 492 92 492 88 454 c 1,34,-1
 88 406 l 2,35,36
 88 402 88 402 92 398 c 128,-1,37
 96 394 96 394 100 394 c 2,38,-1
 124 394 l 2,39,40
 128 394 128 394 133 397 c 128,-1,41
 138 400 138 400 138 406 c 2,42,-1
 138 454 l 2,43,44
 138 467 138 467 134 479 c 0,45,46
 124 493 124 493 112 493 c 0,32,33
112 326 m 0,47,48
 92 324 92 324 88 286 c 1,49,-1
 88 237 l 2,50,51
 88 233 88 233 92 229 c 128,-1,52
 96 225 96 225 100 225 c 2,53,-1
 124 225 l 2,54,55
 128 225 128 225 133 228.5 c 128,-1,56
 138 232 138 232 138 237 c 2,57,-1
 138 286 l 2,58,59
 138 302 138 302 130 315 c 0,60,61
 120 326 120 326 112 326 c 0,47,48
486 623 m 2,62,63
 494 623 494 623 494 609 c 2,64,-1
 494 581 l 2,65,66
 494 575 494 575 499 571.5 c 128,-1,67
 504 568 504 568 510 568 c 2,68,-1
 528 568 l 2,69,70
 532 568 532 568 535 572 c 128,-1,71
 538 576 538 576 538 581 c 2,72,-1
 538 609 l 2,73,74
 538 623 538 623 550 623 c 2,75,-1
 572 623 l 2,76,77
 576 623 576 623 580 619 c 128,-1,78
 584 615 584 615 584 609 c 2,79,-1
 584 581 l 2,80,81
 584 567 584 567 598 568 c 1,82,-1
 618 568 l 2,83,84
 622 568 622 568 626 572 c 128,-1,85
 630 576 630 576 630 581 c 2,86,-1
 630 609 l 2,87,88
 630 615 630 615 634 619 c 128,-1,89
 638 623 638 623 642 623 c 2,90,-1
 662 623 l 2,91,92
 666 623 666 623 671 619 c 128,-1,93
 676 615 676 615 678 609 c 1,94,-1
 678 568 l 1,95,96
 674 564 674 564 674 562 c 128,-1,97
 674 560 674 560 672 556 c 2,98,-1
 656 519 l 1,99,-1
 650 507 l 1,100,-1
 650 14 l 2,101,102
 650 10 650 10 646 6 c 128,-1,103
 642 2 642 2 638 2 c 2,104,-1
 418 2 l 2,105,106
 406 2 406 2 406 14 c 2,107,-1
 406 114 l 2,108,109
 406 131 406 131 401 138.5 c 128,-1,110
 396 146 396 146 393 151.5 c 128,-1,111
 390 157 390 157 386 162 c 0,112,113
 364 194 364 194 340 195 c 0,114,115
 308 195 308 195 284 158 c 0,116,117
 275 143 275 143 272 140 c 0,118,119
 268 127 268 127 268 114 c 2,120,-1
 268 14 l 2,121,122
 268 10 268 10 264 6 c 128,-1,123
 260 2 260 2 256 2 c 2,124,-1
 38 2 l 2,125,126
 34 2 34 2 30 5 c 128,-1,127
 26 8 26 8 26 14 c 2,128,-1
 26 494 l 2,129,130
 26 508 26 508 20 519 c 1,131,-1
 0 569 l 1,132,-1
 0 609 l 2,133,134
 0 615 0 615 4 619 c 128,-1,135
 8 623 8 623 10 623 c 2,136,-1
 34 623 l 2,137,138
 41 623 41 623 46 609 c 1,139,-1
 46 581 l 1,140,141
 48 567 48 567 58 568 c 1,142,-1
 76 568 l 2,143,144
 81 568 81 568 84.5 572 c 128,-1,145
 88 576 88 576 88 581 c 2,146,-1
 88 609 l 2,147,148
 88 623 88 623 98 623 c 2,149,-1
 120 623 l 2,150,151
 131 623 131 623 134 609 c 1,152,-1
 134 581 l 2,153,154
 134 575 134 575 138 571.5 c 128,-1,155
 142 568 142 568 146 568 c 2,156,-1
 166 568 l 2,157,158
 170 568 170 568 174 572 c 128,-1,159
 178 576 178 576 178 581 c 2,160,-1
 178 609 l 2,161,162
 178 623 178 623 190 623 c 2,163,-1
 212 623 l 2,164,165
 226 623 226 623 224 609 c 1,166,-1
 224 566 l 2,167,168
 224 565 224 565 222 562.5 c 128,-1,169
 220 560 220 560 218 556 c 2,170,-1
 204 519 l 1,171,172
 198 506 198 506 198 494 c 2,173,-1
 198 326 l 2,174,175
 198 319 198 319 210 319 c 2,176,-1
 252 319 l 2,177,178
 262 319 262 319 262 304 c 2,179,-1
 262 285 l 2,180,181
 262 281 262 281 266 276.5 c 128,-1,182
 270 272 270 272 274 272 c 2,183,-1
 300 272 l 2,184,185
 304 272 304 272 308 276 c 128,-1,186
 312 280 312 280 312 285 c 2,187,-1
 312 304 l 2,188,189
 312 308 312 308 315 313.5 c 128,-1,190
 318 319 318 319 322 319 c 2,191,-1
 366 319 l 2,192,193
 370 319 370 319 374 314.5 c 128,-1,194
 378 310 378 310 378 304 c 2,195,-1
 378 285 l 2,196,197
 378 281 378 281 381 277 c 128,-1,198
 384 273 384 273 388 273 c 2,199,-1
 414 273 l 2,200,201
 424 273 424 273 424 285 c 2,202,-1
 424 304 l 2,203,204
 424 308 424 308 428 313.5 c 128,-1,205
 432 319 432 319 438 319 c 2,206,-1
 464 319 l 2,207,208
 469 319 469 319 472.5 323.5 c 128,-1,209
 476 328 476 328 476 331 c 2,210,-1
 476 508 l 1,211,-1
 456 556 l 1,212,-1
 452 569 l 1,213,-1
 452 609 l 2,214,215
 452 623 452 623 462 623 c 2,216,-1
 486 623 l 2,62,63
EndSplineSet
Validated: 1
EndChar

StartChar: fountain
Encoding: 57363 57363 50
Width: 607
VWidth: 828
Flags: W
HStem: 1 38<185.096 264.199 347.383 417.719> 248 43<3.87793 95.99 513.198 568.782 569.188 605.109> 427 55<194.117 268.304 346.408 419.087> 568 53<122.047 240.008 372.365 491.61>
VStem: 31 50<442.766 526.802> 134 51<357.251 418.786> 270 69<53.4402 92.672> 279 53<291 411.53> 427 52<357.252 419.301> 531 53<434.531 527.413>
LayerCount: 2
Fore
SplineSet
40 248 m 1,0,-1
 11 248 l 1,1,2
 0 251 0 251 0 259 c 0,3,4
 0 263 0 263 4 270 c 0,5,6
 11 290 11 290 33 290 c 2,7,-1
 279 291 l 1,8,-1
 279 378 l 1,9,10
 278 398 278 398 266 412.5 c 128,-1,11
 254 427 254 427 233.5 427 c 128,-1,12
 213 427 213 427 199.5 412 c 128,-1,13
 186 397 186 397 185 380.5 c 128,-1,14
 184 364 184 364 177 356.5 c 128,-1,15
 170 349 170 349 159 349 c 128,-1,16
 148 349 148 349 141 357 c 128,-1,17
 134 365 134 365 134 377 c 0,18,19
 134 421 134 421 162.5 451.5 c 128,-1,20
 191 482 191 482 224.5 481.5 c 128,-1,21
 258 481 258 481 279 469 c 1,22,23
 276 509 276 509 248 538.5 c 128,-1,24
 220 568 220 568 180.5 568 c 128,-1,25
 141 568 141 568 111 536 c 128,-1,26
 81 504 81 504 81 462 c 0,27,28
 81 450 81 450 74 442 c 128,-1,29
 67 434 67 434 56 434 c 128,-1,30
 45 434 45 434 38 442.5 c 128,-1,31
 31 451 31 451 31 462 c 0,32,33
 31 529 31 529 74 575 c 128,-1,34
 117 621 117 621 182 621 c 0,35,36
 220 621 220 621 252.5 602.5 c 128,-1,37
 285 584 285 584 306 552 c 1,38,39
 327 584 327 584 360 602.5 c 128,-1,40
 393 621 393 621 431 621 c 0,41,42
 494 621 494 621 539 574.5 c 128,-1,43
 584 528 584 528 584 462 c 0,44,45
 584 450 584 450 575.5 442 c 128,-1,46
 567 434 567 434 556.5 434 c 128,-1,47
 546 434 546 434 538.5 442.5 c 128,-1,48
 531 451 531 451 531 462 c 0,49,50
 531 505 531 505 501.5 536.5 c 128,-1,51
 472 568 472 568 432.5 568 c 128,-1,52
 393 568 393 568 365 539 c 128,-1,53
 337 510 337 510 333 469 c 1,54,55
 353 482 353 482 377 482 c 2,56,-1
 380 482 l 2,57,58
 421 482 421 482 450 451 c 128,-1,59
 479 420 479 420 479 377 c 0,60,61
 479 364 479 364 471 356.5 c 128,-1,62
 463 349 463 349 453 349 c 128,-1,63
 443 349 443 349 435 357 c 128,-1,64
 427 365 427 365 427 381 c 128,-1,65
 427 397 427 397 413.5 412 c 128,-1,66
 400 427 400 427 379.5 427 c 128,-1,67
 359 427 359 427 346 412 c 128,-1,68
 333 397 333 397 332 377 c 1,69,-1
 332 291 l 1,70,-1
 575 291 l 2,71,72
 582 291 582 291 589 286 c 0,73,74
 605 278 605 278 606 263 c 128,-1,75
 607 248 607 248 591 248 c 2,76,-1
 582 248 l 1,77,78
 575 249 575 249 569 250 c 0,79,80
 562 248 562 248 558 248.5 c 128,-1,81
 554 249 554 249 548.5 247 c 128,-1,82
 543 245 543 245 537 243 c 0,83,84
 511 233 511 233 500.5 204.5 c 128,-1,85
 490 176 490 176 472 160.5 c 128,-1,86
 454 145 454 145 433.5 140.5 c 128,-1,87
 413 136 413 136 394 132.5 c 128,-1,88
 375 129 375 129 360.5 125.5 c 128,-1,89
 346 122 346 122 343.5 111 c 128,-1,90
 341 100 341 100 338 83.5 c 128,-1,91
 335 67 335 67 347 53 c 128,-1,92
 359 39 359 39 402 39 c 0,93,94
 409 39 409 39 418 32.5 c 128,-1,95
 427 26 427 26 427 11 c 2,96,-1
 427 1 l 1,97,-1
 182 1 l 1,98,-1
 184 14 l 1,99,100
 186 39 186 39 215 39 c 0,101,102
 269 41 269 41 270 77 c 0,103,104
 270 90 270 90 265 112 c 0,105,106
 262 121 262 121 248 125 c 128,-1,107
 234 129 234 129 214.5 132.5 c 128,-1,108
 195 136 195 136 175 140.5 c 128,-1,109
 155 145 155 145 136 160.5 c 128,-1,110
 117 176 117 176 112 193 c 128,-1,111
 107 210 107 210 103 217 c 128,-1,112
 99 224 99 224 94 228 c 0,113,114
 90 232 90 232 84 236 c 0,115,116
 64 250 64 250 40 248 c 1,0,-1
EndSplineSet
Validated: 1
EndChar

StartChar: library
Encoding: 57364 57364 51
Width: 688
VWidth: 828
Flags: W
HStem: 17 62<60.3809 285.038 411.447 628> 107 59<402.251 463.189> 124 62<213.512 284.78 574.063 603.472> 149 60<74.2515 141.875> 229 61<213.512 284.78 573.007 605.102> 253 60<74.2515 143.787> 316 60<405.22 466.592> 328 60<212.006 281.749> 340 60<538.005 605.749> 352 59<77.2205 143.995> 465 61<60 281.641 413.688 628>
VStem: 0 60<79 465> 312 62<49 437.675> 628 60<83.5586 471>
LayerCount: 2
Fore
SplineSet
574 190 m 1,0,1
 580 196 580 196 592 186 c 128,-1,2
 604 176 604 176 606 164.5 c 128,-1,3
 608 153 608 153 601 141.5 c 128,-1,4
 594 130 594 130 582 129 c 2,5,-1
 426 107 l 1,6,-1
 422 107 l 2,7,8
 396 108 396 108 392 134 c 0,9,10
 390 146 390 146 398 155 c 128,-1,11
 406 164 406 164 416 166 c 2,12,-1
 574 190 l 1,0,1
81 201.5 m 128,-1,14
 90 209 90 209 96 209 c 2,15,-1
 102 209 l 1,16,-1
 264 186 l 2,17,18
 278 184 278 184 285 173.5 c 128,-1,19
 292 163 292 163 290 151.5 c 128,-1,20
 288 140 288 140 279 132 c 128,-1,21
 270 124 270 124 264 124 c 2,22,-1
 256 124 l 1,23,-1
 96 149 l 2,24,25
 82 151 82 151 74 161 c 128,-1,26
 66 171 66 171 69 182.5 c 128,-1,13
 72 194 72 194 81 201.5 c 128,-1,14
576 295 m 1,27,-1
 584 295 l 2,28,29
 590 295 590 295 598 288.5 c 128,-1,30
 606 282 606 282 608 270 c 128,-1,31
 610 258 610 258 603 248 c 128,-1,32
 596 238 596 238 584 235 c 1,33,-1
 424 212 l 1,34,35
 411 206 411 206 400.5 216.5 c 128,-1,36
 390 227 390 227 388 237.5 c 128,-1,37
 386 248 386 248 394 259 c 128,-1,38
 402 270 402 270 414 272 c 2,39,-1
 576 295 l 1,27,-1
81 305 m 128,-1,41
 90 313 90 313 96 313 c 2,42,-1
 102 313 l 1,43,-1
 264 290 l 1,44,45
 278 287 278 287 285 276.5 c 128,-1,46
 292 266 292 266 290 255 c 128,-1,47
 288 244 288 244 279 236.5 c 128,-1,48
 270 229 270 229 264 229 c 2,49,-1
 256 229 l 1,50,-1
 96 253 l 2,51,52
 82 255 82 255 74 265 c 128,-1,53
 66 275 66 275 69 286 c 128,-1,40
 72 297 72 297 81 305 c 128,-1,41
576 400 m 1,54,-1
 584 400 l 2,55,56
 590 400 590 400 598 392.5 c 128,-1,57
 606 385 606 385 610 373 c 128,-1,58
 614 361 614 361 606 351.5 c 128,-1,59
 598 342 598 342 584 340 c 2,60,-1
 430 316 l 1,61,-1
 424 316 l 2,62,63
 400 316 400 316 396 342 c 0,64,65
 394 354 394 354 401 364 c 128,-1,66
 408 374 408 374 420 376 c 2,67,-1
 576 400 l 1,54,-1
83 404 m 128,-1,69
 92 411 92 411 98 411 c 2,70,-1
 106 411 l 1,71,-1
 260 388 l 2,72,73
 274 385 274 385 282 375.5 c 128,-1,74
 290 366 290 366 288 354 c 128,-1,75
 286 342 286 342 277 335 c 128,-1,76
 268 328 268 328 260 328 c 2,77,-1
 252 328 l 1,78,-1
 98 352 l 2,79,80
 84 354 84 354 77 364 c 128,-1,81
 70 374 70 374 72 385.5 c 128,-1,68
 74 397 74 397 83 404 c 128,-1,69
74 79 m 1,82,83
 242 75 242 75 312 49 c 1,84,-1
 312 428 l 1,85,86
 262 465 262 465 86 465 c 2,87,-1
 60 465 l 1,88,-1
 60 79 l 1,89,-1
 74 79 l 1,82,83
628 471 m 1,90,91
 549 469 549 469 476.5 458 c 128,-1,92
 404 447 404 447 374 427 c 1,93,-1
 374 46 l 1,94,95
 448 74 448 74 628 85 c 1,96,-1
 628 471 l 1,90,91
344 482 m 1,97,98
 438 532 438 532 644 532 c 2,99,-1
 656 532 l 2,100,101
 668 532 668 532 678 523 c 0,102,103
 687 513 687 513 688 501 c 1,104,-1
 688 56 l 2,105,106
 688 44 688 44 680 36 c 128,-1,107
 672 28 672 28 663 27 c 128,-1,108
 654 26 654 26 632 24 c 0,109,110
 398 10 398 10 356 -32 c 0,111,112
 350 -34 350 -34 344 -34 c 2,113,-1
 342 -34 l 2,114,115
 328 -34 328 -34 318 -22 c 0,116,117
 278 14 278 14 72 17 c 0,118,119
 39 17 39 17 27.5 19 c 128,-1,120
 16 21 16 21 8 30 c 128,-1,121
 0 39 0 39 0 50 c 2,122,-1
 0 496 l 2,123,124
 0 524 0 524 38 526 c 0,125,126
 58 527 58 527 86 527 c 0,127,128
 278 528 278 528 344 482 c 1,97,98
EndSplineSet
Validated: 1
EndChar

StartChar: rocks
Encoding: 57365 57365 52
Width: 676
VWidth: 828
Flags: W
HStem: 4 99<136.564 535.747>
LayerCount: 2
Fore
SplineSet
508 103 m 2,0,1
 528 103 528 103 536 112.5 c 128,-1,2
 544 122 544 122 544 130 c 2,3,-1
 544 144 l 1,4,-1
 524 229 l 2,5,6
 520 251 520 251 498 251 c 0,7,8
 492 251 492 251 482 239 c 1,9,-1
 464 223 l 2,10,11
 454 213 454 213 447 213.5 c 128,-1,12
 440 214 440 214 436 214 c 0,13,14
 422 218 422 218 416 232 c 2,15,-1
 394 290 l 2,16,17
 388 307 388 307 378 306 c 128,-1,18
 368 305 368 305 360 291 c 1,19,-1
 324 204 l 2,20,21
 318 189 318 189 307 189.5 c 128,-1,22
 296 190 296 190 288 204 c 1,23,-1
 226 337 l 2,24,25
 218 354 218 354 209 352.5 c 128,-1,26
 200 351 200 351 196 336 c 2,27,-1
 138 144 l 2,28,29
 136 139 136 139 136 130 c 128,-1,30
 136 121 136 121 145 111 c 128,-1,31
 154 101 154 101 172 103 c 1,32,-1
 508 103 l 2,0,1
674 45 m 2,33,34
 679 25 679 25 668.5 14.5 c 128,-1,35
 658 4 658 4 640 4 c 2,36,-1
 36 4 l 2,37,38
 18 4 18 4 9 14 c 128,-1,39
 0 24 0 24 0 31.5 c 128,-1,40
 0 39 0 39 2 45 c 2,41,-1
 174 625 l 2,42,43
 178 642 178 642 187 643 c 128,-1,44
 196 644 196 644 204 626 c 2,45,-1
 286 454 l 1,46,47
 292 439 292 439 303 437.5 c 128,-1,48
 314 436 314 436 320 454 c 1,49,-1
 366 554 l 1,50,51
 372 571 372 571 382 571 c 128,-1,52
 392 571 392 571 398 554 c 2,53,-1
 456 412 l 2,54,55
 464 392 464 392 479 392 c 128,-1,56
 494 392 494 392 504 401 c 2,57,-1
 540 436 l 2,58,59
 550 446 550 446 556 447 c 1,60,-1
 564 447 l 1,61,62
 576 443 576 443 580 427 c 2,63,-1
 674 45 l 2,33,34
EndSplineSet
Validated: 1
EndChar

StartChar: cemetery
Encoding: 57366 57366 53
Width: 510
VWidth: 828
Flags: W
HStem: 4 168<174.002 339.998> 4 133<65.157 97.7891 419.641 451.67> 4 74<8.25049 50.718 459.22 502.78> 215 62<174.001 339.998> 318 62<158.704 354.843> 422 71<217.62 284.38> 598 45<219.956 281.993>
VStem: 292 146<498.756 582.53>
LayerCount: 2
Fore
SplineSet
364 380 m 2,0,1
 372 380 372 380 379 386 c 128,-1,2
 386 392 386 392 386 401 c 128,-1,3
 386 410 386 410 379 416 c 128,-1,4
 372 422 372 422 364 422 c 2,5,-1
 150 422 l 2,6,7
 142 422 142 422 136 416 c 128,-1,8
 130 410 130 410 130 401 c 128,-1,9
 130 392 130 392 136 386 c 128,-1,10
 142 380 142 380 150 380 c 2,11,-1
 364 380 l 2,0,1
360 298 m 0,12,13
 360 318 360 318 340 318 c 2,14,-1
 174 318 l 2,15,16
 165 318 165 318 158.5 312 c 128,-1,17
 152 306 152 306 152 297.5 c 128,-1,18
 152 289 152 289 159 283 c 128,-1,19
 166 277 166 277 174 277 c 2,20,-1
 340 277 l 2,21,22
 348 277 348 277 354 283.5 c 128,-1,23
 360 290 360 290 360 298 c 0,12,13
318 172 m 2,24,25
 327 172 327 172 333.5 178.5 c 128,-1,26
 340 185 340 185 340 193.5 c 128,-1,27
 340 202 340 202 333 208.5 c 128,-1,28
 326 215 326 215 318 215 c 2,29,-1
 194 215 l 2,30,31
 186 215 186 215 180 208.5 c 128,-1,32
 174 202 174 202 174 193.5 c 128,-1,33
 174 185 174 185 181 178.5 c 128,-1,34
 188 172 188 172 194 172 c 2,35,-1
 318 172 l 2,24,25
251 598 m 128,-1,37
 234 598 234 598 222 583 c 128,-1,38
 210 568 210 568 210 546 c 128,-1,39
 210 524 210 524 222 508.5 c 128,-1,40
 234 493 234 493 251 493 c 128,-1,41
 268 493 268 493 280 508.5 c 128,-1,42
 292 524 292 524 292 546 c 128,-1,43
 292 568 292 568 280 583 c 128,-1,36
 268 598 268 598 251 598 c 128,-1,37
452 106 m 2,44,45
 452 80 452 80 478 78 c 1,46,-1
 484 78 l 2,47,48
 496 78 496 78 503 70 c 128,-1,49
 510 62 510 62 510 51 c 2,50,-1
 510 32 l 2,51,52
 510 20 510 20 502 12 c 128,-1,53
 494 4 494 4 484 4 c 2,54,-1
 26 4 l 2,55,56
 14 4 14 4 7 13 c 128,-1,57
 0 22 0 22 0 32 c 2,58,-1
 0 51 l 2,59,60
 0 63 0 63 8 71 c 128,-1,61
 16 79 16 79 26 78 c 1,62,-1
 30 78 l 2,63,64
 42 78 42 78 51 86 c 128,-1,65
 60 94 60 94 60 106 c 2,66,-1
 60 110 l 2,67,68
 60 122 60 122 65 129.5 c 128,-1,69
 70 137 70 137 78 137 c 128,-1,70
 86 137 86 137 92 145 c 128,-1,71
 98 153 98 153 98 163 c 2,72,-1
 76 568 l 2,73,74
 75 580 75 580 82.5 588 c 128,-1,75
 90 596 90 596 102 596 c 2,76,-1
 104 596 l 2,77,78
 134 596 134 596 150.5 609.5 c 128,-1,79
 167 623 167 623 195.5 633 c 128,-1,80
 224 643 224 643 251 643 c 0,81,82
 301 643 301 643 338 618 c 1,83,-1
 350 611 l 1,84,85
 372 595 372 595 400 596 c 1,86,-1
 412 596 l 2,87,88
 422 596 422 596 430 586.5 c 128,-1,89
 438 577 438 577 438 568 c 2,90,-1
 416 163 l 2,91,92
 415 151 415 151 419.5 144 c 128,-1,93
 424 137 424 137 432 137 c 128,-1,94
 440 137 440 137 446 128.5 c 128,-1,95
 452 120 452 120 452 110 c 2,96,-1
 452 106 l 2,44,45
EndSplineSet
Validated: 1
EndChar

StartChar: pub
Encoding: 57367 57367 54
Width: 570
VWidth: 828
Flags: W
HStem: 4 82<94.635 147.367 202.635 255.367 308.635 363.288> 86 72<412 497.472> 351 73<412 491.812> 423 49<94.8755 147.436 202.635 255.436 309.486 363.365> 541 57<59.5421 130.122> 547 57<328.375 383.5> 576 56<139.078 207.561> 587 57<219.97 290.5>
VStem: 0 36<410.802 443> 16 42<444.344 538.573> 44 50<86.6328 377.521> 148 54<86.6724 422.328> 256 52<86.6724 422.251> 364 48<158 351> 376 36<472 513.595> 386 44<474.438 545.316> 498 72<158.363 346.359>
LayerCount: 2
Fore
SplineSet
498 174 m 2,0,-1
 498 336 l 2,1,2
 498 342 498 342 492 346.5 c 128,-1,3
 486 351 486 351 476 351 c 2,4,-1
 412 351 l 1,5,-1
 412 158 l 1,6,-1
 476 158 l 2,7,8
 485 158 485 158 491.5 163 c 128,-1,9
 498 168 498 168 498 174 c 2,0,-1
376 482 m 1,10,11
 377 488 377 488 381.5 494.5 c 128,-1,12
 386 501 386 501 386 514 c 128,-1,13
 386 527 386 527 376 537 c 128,-1,14
 366 547 366 547 356 547 c 128,-1,15
 346 547 346 547 344 545 c 1,16,-1
 318 536 l 1,17,-1
 314 536 l 2,18,19
 302 536 302 536 300 544 c 1,20,-1
 290 568 l 1,21,22
 280 588 280 588 258 587 c 0,23,24
 246 587 246 587 238 578 c 1,25,-1
 220 565 l 2,26,27
 216 562 216 562 212 562 c 128,-1,28
 208 562 208 562 204 563 c 2,29,-1
 186 572 l 2,30,31
 179 576 179 576 165.5 575.5 c 128,-1,32
 152 575 152 575 144 560 c 1,33,-1
 132 544 l 1,34,35
 127 536 127 536 116 536 c 1,36,-1
 98 540 l 2,37,38
 94 541 94 541 84.5 541 c 128,-1,39
 75 541 75 541 66.5 530.5 c 128,-1,40
 58 520 58 520 58 512 c 2,41,-1
 58 501 l 2,42,43
 58 471 58 471 36 443 c 1,44,45
 34 438 34 438 42 424 c 128,-1,46
 50 410 50 410 57 410 c 128,-1,47
 64 410 64 410 66 412 c 0,48,49
 68 415 68 415 75 428.5 c 128,-1,50
 82 442 82 442 94 452 c 0,51,52
 122 472 122 472 152 472 c 0,53,54
 264 472 264 472 376 472 c 1,55,-1
 376 482 l 1,10,11
364 115 m 2,56,-1
 364 395 l 2,57,58
 364 406 364 406 355 414.5 c 128,-1,59
 346 423 346 423 336 423 c 128,-1,60
 326 423 326 423 318 414.5 c 128,-1,61
 310 406 310 406 308 395 c 1,62,-1
 308 115 l 2,63,64
 308 102 308 102 317 94 c 128,-1,65
 326 86 326 86 336 86 c 128,-1,66
 346 86 346 86 355 94.5 c 128,-1,67
 364 103 364 103 364 115 c 2,56,-1
256 115 m 2,68,-1
 256 395 l 2,69,70
 256 406 256 406 248 414.5 c 128,-1,71
 240 423 240 423 230 423 c 128,-1,72
 220 423 220 423 211 414.5 c 128,-1,73
 202 406 202 406 202 395 c 2,74,-1
 202 115 l 2,75,76
 202 102 202 102 211 94 c 128,-1,77
 220 86 220 86 230 86 c 128,-1,78
 240 86 240 86 248 94.5 c 128,-1,79
 256 103 256 103 256 115 c 2,68,-1
148 115 m 2,80,-1
 148 395 l 2,81,82
 148 406 148 406 140 414.5 c 128,-1,83
 132 423 132 423 122 423 c 128,-1,84
 112 423 112 423 103 414.5 c 128,-1,85
 94 406 94 406 94 395 c 2,86,-1
 94 115 l 2,87,88
 94 102 94 102 103 94 c 128,-1,89
 112 86 112 86 122 86 c 128,-1,90
 132 86 132 86 140 94.5 c 128,-1,91
 148 103 148 103 148 115 c 2,80,-1
16 505 m 1,92,-1
 14 527 l 1,93,94
 13 554 13 554 36.5 576 c 128,-1,95
 60 598 60 598 92 598 c 0,96,97
 102 598 102 598 108 596 c 1,98,99
 130 633 130 633 172 632 c 0,100,101
 194 632 194 632 208 623 c 1,102,103
 230 644 230 644 256 644 c 0,104,105
 308 644 308 644 328 601 c 1,106,107
 340 605 340 605 354 604 c 0,108,109
 386 604 386 604 408 581.5 c 128,-1,110
 430 559 430 559 430 529 c 128,-1,111
 430 499 430 499 412 476 c 1,112,-1
 412 424 l 1,113,-1
 476 424 l 2,114,115
 514 424 514 424 542 398 c 128,-1,116
 570 372 570 372 570 336 c 2,117,-1
 570 174 l 2,118,119
 570 137 570 137 543 111.5 c 128,-1,120
 516 86 516 86 476 86 c 2,121,-1
 412 86 l 1,122,-1
 412 4 l 1,123,-1
 44 4 l 1,124,-1
 44 367 l 1,125,126
 22 372 22 372 11 390 c 128,-1,127
 0 408 0 408 0 418.5 c 128,-1,128
 0 429 0 429 2 435 c 1,129,-1
 4 448 l 1,130,131
 16 469 16 469 16 505 c 1,92,-1
EndSplineSet
Validated: 1
EndChar

StartChar: buddhism
Encoding: 57368 57368 55
Width: 443
VWidth: 828
Flags: W
VStem: 151 140<453.218 597.562> 161 119<139.156 265.085>
LayerCount: 2
Fore
SplineSet
367 107 m 1,0,1
 362 129 362 129 351 165 c 128,-1,2
 340 201 340 201 331.5 231 c 128,-1,3
 323 261 323 261 314 289 c 1,4,5
 280 229 280 229 280 190 c 0,6,7
 279 179 279 179 283 169 c 0,8,9
 294 128 294 128 367 107 c 1,0,1
76 109 m 1,10,11
 161 128 161 128 161 188 c 0,12,13
 161 228 161 228 126 289 c 1,14,15
 115 243 115 243 99 190 c 128,-1,16
 83 137 83 137 76 109 c 1,10,11
190 436 m 1,17,-1
 168 452 l 1,18,19
 151 491 151 491 151 525 c 0,20,21
 151 595 151 595 222 647 c 1,22,23
 291 594 291 594 291 525 c 0,24,25
 291 489 291 489 273 450 c 0,26,27
 270 449 270 449 262 446 c 0,28,29
 242 439 242 439 260 417 c 0,30,31
 263 414 263 414 277 410 c 0,32,33
 324 401 324 401 344.5 369.5 c 128,-1,34
 365 338 365 338 370 297 c 128,-1,35
 375 256 375 256 382 223.5 c 128,-1,36
 389 191 389 191 401 149 c 128,-1,37
 413 107 413 107 416 94 c 128,-1,38
 419 81 419 81 421 78 c 0,39,40
 457 45 457 45 434 15 c 0,41,42
 424 5 424 5 401 3 c 128,-1,43
 378 1 378 1 373 0 c 128,-1,44
 368 -1 368 -1 361 1 c 0,45,46
 221 47 221 47 78 1 c 0,47,48
 68 -2 68 -2 58 -2 c 2,49,-1
 39 -2 l 1,50,51
 14 0 14 0 4.5 18.5 c 128,-1,52
 -5 37 -5 37 7.5 70.5 c 128,-1,53
 20 104 20 104 69 253 c 0,54,55
 73 268 73 268 73 291 c 0,56,57
 73 390 73 390 165 411 c 0,58,59
 171 412 171 412 179 422.5 c 128,-1,60
 187 433 187 433 190 436 c 1,17,-1
EndSplineSet
Validated: 1
EndChar

StartChar: triangle
Encoding: 57369 57369 56
Width: 584
VWidth: 828
Flags: W
HStem: 2 117<134 450>
LayerCount: 2
Fore
SplineSet
134 119 m 1,0,-1
 450 119 l 1,1,-1
 292 425 l 1,2,-1
 134 119 l 1,0,-1
576 92 m 2,3,4
 584 76 584 76 584 62 c 128,-1,5
 584 48 584 48 578 32 c 0,6,7
 566 1 566 1 538 2 c 1,8,-1
 46 2 l 2,9,10
 18 2 18 2 6 32 c 0,11,12
 -4 68 -4 68 8 92 c 2,13,-1
 252 563 l 2,14,15
 266 590 266 590 292 590 c 128,-1,16
 318 590 318 590 332 563 c 2,17,-1
 576 92 l 2,3,4
EndSplineSet
Validated: 1
EndChar

StartChar: police
Encoding: 57370 57370 57
Width: 598
VWidth: 828
Flags: W
HStem: 309 112<270 353.042> 487 108<189 298.311 301.655 404.518>
VStem: 40 149<111.055 335.26> 74 115<294.006 472.225> 270 98<321.305 407.59> 450 74<294.399 443.287>
LayerCount: 2
Fore
SplineSet
368 365 m 0,0,1
 366 309 366 309 294 309 c 2,2,-1
 270 309 l 1,3,-1
 270 421 l 1,4,-1
 306 421 l 2,5,6
 339 421 339 421 353.5 408 c 128,-1,7
 368 395 368 395 368 365 c 0,0,1
450 368 m 0,8,9
 450 488 450 488 308 487 c 1,10,-1
 189 487 l 1,11,-1
 189 108 l 1,12,-1
 270 108 l 1,13,-1
 270 243 l 1,14,-1
 302 243 l 2,15,16
 372 243 372 243 411 275.5 c 128,-1,17
 450 308 450 308 450 368 c 0,8,9
72 617 m 1,18,19
 123 595 123 595 184.5 594.5 c 128,-1,20
 246 594 246 594 300 616 c 1,21,22
 394 580 394 580 485 604 c 0,23,24
 520 614 520 614 527 618 c 128,-1,25
 534 622 534 622 540 624 c 1,26,-1
 598 517 l 1,27,28
 593 513 593 513 579.5 503 c 128,-1,29
 566 493 566 493 560 488 c 0,30,31
 536 470 536 470 533 451 c 128,-1,32
 530 432 530 432 527 420.5 c 128,-1,33
 524 409 524 409 524 390.5 c 128,-1,34
 524 372 524 372 542 306.5 c 128,-1,35
 560 241 560 241 560 196 c 2,36,-1
 560 191 l 1,37,38
 556 107 556 107 493 65 c 0,39,40
 455 39 455 39 375 4 c 0,41,42
 311 -24 311 -24 300 -77 c 1,43,44
 295 -49 295 -49 272.5 -28.5 c 128,-1,45
 250 -8 250 -8 222 4 c 128,-1,46
 194 16 194 16 162 31.5 c 128,-1,47
 130 47 130 47 104 65 c 128,-1,48
 78 83 78 83 60 115 c 128,-1,49
 42 147 42 147 40 191 c 1,50,-1
 40 198 l 2,51,52
 40 241 40 241 54 306 c 1,53,54
 72 364 72 364 74 400 c 0,55,56
 74 450 74 450 55.5 469 c 128,-1,57
 37 488 37 488 20.5 499.5 c 128,-1,58
 4 511 4 511 0 517 c 1,59,-1
 58 624 l 1,60,-1
 72 617 l 1,18,19
EndSplineSet
Validated: 1
EndChar

StartChar: ice_ring
Encoding: 57371 57371 58
Width: 684
VWidth: 828
Flags: W
HStem: 4 97<117 179 455 499.358> 4 46<14.4375 116.772 503.534 646.391> 4 34<226.333 404.163> 113 141<503.617 634.784> 187 77<247 358.5> 428 45<266.943 298.341> 542 45<236.121 314>
VStem: 76 189<362.75 426.086> 301 24<482.28 533.787> 452 42<89 101> 648 36<54.5625 111.439>
LayerCount: 2
Fore
SplineSet
234 508.5 m 128,-1,1
 234 495 234 495 245 484 c 128,-1,2
 256 473 256 473 268.5 473 c 128,-1,3
 281 473 281 473 291 484 c 128,-1,4
 301 495 301 495 301 508.5 c 128,-1,5
 301 522 301 522 291 532 c 128,-1,6
 281 542 281 542 268.5 542 c 128,-1,7
 256 542 256 542 245 532 c 128,-1,0
 234 522 234 522 234 508.5 c 128,-1,1
298.5 428 m 128,-1,9
 285 428 285 428 275 418 c 128,-1,10
 265 408 265 408 265 394.5 c 128,-1,11
 265 381 265 381 275 370.5 c 128,-1,12
 285 360 285 360 298.5 360 c 128,-1,13
 312 360 312 360 322 370.5 c 128,-1,14
 332 381 332 381 332 394.5 c 128,-1,15
 332 408 332 408 322 418 c 128,-1,8
 312 428 312 428 298.5 428 c 128,-1,9
324 297.5 m 128,-1,17
 324 284 324 284 334 274 c 128,-1,18
 344 264 344 264 358.5 264 c 128,-1,19
 373 264 373 264 382 274 c 128,-1,20
 391 284 391 284 391 297.5 c 128,-1,21
 391 311 391 311 382 320.5 c 128,-1,22
 373 330 373 330 358.5 330 c 128,-1,23
 344 330 344 330 334 320.5 c 128,-1,16
 324 311 324 311 324 297.5 c 128,-1,17
60 115 m 1,24,25
 52 127 52 127 52.5 181.5 c 128,-1,26
 53 236 53 236 56.5 276.5 c 128,-1,27
 60 317 60 317 66 348 c 128,-1,28
 72 379 72 379 75 398.5 c 128,-1,29
 78 418 78 418 76 446 c 1,30,-1
 76 466 l 2,31,32
 76 516 76 516 166 554 c 0,33,34
 243 587 243 587 301 587 c 0,35,36
 327 586 327 586 325 578 c 0,37,38
 329 420 329 420 416 336 c 0,39,40
 472 280 472 280 551 258 c 0,41,42
 567 254 567 254 578 254 c 0,43,44
 639 250 639 250 661 195 c 0,45,46
 675 159 675 159 662 134 c 0,47,48
 656 124 656 124 647 122 c 0,49,50
 568 113 568 113 510 113 c 0,51,52
 407 113 407 113 360 140 c 0,53,54
 340 153 340 153 330 162 c 0,55,56
 303 188 303 188 247 187 c 0,57,58
 239 186 239 186 234 169.5 c 128,-1,59
 229 153 229 153 229 144 c 2,60,-1
 229 113 l 1,61,-1
 60 115 l 1,24,25
578 43 m 0,62,63
 675 45 675 45 638 112 c 1,64,-1
 668 116 l 1,65,66
 684 98 684 98 684 79 c 0,67,68
 685 25 685 25 638 12 c 0,69,70
 607 4 607 4 540 4 c 2,71,-1
 0 4 l 1,72,73
 7 20 7 20 21 35.5 c 128,-1,74
 35 51 35 51 49 50 c 1,75,-1
 65 50 l 2,76,77
 110 50 110 50 115 56 c 128,-1,78
 120 62 120 62 114 73.5 c 128,-1,79
 108 85 108 85 99 91 c 1,80,-1
 89 100 l 1,81,-1
 179 101 l 1,82,83
 179 77 179 77 218.5 58 c 128,-1,84
 258 39 258 39 346 38 c 1,85,-1
 351 38 l 1,86,-1
 440 50 l 1,87,88
 452 54 452 54 455 67 c 128,-1,89
 458 80 458 80 454 89 c 1,90,-1
 452 101 l 1,91,-1
 494 101 l 1,92,93
 493 88 493 88 501 76 c 0,94,95
 517 48 517 48 538.5 45.5 c 128,-1,96
 560 43 560 43 578 43 c 0,62,63
EndSplineSet
Validated: 1
EndChar

StartChar: marina
Encoding: 57372 57372 59
Width: 602
VWidth: 828
Flags: W
HStem: 382 57<436.125 453.875> 397 27<156.814 267.125 326.813 435.187> 604 45<260.156 339.563>
VStem: 208 44<515.724 595.888> 276 42<174.303 389.637> 348 44<516.732 595.079>
LayerCount: 2
Fore
SplineSet
299 508 m 128,-1,1
 318 508 318 508 333 522 c 128,-1,2
 348 536 348 536 348 555.5 c 128,-1,3
 348 575 348 575 333 589.5 c 128,-1,4
 318 604 318 604 299 604 c 128,-1,5
 280 604 280 604 266 589.5 c 128,-1,6
 252 575 252 575 252 555.5 c 128,-1,7
 252 536 252 536 266 522 c 128,-1,0
 280 508 280 508 299 508 c 128,-1,1
318 352 m 1,8,9
 320 226 320 226 352 126 c 1,10,11
 366 126 l 2,12,13
 447 126 447 126 502.5 152.5 c 128,-1,14
 558 179 558 179 562 220 c 1,15,-1
 528 217 l 1,16,-1
 602 278 l 1,17,18
 602 228 602 228 586 185 c 0,19,20
 558 105 558 105 506 81 c 0,21,22
 484 71 484 71 446 55.5 c 128,-1,23
 408 40 408 40 373 18 c 128,-1,24
 338 -4 338 -4 300 -57 c 1,25,26
 267 -6 267 -6 227.5 18 c 128,-1,27
 188 42 188 42 151 56.5 c 128,-1,28
 114 71 114 71 92 81.5 c 128,-1,29
 70 92 70 92 51 117 c 128,-1,30
 32 142 32 142 16 186.5 c 128,-1,31
 0 231 0 231 0 278 c 1,32,-1
 70 217 l 1,33,-1
 40 220 l 1,34,35
 44 180 44 180 97 153 c 128,-1,36
 150 126 150 126 230 126 c 0,37,38
 240 126 240 126 250 126 c 1,39,40
 278 207 278 207 276 320 c 0,41,42
 276 353 276 353 274 385 c 1,43,44
 247 397 247 397 214.5 397 c 128,-1,45
 182 397 182 397 156 394 c 1,46,47
 152 381 152 381 147 381.5 c 128,-1,48
 142 382 142 382 138 390 c 128,-1,49
 134 398 134 398 134 410.5 c 128,-1,50
 134 423 134 423 138 431 c 128,-1,51
 142 439 142 439 148 439 c 0,52,53
 152 440 152 440 156 428 c 1,54,55
 182 424 182 424 211 424 c 128,-1,56
 240 424 240 424 268 432 c 1,57,58
 264 462 264 462 252 476 c 1,59,60
 231 489 231 489 219.5 510.5 c 128,-1,61
 208 532 208 532 208 562.5 c 128,-1,62
 208 593 208 593 234 621 c 128,-1,63
 260 649 260 649 300 649 c 128,-1,64
 340 649 340 649 366 621 c 128,-1,65
 392 593 392 593 392 562 c 0,66,67
 392 499 392 499 346 473 c 1,68,69
 334 461 334 461 326 433 c 1,70,71
 361 422 361 422 436 428 c 1,72,73
 440 440 440 440 444 439 c 0,74,75
 448 439 448 439 452 431 c 0,76,77
 456 422 456 422 456 410 c 0,78,79
 456 382 456 382 444 382 c 0,80,81
 440 383 440 383 436 394 c 1,82,83
 363 401 363 401 318 383 c 1,84,-1
 318 352 l 1,8,9
EndSplineSet
Validated: 1
EndChar

StartChar: playground
Encoding: 57373 57373 60
Width: 644
VWidth: 828
Flags: W
HStem: 4 74<523.125 637.054> 41 45<52.2512 163.749> 121 43<52.2512 171.998> 202 43<44.002 171.998> 213 109<238 297.188> 270 55<70.4703 143.014> 432 51<70.4703 143.014>
VStem: 1 54<340.986 415.499> 1 43<9.15698 35.3275 90.157 115.843 164.586 201.414> 159 52<340.986 415.499> 172 39<9.15698 40.0211 90.6415 120.11 164.99 200.932>
LayerCount: 2
Fore
SplineSet
206 537 m 2,0,1
 215 525 215 525 211.5 517.5 c 128,-1,2
 208 510 208 510 195 510 c 2,3,-1
 19 510 l 2,4,5
 5 510 5 510 1 518.5 c 128,-1,6
 -3 527 -3 527 6 537 c 1,7,-1
 85 641 l 2,8,9
 94 653 94 653 106.5 652.5 c 128,-1,10
 119 652 119 652 128 641 c 2,11,-1
 206 537 l 2,0,1
643 4 m 1,12,13
 634 4 l 2,14,15
 518 4 518 4 455.5 38.5 c 128,-1,16
 393 73 393 73 357 122 c 0,17,18
 341 144 341 144 325 165 c 0,19,20
 289 208 289 208 238 213 c 1,21,-1
 238 322 l 1,22,23
 314 320 314 320 366 271 c 0,24,25
 389 249 389 249 427 199 c 128,-1,26
 465 149 465 149 494 122 c 0,27,28
 541 76 541 76 611 78 c 1,29,-1
 616 78 l 2,30,31
 629 78 629 78 636 59 c 0,32,33
 648 25 648 25 643 4 c 1,12,13
106.5 325 m 128,-1,35
 128 325 128 325 143.5 340.5 c 128,-1,36
 159 356 159 356 159 378 c 128,-1,37
 159 400 159 400 143.5 416 c 128,-1,38
 128 432 128 432 106.5 432 c 128,-1,39
 85 432 85 432 70 416 c 128,-1,40
 55 400 55 400 55 378 c 128,-1,41
 55 356 55 356 70 340.5 c 128,-1,34
 85 325 85 325 106.5 325 c 128,-1,35
182 483 m 2,42,43
 195 483 195 483 203 473.5 c 128,-1,44
 211 464 211 464 211 452 c 2,45,-1
 211 302 l 2,46,47
 211 289 211 289 203 279.5 c 128,-1,48
 195 270 195 270 182 270 c 2,49,-1
 29 270 l 2,50,51
 16 270 16 270 8.5 280 c 128,-1,52
 1 290 1 290 1 302 c 2,53,-1
 1 452 l 2,54,55
 1 465 1 465 10 474 c 128,-1,56
 19 483 19 483 29 483 c 2,57,-1
 182 483 l 2,42,43
143 164 m 2,58,59
 156 164 156 164 164 170 c 128,-1,60
 172 176 172 176 172 183 c 128,-1,61
 172 190 172 190 163.5 196 c 128,-1,62
 155 202 155 202 143 202 c 2,63,-1
 73 202 l 2,64,65
 60 202 60 202 52 196 c 128,-1,66
 44 190 44 190 44 183 c 128,-1,67
 44 176 44 176 52 170 c 128,-1,68
 60 164 60 164 73 164 c 2,69,-1
 143 164 l 2,58,59
44 103 m 0,70,71
 44 86 44 86 73 86 c 2,72,-1
 143 86 l 2,73,74
 172 86 172 86 172 103 c 0,75,76
 172 111 172 111 163.5 116 c 128,-1,77
 155 121 155 121 143 121 c 2,78,-1
 73 121 l 2,79,80
 60 121 60 121 52 116 c 128,-1,81
 44 111 44 111 44 103 c 0,70,71
182 245 m 2,82,83
 213 245 213 245 211 238 c 1,84,-1
 211 22 l 2,85,86
 211 14 211 14 205.5 9 c 128,-1,87
 200 4 200 4 192 4 c 128,-1,88
 184 4 184 4 178 9 c 128,-1,89
 172 14 172 14 172 22 c 128,-1,90
 172 30 172 30 163.5 35.5 c 128,-1,91
 155 41 155 41 143 41 c 2,92,-1
 73 41 l 2,93,94
 60 41 60 41 52 35.5 c 128,-1,95
 44 30 44 30 44 22 c 128,-1,96
 44 14 44 14 36.5 9 c 128,-1,97
 29 4 29 4 21 4 c 128,-1,98
 13 4 13 4 7 9 c 128,-1,99
 1 14 1 14 1 22 c 2,100,-1
 1 244 l 2,101,102
 1 245 1 245 29 245 c 2,103,-1
 182 245 l 2,82,83
EndSplineSet
Validated: 1
EndChar

StartChar: ruins
Encoding: 57374 57374 61
Width: 686
VWidth: 828
Flags: W
HStem: 2 93<160.282 215.749> 2 73<610.987 676.718> 2 33<538.276 565.166> 236 66<164.19 211.81> 440 90<164.16 205.126>
VStem: 0 52<534.002 600.42> 0 44<537.783 600.569> 45 106<104.282 225.124 310.767 431.063> 104 54<533.227 594.296> 210 55<531.11 594.296> 224 99<104.798 153.268 353.809 431.124> 423 54<284.127 353.61>
LayerCount: 2
Fore
SplineSet
546 40 m 0,0,1
 549 35 549 35 554 35 c 128,-1,2
 559 35 559 35 564.5 49.5 c 128,-1,3
 570 64 570 64 570 78 c 128,-1,4
 570 92 570 92 562 104.5 c 128,-1,5
 554 117 554 117 542 118.5 c 128,-1,6
 530 120 530 120 522 111 c 1,7,-1
 515 105 l 2,8,9
 505 97 505 97 506 86.5 c 128,-1,10
 507 76 507 76 515 70 c 0,11,12
 537 57 537 57 546 40 c 0,0,1
224 332 m 2,13,-1
 224 373 l 1,14,15
 223 404 223 404 213 432 c 0,16,17
 208 441 208 441 188.5 440.5 c 128,-1,18
 169 440 169 440 164 432 c 0,19,20
 151 402 151 402 151 373 c 2,21,-1
 151 332 l 2,22,23
 151 319 151 319 160 310.5 c 128,-1,24
 169 302 169 302 183 302 c 2,25,-1
 195 302 l 2,26,27
 208 302 208 302 216 310.5 c 128,-1,28
 224 319 224 319 224 332 c 2,13,-1
224 127 m 2,29,-1
 224 167 l 1,30,31
 223 203 223 203 212 229 c 0,32,33
 206 236 206 236 188 236 c 2,34,-1
 187 236 l 2,35,36
 170 236 170 236 164 226 c 0,37,38
 151 198 151 198 151 167 c 2,39,-1
 151 127 l 2,40,41
 151 113 151 113 160 104 c 128,-1,42
 169 95 169 95 183 95 c 2,43,-1
 195 95 l 2,44,45
 208 95 208 95 216 104.5 c 128,-1,46
 224 114 224 114 224 127 c 2,29,-1
418 301.5 m 128,-1,48
 423 318 423 318 423 335.5 c 128,-1,49
 423 353 423 353 434 354 c 1,50,-1
 452 354 l 2,51,52
 461 354 461 354 469 336.5 c 128,-1,53
 477 319 477 319 477 308.5 c 128,-1,54
 477 298 477 298 486 290 c 128,-1,55
 495 282 495 282 502 282 c 0,56,57
 514 282 514 282 512 272 c 2,58,-1
 507 220 l 2,59,60
 506 207 506 207 515 201 c 128,-1,61
 524 195 524 195 534 200 c 1,62,-1
 577 215 l 2,63,64
 590 219 590 219 600.5 213 c 128,-1,65
 611 207 611 207 611 194 c 128,-1,66
 611 181 611 181 598 141 c 1,67,68
 600 125 600 125 609.5 100.5 c 128,-1,69
 619 76 619 76 629 75 c 0,70,71
 638 75 638 75 648 80 c 0,72,73
 677 97 677 97 680 84 c 1,74,-1
 680 79 l 1,75,-1
 686 50 l 1,76,-1
 686 26 l 2,77,78
 686 15 686 15 677 8.5 c 128,-1,79
 668 2 668 2 655 2 c 2,80,-1
 477 2 l 1,81,-1
 477 13 l 2,82,83
 477 107 477 107 454 131 c 128,-1,84
 431 155 431 155 399.5 162.5 c 128,-1,85
 368 170 368 170 344 154 c 1,86,87
 322 131 322 131 321 53 c 0,88,89
 321 30 321 30 323 2 c 1,90,-1
 75 2 l 2,91,92
 44 2 44 2 45 6 c 1,93,-1
 45 376 l 2,94,95
 45 389 45 389 39 405 c 0,96,97
 35 421 35 421 26 431 c 2,98,-1
 19 440 l 1,99,100
 1 470 1 470 0 497 c 1,101,-1
 0 570 l 2,102,103
 0 583 0 583 8 592 c 128,-1,104
 16 601 16 601 26 601 c 128,-1,105
 36 601 36 601 44 584.5 c 128,-1,106
 52 568 52 568 52 556.5 c 128,-1,107
 52 545 52 545 65.5 538 c 128,-1,108
 79 531 79 531 85.5 532 c 128,-1,109
 92 533 92 533 98 550.5 c 128,-1,110
 104 568 104 568 104 578 c 128,-1,111
 104 588 104 588 112 594.5 c 128,-1,112
 120 601 120 601 131 601 c 128,-1,113
 142 601 142 601 150 584 c 128,-1,114
 158 567 158 567 158 556 c 128,-1,115
 158 545 158 545 171.5 537.5 c 128,-1,116
 185 530 185 530 191.5 530 c 128,-1,117
 198 530 198 530 204 548.5 c 128,-1,118
 210 567 210 567 210 577.5 c 128,-1,119
 210 588 210 588 218 594.5 c 128,-1,120
 226 601 226 601 236.5 601 c 128,-1,121
 247 601 247 601 256 584.5 c 128,-1,122
 265 568 265 568 265 556.5 c 128,-1,123
 265 545 265 545 268 539.5 c 128,-1,124
 271 534 271 534 272.5 533 c 128,-1,125
 274 532 274 532 274 525 c 128,-1,126
 274 518 274 518 270 505.5 c 128,-1,127
 266 493 266 493 270.5 482 c 128,-1,128
 275 471 275 471 285 467 c 128,-1,129
 295 463 295 463 304.5 454 c 128,-1,130
 314 445 314 445 321.5 429.5 c 128,-1,131
 329 414 329 414 326 410.5 c 128,-1,132
 323 407 323 407 323 380.5 c 128,-1,133
 323 354 323 354 335 354 c 128,-1,134
 347 354 347 354 358 353 c 0,135,136
 362 353 362 353 366.5 336 c 128,-1,137
 371 319 371 319 371 308.5 c 128,-1,138
 371 298 371 298 383.5 290.5 c 128,-1,139
 396 283 396 283 404.5 284 c 128,-1,47
 413 285 413 285 418 301.5 c 128,-1,48
EndSplineSet
Validated: 1
EndChar

StartChar: internet
Encoding: 57375 57375 62
Width: 632
VWidth: 828
Flags: W
HStem: -14 77<195.721 452.326> 141 75<251.938 352.934 469.187 524.122> 418 76<272.052 381.561> 572 76<229.485 440.629>
VStem: 0 87<174.14 421.587> 146 90<231.351 380.51> 379 85<243.371 417.613> 382 90<293.384 417.466> 548 84<240.959 460.111>
LayerCount: 2
Fore
SplineSet
379 326 m 1,0,-1
 382 415 l 1,1,2
 366 418 366 418 338 418 c 0,3,4
 290 418 290 418 263 386.5 c 128,-1,5
 236 355 236 355 236 301 c 0,6,7
 236 215 236 215 302 216 c 0,8,9
 337 216 337 216 356 242 c 128,-1,10
 375 268 375 268 379 326 c 1,0,-1
143.5 122 m 128,-1,12
 200 63 200 63 302 63 c 128,-1,13
 404 63 404 63 496 100 c 1,14,-1
 496 22 l 1,15,16
 413 -15 413 -15 312 -14 c 0,17,18
 165 -14 165 -14 82.5 67 c 128,-1,19
 0 148 0 148 0 292 c 0,20,21
 0 393 0 393 42 474.5 c 128,-1,22
 84 556 84 556 163 602 c 128,-1,23
 242 648 242 648 333.5 648 c 128,-1,24
 425 648 425 648 492 611 c 128,-1,25
 559 574 559 574 596 506.5 c 128,-1,26
 633 439 633 439 632 352 c 0,27,28
 632 293 632 293 614 244 c 128,-1,29
 596 195 596 195 563.5 168 c 128,-1,30
 531 141 531 141 496 141 c 0,31,32
 427 141 427 141 406 194 c 1,33,-1
 400 194 l 1,34,35
 360 141 360 141 293 141 c 128,-1,36
 226 141 226 141 186 185 c 128,-1,37
 146 229 146 229 146 308 c 128,-1,38
 146 387 146 387 197 440.5 c 128,-1,39
 248 494 248 494 334 494 c 0,40,41
 364 494 364 494 405 486.5 c 128,-1,42
 446 479 446 479 472 469 c 1,43,-1
 464 273 l 1,44,45
 464 217 464 217 490.5 216.5 c 128,-1,46
 517 216 517 216 532.5 254.5 c 128,-1,47
 548 293 548 293 548 355.5 c 128,-1,48
 548 418 548 418 522 468 c 128,-1,49
 496 518 496 518 449.5 545 c 128,-1,50
 403 572 403 572 333.5 572 c 128,-1,51
 264 572 264 572 206 537 c 0,52,53
 88 466 88 466 87 294 c 0,54,11
 87 181 87 181 143.5 122 c 128,-1,12
EndSplineSet
Validated: 1
EndChar

StartChar: airport
Encoding: 57376 57376 63
Width: 830
VWidth: 828
Flags: W
VStem: 353 120<455.629 618.23> 377 73<84.7065 255>
LayerCount: 2
Fore
SplineSet
810 300 m 4,0,1
 846 266 846 266 816 257 c 4,2,3
 806 254 806 254 776 258 c 5,4,-1
 517 320 l 6,5,6
 495 326 495 326 476 312 c 132,-1,7
 457 298 457 298 457 274 c 5,8,-1
 450 165 l 6,9,10
 449 140 449 140 462.5 115 c 132,-1,11
 476 90 476 90 497 79 c 6,12,-1
 533 61 l 5,13,14
 586 32 586 32 586 23 c 132,-1,15
 586 14 586 14 535 26 c 5,16,-1
 532 26 l 5,17,-1
 469 40 l 6,18,19
 455 44 455 44 435 46 c 5,20,21
 425 21 425 21 413 21 c 132,-1,22
 401 21 401 21 389 46 c 5,23,24
 368 45 368 45 356 40 c 5,25,-1
 294 26 l 6,26,27
 240 14 240 14 240 22.5 c 132,-1,28
 240 31 240 31 294 61 c 5,29,-1
 328 79 l 6,30,31
 349 91 349 91 363 114.5 c 132,-1,32
 377 138 377 138 377 160 c 6,33,-1
 377 165 l 5,34,-1
 371 273 l 6,35,36
 369 298 369 298 354 309 c 132,-1,37
 339 320 339 320 328 320 c 6,38,-1
 310 320 l 5,39,-1
 52 258 l 6,40,41
 39 255 39 255 29 256 c 4,42,43
 -3 256 -3 256 0 273 c 4,44,45
 2 285 2 285 19 300.5 c 132,-1,46
 36 316 36 316 57 326 c 6,47,-1
 306 454 l 6,48,49
 328 466 328 466 343 486.5 c 132,-1,50
 358 507 358 507 357.5 533 c 132,-1,51
 357 559 357 559 353 571 c 5,52,-1
 353 573 l 6,53,54
 353 600 353 600 371.5 631.5 c 132,-1,55
 390 663 390 663 412.5 663 c 132,-1,56
 435 663 435 663 454 631.5 c 132,-1,57
 473 600 473 600 473 573 c 6,58,-1
 473 571 l 5,59,60
 469 547 469 547 468.5 528 c 132,-1,61
 468 509 468 509 482.5 488.5 c 132,-1,62
 497 468 497 468 521 455 c 6,63,-1
 771 326 l 5,64,65
 793 316 793 316 810 300 c 4,0,1
EndSplineSet
Validated: 1
EndChar

StartChar: chapel
Encoding: 57377 57377 64
Width: 386
VWidth: 828
Flags: W
HStem: 199 74<174.094 215.75> 342 90<174.002 209.844>
VStem: 0 130<11.251 163.328> 117 152<412 424 468 585.375> 256 130<11.251 160.906>
LayerCount: 2
Fore
SplineSet
171 283 m 2,0,1
 171 273 171 273 182 273 c 2,2,-1
 204 273 l 2,3,4
 208 273 208 273 212 276 c 128,-1,5
 216 279 216 279 216 283 c 2,6,-1
 216 307 l 2,7,8
 216 318 216 318 210 328 c 1,9,-1
 200 338 l 2,10,11
 196 342 196 342 192 342 c 128,-1,12
 188 342 188 342 186 338 c 1,13,-1
 177 328 l 2,14,15
 171 320 171 320 171 307 c 2,16,-1
 171 283 l 2,0,1
367 246 m 2,17,18
 388 223 388 223 386 195 c 1,19,-1
 386 31 l 2,20,21
 386 19 386 19 377 11 c 128,-1,22
 368 3 368 3 354 3 c 2,23,-1
 289 3 l 2,24,25
 276 3 276 3 266 11.5 c 128,-1,26
 256 20 256 20 256 31 c 2,27,-1
 256 40 l 1,28,-1
 255 107 l 2,29,30
 254 138 254 138 236 158 c 1,31,-1
 212 189 l 2,32,33
 205 199 205 199 193.5 199 c 128,-1,34
 182 199 182 199 174 189 c 2,35,-1
 148 158 l 1,36,37
 130 133 130 133 130 107 c 2,38,-1
 130 40 l 1,39,-1
 129 40 l 1,40,-1
 129 31 l 2,41,42
 129 19 129 19 119.5 11 c 128,-1,43
 110 3 110 3 97 3 c 2,44,-1
 31 3 l 2,45,46
 18 3 18 3 9 11.5 c 128,-1,47
 0 20 0 20 0 31 c 2,48,-1
 0 195 l 2,49,50
 0 221 0 221 20 246 c 1,51,-1
 174 423 l 2,52,53
 182 433 182 433 194 432.5 c 128,-1,54
 206 432 206 432 213 423 c 2,55,-1
 367 246 l 2,17,18
174 458 m 2,56,-1
 138 418 l 2,57,58
 130 408 130 408 123.5 409.5 c 128,-1,59
 117 411 117 411 117 424 c 2,60,-1
 117 523 l 2,61,62
 117 554 117 554 134 577 c 1,63,-1
 177 644 l 2,64,65
 184 654 184 654 193 654 c 128,-1,66
 202 654 202 654 210 644 c 1,67,-1
 253 577 l 2,68,69
 269 552 269 552 269 523 c 2,70,-1
 269 424 l 2,71,72
 269 412 269 412 263 410.5 c 128,-1,73
 257 409 257 409 249 418 c 2,74,-1
 213 458 l 2,75,76
 205 468 205 468 193.5 468 c 128,-1,77
 182 468 182 468 174 458 c 2,56,-1
EndSplineSet
Validated: 1
EndChar

StartChar: museum
Encoding: 57378 57378 65
Width: 576
VWidth: 828
Flags: W
HStem: 2 71<14.2515 563.625> 112 30<25.7227 35.9375 142 148.277 226.153 238.235 346 348.708 427.723 439.814 539.938 550.277> 356 28<26.6406 33.5977 138.074 147.934 227.301 236.075 340.719 347.934 428.641 439.141 546.001 549.417> 426 197<246.688 327.094>
VStem: 24 126<112 147.969 355.488 384> 30 112<112 155.999 156.127 355.515> 42 88<156.127 355.515> 224 126<112 384> 232 114<112 384> 246 84<148.063 355.562> 426 126<112 155.967 156.127 323.594 326.312 384> 434 112<112 155.967> 446 84<156.127 355.515>
LayerCount: 2
Fore
SplineSet
0 61 m 2,0,1
 0 71 0 71 12 73 c 1,2,-1
 564 73 l 2,3,4
 568 73 568 73 572 69.5 c 128,-1,5
 576 66 576 66 576 61 c 2,6,-1
 576 35 l 2,7,8
 576 26 576 26 570 15 c 1,9,-1
 564 6 l 1,10,11
 552 2 552 2 538 2 c 2,12,-1
 36 2 l 2,13,14
 22 2 22 2 14 6 c 1,15,-1
 6 15 l 1,16,17
 2 28 2 28 0 38 c 1,18,-1
 0 61 l 2,0,1
438 384 m 2,19,-1
 538 384 l 2,20,21
 542 384 542 384 547 380.5 c 128,-1,22
 552 377 552 377 552 372 c 2,23,-1
 552 368 l 2,24,25
 552 355 552 355 549 355.5 c 128,-1,26
 546 356 546 356 546 353 c 0,27,28
 547 348 547 348 540.5 342 c 128,-1,29
 534 336 534 336 530 326 c 1,30,-1
 530 172 l 2,31,32
 530 164 530 164 536 160 c 128,-1,33
 542 156 542 156 544 152 c 128,-1,34
 546 148 546 148 546 145 c 128,-1,35
 546 142 546 142 549 142 c 128,-1,36
 552 142 552 142 552 129 c 2,37,-1
 552 125 l 2,38,39
 552 121 552 121 548 116.5 c 128,-1,40
 544 112 544 112 538 112 c 2,41,-1
 438 112 l 2,42,43
 434 112 434 112 430 116.5 c 128,-1,44
 426 121 426 121 426 125 c 2,45,-1
 426 129 l 2,46,47
 426 142 426 142 430 142 c 128,-1,48
 434 142 434 142 434 148.5 c 128,-1,49
 434 155 434 155 440 156 c 0,50,51
 444 160 444 160 446 172 c 1,52,-1
 446 326 l 2,53,54
 446 336 446 336 439 343 c 128,-1,55
 432 350 432 350 433 353 c 128,-1,56
 434 356 434 356 430 356 c 128,-1,57
 426 356 426 356 426 368 c 2,58,-1
 426 372 l 2,59,60
 426 376 426 376 430 380 c 128,-1,61
 434 384 434 384 438 384 c 2,19,-1
350 125 m 2,62,63
 350 112 350 112 338 112 c 2,64,-1
 238 112 l 2,65,66
 234 112 234 112 229 116.5 c 128,-1,67
 224 121 224 121 224 125 c 2,68,-1
 224 129 l 2,69,70
 224 142 224 142 228 142 c 128,-1,71
 232 142 232 142 232 144.5 c 128,-1,72
 232 147 232 147 234 151.5 c 128,-1,73
 236 156 236 156 240 158 c 128,-1,74
 244 160 244 160 246 172 c 1,75,-1
 246 326 l 2,76,77
 246 331 246 331 240 337.5 c 128,-1,78
 234 344 234 344 233 347 c 128,-1,79
 232 350 232 350 232 353 c 128,-1,80
 232 356 232 356 228 356 c 128,-1,81
 224 356 224 356 224 368 c 2,82,-1
 224 372 l 2,83,84
 224 376 224 376 229 380 c 128,-1,85
 234 384 234 384 238 384 c 2,86,-1
 338 384 l 2,87,88
 342 384 342 384 346 380.5 c 128,-1,89
 350 377 350 377 350 372 c 2,90,-1
 350 368 l 2,91,92
 350 355 350 355 348 355.5 c 128,-1,93
 346 356 346 356 346 352.5 c 128,-1,94
 346 349 346 349 338 338.5 c 128,-1,95
 330 328 330 328 330 326 c 2,96,-1
 330 172 l 2,97,98
 330 168 330 168 335 162 c 128,-1,99
 340 156 340 156 341 153 c 128,-1,100
 342 150 342 150 346 148 c 1,101,-1
 346 146 l 2,102,103
 346 142 346 142 348 142 c 128,-1,104
 350 142 350 142 350 129 c 2,105,-1
 350 125 l 2,62,63
36 384 m 2,106,-1
 138 384 l 2,107,108
 142 384 142 384 146 380.5 c 128,-1,109
 150 377 150 377 150 372 c 2,110,-1
 150 368 l 2,111,112
 150 355 150 355 147 355.5 c 128,-1,113
 144 356 144 356 143 352.5 c 128,-1,114
 142 349 142 349 136 338.5 c 128,-1,115
 130 328 130 328 130 326 c 2,116,-1
 130 172 l 2,117,118
 130 168 130 168 135 162 c 128,-1,119
 140 156 140 156 140 153 c 128,-1,120
 140 150 140 150 142 148 c 1,121,-1
 142 146 l 2,122,123
 142 142 142 142 146 142 c 128,-1,124
 150 142 150 142 150 129 c 2,125,-1
 150 125 l 2,126,127
 150 121 150 121 146 116.5 c 128,-1,128
 142 112 142 112 138 112 c 2,129,-1
 36 112 l 2,130,131
 32 112 32 112 28 116.5 c 128,-1,132
 24 121 24 121 24 125 c 2,133,-1
 24 129 l 2,134,135
 24 142 24 142 27 142 c 128,-1,136
 30 142 30 142 30 144.5 c 128,-1,137
 30 147 30 147 32 151.5 c 128,-1,138
 34 156 34 156 38 158 c 128,-1,139
 42 160 42 160 42 172 c 2,140,-1
 42 326 l 2,141,142
 42 330 42 330 37 337 c 128,-1,143
 32 344 32 344 31 347 c 128,-1,144
 30 350 30 350 30 353 c 128,-1,145
 30 356 30 356 27 356 c 128,-1,146
 24 356 24 356 24 368 c 2,147,-1
 24 372 l 2,148,149
 24 376 24 376 28 380 c 128,-1,150
 32 384 32 384 36 384 c 2,106,-1
288 623 m 128,-1,152
 294 623 294 623 298 619 c 1,153,-1
 564 457 l 2,154,155
 574 450 574 450 570 437 c 1,156,-1
 564 430 l 1,157,158
 552 426 552 426 540 426 c 2,159,-1
 36 426 l 2,160,161
 22 426 22 426 12 430 c 1,162,-1
 6 437 l 1,163,164
 2 450 2 450 8 457 c 1,165,-1
 276 619 l 2,166,151
 282 623 282 623 288 623 c 128,-1,152
EndSplineSet
Validated: 1
EndChar

StartChar: monument
Encoding: 57379 57379 66
Width: 370
VWidth: 828
Flags: W
HStem: 3 160<104.673 271.296> 278 32<142.013 268> 344 32<116 221.875> 413 33<124 231.969> 481 31<140.126 250> 579 47<142.25 249.319>
LayerCount: 2
Fore
SplineSet
136 496 m 0,0,1
 136 512 136 512 152 512 c 2,2,-1
 250 512 l 1,3,-1
 250 554 l 1,4,5
 248 564 248 564 240 572 c 128,-1,6
 232 580 232 580 222 579 c 1,7,-1
 160 579 l 1,8,9
 150 580 150 580 142 572 c 0,10,11
 138 565 138 565 134 554 c 1,12,-1
 124 446 l 1,13,-1
 216 446 l 2,14,15
 222 446 222 446 227 440.5 c 128,-1,16
 232 435 232 435 232 428.5 c 128,-1,17
 232 422 232 422 227 417.5 c 128,-1,18
 222 413 222 413 216 413 c 2,19,-1
 120 413 l 1,20,-1
 116 376 l 1,21,-1
 212 376 l 2,22,23
 226 376 226 376 226 360 c 0,24,25
 226 352 226 352 221 348 c 128,-1,26
 216 344 216 344 212 344 c 2,27,-1
 112 344 l 1,28,-1
 100 189 l 2,29,30
 98 163 98 163 122 163 c 2,31,-1
 254 163 l 2,32,33
 265 163 265 163 271.5 170.5 c 128,-1,34
 278 178 278 178 276 189 c 1,35,-1
 268 278 l 1,36,-1
 160 278 l 2,37,38
 154 278 154 278 148 282.5 c 128,-1,39
 142 287 142 287 142 294.5 c 128,-1,40
 142 302 142 302 148 306 c 128,-1,41
 154 310 154 310 160 310 c 2,42,-1
 268 310 l 1,43,-1
 254 481 l 1,44,-1
 152 481 l 2,45,46
 146 481 146 481 141 485.5 c 128,-1,47
 136 490 136 490 136 496 c 0,0,1
370 94 m 2,48,-1
 370 27 l 2,49,50
 370 16 370 16 363 9.5 c 128,-1,51
 356 3 356 3 346 3 c 2,52,-1
 24 3 l 2,53,54
 14 3 14 3 7 10 c 128,-1,55
 0 17 0 17 0 27 c 2,56,-1
 0 94 l 2,57,58
 0 112 0 112 11 127.5 c 128,-1,59
 22 143 22 143 40 148 c 1,60,-1
 94 603 l 1,61,62
 98 626 98 626 122 626 c 2,63,-1
 258 626 l 2,64,65
 269 626 269 626 277.5 619.5 c 128,-1,66
 286 613 286 613 286 603 c 1,67,-1
 332 147 l 1,68,69
 349 143 349 143 359.5 127.5 c 128,-1,70
 370 112 370 112 370 94 c 2,48,-1
EndSplineSet
Validated: 1
EndChar

StartChar: sport_centre
Encoding: 57380 57380 67
Width: 680
VWidth: 828
Flags: W
HStem: -40 100<236.506 346> 541 100<237.655 442.346>
VStem: 0 100<302 400.781> 580 100<196.624 401.641>
LayerCount: 2
Fore
SplineSet
568 312 m 128,-1,1
 566 404 566 404 501 470.5 c 128,-1,2
 436 537 436 537 342 537 c 128,-1,3
 248 537 248 537 182 470 c 128,-1,4
 116 403 116 403 115 309 c 1,5,6
 117 309 117 309 117 308.5 c 128,-1,7
 117 308 117 308 121 308 c 0,8,9
 135 310 135 310 146 313 c 2,10,-1
 167 318 l 2,11,12
 179 321 179 321 191.5 315.5 c 128,-1,13
 204 310 204 310 211 299 c 2,14,-1
 243 243 l 2,15,16
 249 232 249 232 248 218 c 128,-1,17
 247 204 247 204 239 194 c 2,18,-1
 208 159 l 1,19,20
 189 136 l 1,21,-1
 188 135 l 1,22,23
 254 73 254 73 345 74 c 1,24,-1
 346 76 l 2,25,26
 347 76 347 76 350 106 c 2,27,-1
 356 154 l 2,28,29
 358 166 358 166 367.5 176.5 c 128,-1,30
 377 187 377 187 389 189 c 2,31,-1
 451 201 l 2,32,33
 463 203 463 203 476 197 c 128,-1,34
 489 191 489 191 494 180 c 1,35,-1
 495 180 l 1,36,-1
 502 166 l 1,37,-1
 510 154 l 1,38,-1
 511 152 l 1,39,0
 570 220 570 220 568 312 c 128,-1,1
567.5 74 m 128,-1,41
 506 11 506 11 423.5 -11 c 128,-1,42
 341 -33 341 -33 259 -11 c 128,-1,43
 177 11 177 11 115.5 74 c 128,-1,44
 54 137 54 137 32.5 221 c 128,-1,45
 11 305 11 305 32.5 389.5 c 128,-1,46
 54 474 54 474 115 536 c 0,47,48
 161 583 161 583 221 607.5 c 128,-1,49
 281 632 281 632 341.5 632 c 128,-1,50
 402 632 402 632 462 607.5 c 128,-1,51
 522 583 522 583 567 536 c 0,52,53
 628 473 628 473 650 389 c 128,-1,54
 672 305 672 305 650.5 221 c 128,-1,40
 629 137 629 137 567.5 74 c 128,-1,41
473 411 m 2,55,-1
 464 327 l 2,56,57
 463 315 463 315 453.5 304 c 128,-1,58
 444 293 444 293 432 291 c 2,59,-1
 351 273 l 2,60,61
 339 270 339 270 326 276.5 c 128,-1,62
 313 283 313 283 307 293 c 2,63,-1
 266 367 l 2,64,65
 260 378 260 378 261.5 392 c 128,-1,66
 263 406 263 406 271 416 c 2,67,-1
 327 479 l 2,68,69
 335 488 335 488 349 491 c 128,-1,70
 363 494 363 494 374 489 c 2,71,-1
 450 454 l 2,72,73
 461 449 461 449 467.5 436 c 128,-1,74
 474 423 474 423 473 411 c 2,55,-1
EndSplineSet
Validated: 1
EndChar

StartChar: information
Encoding: 57381 57381 68
Width: 287
VWidth: 828
Flags: W
HStem: 3 45<6.06641 65.5874 224.442 281.843> 399 40<8.03625 48.3763> 527 128<64.7373 176.158>
VStem: 45 157<547.25 637.805> 76 137<79.2622 391.923>
LayerCount: 2
Fore
SplineSet
224 66 m 0,0,1
 238 49 238 49 270 48 c 0,2,3
 277 48 277 48 282 45.5 c 128,-1,4
 287 43 287 43 287 23 c 0,5,6
 287 14 287 14 272.5 8.5 c 128,-1,7
 258 3 258 3 238 3 c 2,8,-1
 49 3 l 2,9,10
 28 3 28 3 14 8.5 c 128,-1,11
 0 14 0 14 0 23 c 0,12,13
 0 43 0 43 6 46 c 0,14,15
 8 48 8 48 25 48 c 128,-1,16
 42 48 42 48 58 61 c 0,17,18
 62 65 62 65 72 79 c 0,19,20
 76 87 76 87 76 145 c 2,21,-1
 76 306 l 2,22,23
 76 351 76 351 75 362.5 c 128,-1,24
 74 374 74 374 63 384 c 0,25,26
 52 397 52 397 30.5 399 c 128,-1,27
 9 401 9 401 8 404 c 0,28,29
 1 408 1 408 0.5 420.5 c 128,-1,30
 0 433 0 433 14.5 439.5 c 128,-1,31
 29 446 29 446 49 446 c 2,32,-1
 162 446 l 2,33,34
 183 446 183 446 198 432 c 128,-1,35
 213 418 213 418 213 400 c 2,36,-1
 213 145 l 2,37,38
 213 101 213 101 214 90 c 128,-1,39
 215 79 215 79 224 66 c 0,0,1
134 527 m 0,40,41
 76 527 76 527 53 563 c 0,42,43
 46 576 46 576 45 592 c 0,44,45
 45 638 45 638 98 652 c 0,46,47
 132 662 132 662 177 642 c 1,48,49
 202 625 202 625 202 592.5 c 128,-1,50
 202 560 202 560 179 543.5 c 128,-1,51
 156 527 156 527 134 527 c 0,40,41
EndSplineSet
Validated: 1
EndChar

StartChar: hospital
Encoding: 57382 57382 69
Width: 688
VWidth: 828
Flags: W
HStem: -23 74<234.955 452.715> 271 107<158.313 280.718 405.736 527.233> 590 73<235.973 452.715>
VStem: 0 74<212.963 427.567> 290 108<139.282 262.233 379.403 509.234> 614 74<212.963 427.567>
CounterMasks: 1 1c
LayerCount: 2
Fore
SplineSet
344 590 m 128,-1,1
 270 590 270 590 208 554 c 128,-1,2
 146 518 146 518 110 455.5 c 128,-1,3
 74 393 74 393 74 320.5 c 128,-1,4
 74 248 74 248 110 185 c 128,-1,5
 146 122 146 122 208 86.5 c 128,-1,6
 270 51 270 51 344 51 c 128,-1,7
 418 51 418 51 480 86.5 c 128,-1,8
 542 122 542 122 578 185 c 128,-1,9
 614 248 614 248 614 320.5 c 128,-1,10
 614 393 614 393 578 455.5 c 128,-1,11
 542 518 542 518 480 554 c 128,-1,0
 418 590 418 590 344 590 c 128,-1,1
344 -23 m 128,-1,13
 274 -23 274 -23 210 4.5 c 128,-1,14
 146 32 146 32 100 77 c 128,-1,15
 54 122 54 122 27 186.5 c 128,-1,16
 0 251 0 251 0 320.5 c 128,-1,17
 0 390 0 390 27 453.5 c 128,-1,18
 54 517 54 517 100 563 c 128,-1,19
 146 609 146 609 210 636 c 128,-1,20
 274 663 274 663 344 663 c 128,-1,21
 414 663 414 663 477 636 c 128,-1,22
 540 609 540 609 586 563 c 128,-1,23
 632 517 632 517 660 453.5 c 128,-1,24
 688 390 688 390 688 320.5 c 128,-1,25
 688 251 688 251 660 186.5 c 128,-1,26
 632 122 632 122 586 77 c 128,-1,27
 540 32 540 32 477 4.5 c 128,-1,12
 414 -23 414 -23 344 -23 c 128,-1,13
536 348 m 2,28,-1
 536 302 l 2,29,30
 536 289 536 289 528 280 c 128,-1,31
 520 271 520 271 506 271 c 2,32,-1
 426 271 l 2,33,34
 413 271 413 271 405.5 262.5 c 128,-1,35
 398 254 398 254 398 241 c 2,36,-1
 398 161 l 2,37,38
 398 148 398 148 389 139 c 128,-1,39
 380 130 380 130 366 130 c 2,40,-1
 320 130 l 2,41,42
 307 130 307 130 298.5 139 c 128,-1,43
 290 148 290 148 290 161 c 2,44,-1
 290 241 l 2,45,46
 290 254 290 254 281 262.5 c 128,-1,47
 272 271 272 271 258 271 c 2,48,-1
 180 271 l 2,49,50
 168 270 168 270 158 280 c 0,51,52
 148 290 148 290 148 302 c 2,53,-1
 148 348 l 2,54,55
 148 361 148 361 157 369.5 c 128,-1,56
 166 378 166 378 180 378 c 2,57,-1
 258 378 l 2,58,59
 271 378 271 378 280.5 387 c 128,-1,60
 290 396 290 396 290 408 c 2,61,-1
 290 489 l 2,62,63
 290 502 290 502 298 510 c 128,-1,64
 306 518 306 518 320 518 c 2,65,-1
 366 518 l 2,66,67
 379 518 379 518 388.5 509.5 c 128,-1,68
 398 501 398 501 398 489 c 2,69,-1
 398 408 l 2,70,71
 398 395 398 395 407 386.5 c 128,-1,72
 416 378 416 378 426 378 c 2,73,-1
 506 378 l 2,74,75
 519 378 519 378 527.5 369.5 c 128,-1,76
 536 361 536 361 536 348 c 2,28,-1
EndSplineSet
Validated: 1
EndChar

StartChar: golf
Encoding: 57383 57383 70
Width: 424
VWidth: 828
Flags: W
HStem: -10 60<72.4375 131.438>
VStem: 0 72<50.5449 124.488> 86 31<70 616.908> 128 75<54.156 123.544>
LayerCount: 2
Fore
SplineSet
72 153 m 1,0,-1
 72 54 l 1,1,2
 86 50 86 50 100 50 c 128,-1,3
 114 50 114 50 132 54 c 1,4,5
 130 59 130 59 128 63 c 1,6,-1
 128 153 l 1,7,8
 158 147 158 147 181 123.5 c 128,-1,9
 204 100 204 100 203 70 c 128,-1,10
 202 40 202 40 174 14 c 0,11,12
 144 -10 144 -10 102 -10 c 128,-1,13
 60 -10 60 -10 30 14 c 128,-1,14
 0 38 0 38 0 69.5 c 128,-1,15
 0 101 0 101 20 122.5 c 128,-1,16
 40 144 40 144 72 153 c 1,0,-1
142 600 m 1,17,18
 198 574 198 574 288 566 c 0,19,20
 318 562 318 562 354 547 c 0,21,22
 394 533 394 533 424 501 c 1,23,24
 394 505 394 505 350 488 c 0,25,26
 318 474 318 474 288 449 c 0,27,28
 202 380 202 380 142 371 c 1,29,-1
 142 600 l 1,17,18
86 636 m 1,30,31
 101 623 101 623 117 612 c 1,32,-1
 117 70 l 1,33,34
 110 66 110 66 102 67 c 2,35,-1
 86 70 l 1,36,-1
 86 636 l 1,30,31
EndSplineSet
Validated: 1
EndChar

StartChar: picnic_site
Encoding: 57384 57384 71
Width: 711
VWidth: 828
Flags: W
HStem: -21 133<111 122 148.5 206.344 501.812 561.5 586 600> 49 63<10.751 148.42 230.719 479.062 561.55 699.218> 157 129<138.062 270.794> 157 41<337 514.906> 265 37<453.224 524.375> 357 264<163.01 238.375>
VStem: 113 24<290.801 364> 150 101<444.842 621> 162 77<459.686 599.597> 271 17<291.359 364> 337 110<305.358 352>
LayerCount: 2
Fore
SplineSet
700 102 m 0,0,1
 712 98 712 98 711 80 c 128,-1,2
 710 62 710 62 700 58 c 0,3,4
 675 48 675 48 648 49 c 1,5,-1
 576 49 l 2,6,7
 563 49 563 49 561.5 43 c 128,-1,8
 560 37 560 37 566 30 c 2,9,-1
 597 -1 l 2,10,11
 604 -8 604 -8 602 -14.5 c 128,-1,12
 600 -21 600 -21 586 -21 c 2,13,-1
 552 -21 l 1,14,15
 524 -18 524 -18 504 -1 c 1,16,-1
 476 30 l 2,17,18
 469 37 469 37 455 43 c 128,-1,19
 441 49 441 49 430 49 c 2,20,-1
 280 49 l 1,21,22
 256 50 256 50 234 30 c 1,23,-1
 204 -1 l 2,24,25
 184 -21 184 -21 157 -21 c 2,26,-1
 122 -21 l 2,27,28
 111 -21 111 -21 108.5 -15.5 c 128,-1,29
 106 -10 106 -10 113 -2 c 2,30,-1
 144 30 l 2,31,32
 151 37 151 37 148.5 43 c 128,-1,33
 146 49 146 49 135 49 c 2,34,-1
 62 49 l 1,35,36
 34 48 34 48 10 58 c 0,37,38
 0 62 0 62 0 78.5 c 128,-1,39
 0 95 0 95 8 100 c 1,40,-1
 10 102 l 1,41,42
 34 112 34 112 62 112 c 2,43,-1
 648 112 l 2,44,45
 675 112 675 112 700 102 c 0,0,1
626 352 m 2,46,47
 643 352 643 352 649.5 341.5 c 128,-1,48
 656 331 656 331 648 318 c 2,49,-1
 579 194 l 1,50,51
 572 179 572 179 553 168 c 128,-1,52
 534 157 534 157 519 157 c 2,53,-1
 332 157 l 1,54,55
 336 164 336 164 337 175 c 1,56,-1
 337 198 l 1,57,-1
 485 198 l 2,58,59
 500 198 500 198 511 212 c 1,60,-1
 536 250 l 2,61,62
 540 256 540 256 537 260.5 c 128,-1,63
 534 265 534 265 528 265 c 2,64,-1
 337 265 l 1,65,-1
 337 352 l 1,66,-1
 447 352 l 1,67,68
 443 338 443 338 449 328 c 0,69,70
 460 302 460 302 486 302 c 128,-1,71
 512 302 512 302 524 320 c 1,72,-1
 548 352 l 1,73,-1
 626 352 l 2,46,47
271 293 m 1,74,-1
 271 364 l 1,75,76
 239 357 239 357 204.5 357 c 128,-1,77
 170 357 170 357 137 364 c 1,78,-1
 137 293 l 1,79,80
 171 286 171 286 205 286 c 128,-1,81
 239 286 239 286 271 293 c 1,74,-1
229 621 m 2,82,83
 250 621 250 621 251 600 c 0,84,85
 251 587 251 587 245 587.5 c 128,-1,86
 239 588 239 588 239 572 c 2,87,-1
 239 499 l 2,88,89
 240 482 240 482 248 474 c 2,90,91
 262 458 l 2,92,93
 268 452 268 452 278 433 c 128,-1,94
 288 414 288 414 288 397 c 2,95,-1
 288 175 l 2,96,97
 288 169 288 169 282 163 c 128,-1,98
 276 157 276 157 267 157 c 2,99,-1
 134 157 l 2,100,101
 125 157 125 157 119 162 c 128,-1,102
 113 167 113 167 113 175 c 2,103,-1
 113 397 l 2,104,105
 113 414 113 414 121 432 c 128,-1,106
 129 450 129 450 140 460 c 2,107,-1
 149 468 l 2,108,109
 163 481 163 481 162 499 c 1,110,-1
 162 572 l 2,111,112
 162 589 162 589 156 588.5 c 128,-1,113
 150 588 150 588 150 600 c 0,114,115
 150 621 150 621 172 621 c 2,116,-1
 229 621 l 2,82,83
513 345 m 1,117,118
 504 328 504 328 486 339 c 0,119,120
 479 343 479 343 476.5 351.5 c 128,-1,121
 474 360 474 360 479 367 c 2,122,-1
 586 512 l 2,123,124
 590 519 590 519 600 521.5 c 128,-1,125
 610 524 610 524 617 518 c 0,126,127
 632 506 632 506 622 492 c 2,128,-1
 513 345 l 1,117,118
EndSplineSet
Validated: 1
EndChar

StartChar: drag_lift
Encoding: 57385 57385 72
Width: 617
VWidth: 828
Flags: W
HStem: -9 61<101.61 269 320 488.39>
VStem: 172 36<414.646 499.383> 244 101<287.157 368.539 399 430.327> 269 51<52 281>
LayerCount: 2
Fore
SplineSet
15 622 m 0,0,1
 18 622 18 622 19 620 c 1,2,-1
 200 563 l 1,3,4
 208 569 208 569 214 570 c 1,5,-1
 221 570 l 2,6,7
 242 570 242 570 250 547 c 1,8,-1
 605 434 l 1,9,10
 622 431 622 431 616.5 415.5 c 128,-1,11
 611 400 611 400 601 400 c 0,12,13
 599 400 599 400 595 401 c 2,14,-1
 245 512 l 1,15,16
 235 499 235 499 224 500 c 1,17,18
 210 483 210 483 208 461 c 0,19,20
 208 423 208 423 244 399 c 1,21,-1
 244 416 l 2,22,23
 244 424 244 424 250 430 c 128,-1,24
 256 436 256 436 263 436 c 2,25,-1
 325 436 l 2,26,27
 333 436 333 436 339 430.5 c 128,-1,28
 345 425 345 425 345 416 c 2,29,-1
 345 302 l 2,30,31
 345 292 345 292 338.5 286.5 c 128,-1,32
 332 281 332 281 325 281 c 2,33,-1
 320 281 l 1,34,-1
 320 52 l 1,35,36
 439 54 439 54 490 72 c 1,37,38
 493 86 493 86 502.5 95 c 128,-1,39
 512 104 512 104 526.5 104 c 128,-1,40
 541 104 541 104 552 92.5 c 128,-1,41
 563 81 563 81 563 65.5 c 128,-1,42
 563 50 563 50 553.5 39 c 128,-1,43
 544 28 544 28 533 26 c 1,44,45
 484 -9 484 -9 298.5 -9 c 128,-1,46
 113 -9 113 -9 56 26 c 1,47,48
 43 28 43 28 34.5 39 c 128,-1,49
 26 50 26 50 26 65.5 c 128,-1,50
 26 81 26 81 37 92.5 c 128,-1,51
 48 104 48 104 62 104 c 0,52,53
 90 104 90 104 100 72 c 1,54,55
 151 55 151 55 269 52 c 1,56,-1
 269 281 l 1,57,-1
 263 281 l 2,58,59
 255 281 255 281 249.5 286.5 c 128,-1,60
 244 292 244 292 244 302 c 2,61,-1
 244 356 l 1,62,63
 212 370 212 370 192 398.5 c 128,-1,64
 172 427 172 427 172 459.5 c 128,-1,65
 172 492 172 492 190 518 c 1,66,67
 186 525 186 525 187 532 c 1,68,-1
 11 588 l 2,69,70
 -3 593 -3 593 0 608 c 0,71,72
 3 622 3 622 15 622 c 0,0,1
EndSplineSet
Validated: 1
EndChar

StartChar: construction
Encoding: 57386 57386 73
Width: 616
VWidth: 828
Flags: W
VStem: 329 192<390.07 453.978>
LayerCount: 2
Fore
SplineSet
275 336 m 1,0,1
 317 290 317 290 362 247 c 1,2,3
 342 226 342 226 108 -12 c 0,4,5
 88 -32 88 -32 78 -31.5 c 128,-1,6
 68 -31 68 -31 47.5 -10 c 128,-1,7
 27 11 27 11 13.5 25 c 128,-1,8
 0 39 0 39 0 48.5 c 128,-1,9
 0 58 0 58 9 68 c 0,10,11
 55 114 55 114 275 336 c 1,0,1
540 374 m 128,-1,13
 548 374 548 374 554 369 c 2,14,-1
 610 311 l 2,15,16
 622 299 622 299 610 285 c 1,17,-1
 535 209 l 2,18,19
 530 205 530 205 521.5 204 c 128,-1,20
 513 203 513 203 508 209 c 2,21,-1
 452 265 l 1,22,23
 445 274 445 274 452 294 c 1,24,-1
 529 369 l 1,25,12
 532 374 532 374 540 374 c 128,-1,13
142 608 m 1,26,27
 328 580 328 580 358 577 c 0,28,29
 378 573 378 573 401 551.5 c 128,-1,30
 424 530 424 530 458 496 c 0,31,32
 490 461 490 461 505.5 448 c 128,-1,33
 521 435 521 435 521 423 c 128,-1,34
 521 411 521 411 508 399 c 2,35,-1
 401 292 l 1,36,-1
 311 378 l 1,37,-1
 319 394 l 2,38,39
 329 414 329 414 329 436 c 128,-1,40
 329 458 329 458 315 481 c 0,41,42
 299 504 299 504 252 534 c 0,43,44
 205 562 205 562 182 574 c 2,45,-1
 145 593 l 1,46,-1
 142 608 l 1,26,27
EndSplineSet
Validated: 1
EndChar

StartChar: islamism
Encoding: 57387 57387 74
Width: 598
VWidth: 828
Flags: W
HStem: -14 113<272.219 416.215>
LayerCount: 2
Fore
SplineSet
496 582 m 1,0,-1
 514 512 l 1,1,-1
 584 494 l 1,2,-1
 534 443 l 1,3,-1
 550 376 l 1,4,-1
 485 394 l 1,5,-1
 433 343 l 1,6,-1
 417 413 l 1,7,-1
 348 432 l 1,8,-1
 399 483 l 1,9,-1
 381 548 l 1,10,-1
 445 531 l 1,11,-1
 496 582 l 1,0,-1
257 594 m 1,12,13
 246 587 246 587 237 578 c 0,14,15
 214 564 214 564 196 544 c 0,16,17
 120 468 120 468 120 360 c 0,18,19
 118 252 118 252 194 176 c 0,20,21
 270 100 270 100 376 100 c 128,-1,22
 482 100 482 100 559 176 c 0,23,24
 580 196 580 196 589 207 c 1,25,-1
 598 224 l 1,26,27
 578 138 578 138 518 76 c 0,28,29
 475 32 475 32 418.5 9 c 128,-1,30
 362 -14 362 -14 304.5 -14 c 128,-1,31
 247 -14 247 -14 190.5 8.5 c 128,-1,32
 134 31 134 31 91 76 c 0,33,34
 33 134 33 134 11 212 c 128,-1,35
 -11 290 -11 290 11 370 c 128,-1,36
 33 450 33 450 91 508 c 0,37,38
 159 578 159 578 257 594 c 1,12,13
EndSplineSet
Validated: 1
EndChar

StartChar: vineyard
Encoding: 57388 57388 75
Width: 593
VWidth: 828
Flags: W
HStem: -41 154<274.174 380.795> 101 155<150.721 258.279> 129 155<351.314 455.25> 241 137<44.9982 137.31> 275 115<232.505 287> 417 151<85.968 170 218 255.437> 492 77<237.312 485.5>
VStem: 6 154<264.207 373.408> 127 155<124.721 232.795> 165 36<599.809 625.52> 210 154<297.721 389.436> 252 152<-17.7946 89.7946> 329 156<151.996 252.343> 422 165<325.518 417.467>
LayerCount: 2
Fore
SplineSet
44 385 m 1,0,1
 76 378 76 378 100 378 c 2,2,-1
 134 378 l 1,3,4
 162 354 162 354 160.5 319.5 c 128,-1,5
 159 285 159 285 137.5 263 c 128,-1,6
 116 241 116 241 83 241 c 128,-1,7
 50 241 50 241 28 263.5 c 128,-1,8
 6 286 6 286 6.5 324.5 c 128,-1,9
 7 363 7 363 44 385 c 1,0,1
320 421 m 1,10,11
 361 401 361 401 364 352 c 0,12,13
 363 320 363 320 341.5 297 c 128,-1,14
 320 274 320 274 288 274 c 1,15,-1
 287 275 l 1,16,17
 255 275 255 275 232.5 297.5 c 128,-1,18
 210 320 210 320 210 346 c 128,-1,19
 210 372 210 372 219 390 c 1,20,21
 267 400 267 400 320 421 c 1,10,11
468 455 m 1,22,23
 525 451 525 451 578 418 c 1,24,25
 587 401 587 401 587 377 c 128,-1,26
 587 353 587 353 567.5 328.5 c 128,-1,27
 548 304 548 304 517 300 c 0,28,29
 511 299 511 299 494.5 298.5 c 128,-1,30
 478 298 478 298 453 317 c 0,31,32
 422 341 422 341 422 387 c 0,33,34
 421 400 421 400 433 422 c 128,-1,35
 445 444 445 444 468 455 c 1,22,23
218 568 m 1,36,37
 238 569 238 569 256 569 c 0,38,39
 456 569 456 569 593 446 c 1,40,41
 523 492 523 492 448 492 c 0,42,43
 431 492 431 492 401 487 c 128,-1,44
 371 482 371 482 304.5 454 c 128,-1,45
 238 426 238 426 190 421 c 128,-1,46
 142 416 142 416 126 416 c 0,47,48
 81 417 81 417 43.5 430.5 c 128,-1,49
 6 444 6 444 0 445 c 1,50,51
 20 548 20 548 157 562 c 0,52,53
 165 563 165 563 170 564 c 1,54,55
 169 614 169 614 165 634 c 1,56,57
 182 630 182 630 201 623 c 1,58,-1
 218 568 l 1,36,37
327 113 m 128,-1,60
 359 113 359 113 381.5 90.5 c 128,-1,61
 404 68 404 68 404 36 c 128,-1,62
 404 4 404 4 381.5 -18.5 c 128,-1,63
 359 -41 359 -41 327 -41 c 128,-1,64
 295 -41 295 -41 273.5 -18.5 c 128,-1,65
 252 4 252 4 252 36 c 128,-1,66
 252 68 252 68 273.5 90.5 c 128,-1,59
 295 113 295 113 327 113 c 128,-1,60
344 253 m 0,67,68
 366 284 366 284 399 284 c 128,-1,69
 432 284 432 284 458.5 264 c 128,-1,70
 485 244 485 244 485 203 c 0,71,72
 485 179 485 179 467 157 c 0,73,74
 446 129 446 129 405 129 c 0,75,76
 380 128 380 128 354 148 c 128,-1,77
 328 168 328 168 329 207 c 0,78,79
 329 232 329 232 344 253 c 0,67,68
204.5 101 m 128,-1,81
 173 101 173 101 150 124 c 128,-1,82
 127 147 127 147 127 179 c 128,-1,83
 127 211 127 211 150 233.5 c 128,-1,84
 173 256 173 256 204.5 256 c 128,-1,85
 236 256 236 256 259 233.5 c 128,-1,86
 282 211 282 211 282 179 c 128,-1,87
 282 147 282 147 259 124 c 128,-1,80
 236 101 236 101 204.5 101 c 128,-1,81
EndSplineSet
Validated: 1
EndChar

StartChar: lighthouse
Encoding: 57389 57389 76
Width: 670
VWidth: 828
Flags: W
HStem: 1 78<251.342 367.836> 112 71<240.228 308 348.16 434.582> 206 71<239.493 365> 305 77<314 434.328> 374 31<21.0642 56.4777> 420 107<304.25 382.069> 489 34<185.219 235.498 437.579 448 448 481.173> 527 35<0.0065918 10.9417 658.851 669.125> 556 82<289.398 393.943>
VStem: 234 139<14.0946 75.359> 234 131<218.305 277> 234 74<129.188 182.811> 234 49<317.611 391.333> 291 105<429.281 514.137> 314 126<317.718 382> 343 97<129.25 173.874> 396 44<217.672 288.753> 407 33<15.641 90.9365>
LayerCount: 2
Fore
SplineSet
477 575 m 0,0,1
 487 571 487 571 486 567 c 0,2,3
 486 562 486 562 474 562 c 0,4,5
 322 548 322 548 208 562 c 0,6,7
 186 566 186 566 206 575 c 0,8,9
 250 593 250 593 318 633 c 0,10,11
 328 638 328 638 342.5 638 c 128,-1,12
 357 638 357 638 365 633 c 0,13,14
 434 593 434 593 477 575 c 0,0,1
395 457 m 2,15,16
 396 453 396 453 396 445.5 c 128,-1,17
 396 438 396 438 388.5 429 c 128,-1,18
 381 420 381 420 364 420 c 2,19,-1
 321 420 l 2,20,21
 305 420 305 420 298 428.5 c 128,-1,22
 291 437 291 437 291 445 c 2,23,-1
 291 457 l 1,24,-1
 298 490 l 2,25,26
 302 506 302 506 315 516.5 c 128,-1,27
 328 527 328 527 343 527 c 128,-1,28
 358 527 358 527 371.5 516 c 128,-1,29
 385 505 385 505 389 490 c 1,30,-1
 395 457 l 2,15,16
423 91 m 1,31,-1
 423 92 l 1,32,33
 438 96 438 96 440 82 c 1,34,-1
 440 37 l 2,35,36
 440 31 440 31 435 23.5 c 128,-1,37
 430 16 430 16 424 13.5 c 128,-1,38
 418 11 418 11 412.5 15.5 c 128,-1,39
 407 20 407 20 407 26 c 2,40,-1
 407 71 l 2,41,42
 407 77 407 77 412 83 c 128,-1,43
 417 89 417 89 423 91 c 1,31,-1
373 65 m 2,44,-1
 373 21 l 2,45,46
 373 15 373 15 368 8 c 128,-1,47
 363 1 363 1 328 1 c 128,-1,48
 293 1 293 1 250 14 c 0,49,50
 234 22 234 22 234 37 c 2,51,-1
 234 82 l 2,52,53
 234 96 234 96 250 92 c 0,54,55
 290 79 290 79 317.5 79 c 128,-1,56
 345 79 345 79 354 79.5 c 128,-1,57
 363 80 363 80 368 75.5 c 128,-1,58
 373 71 373 71 373 65 c 2,44,-1
343 162 m 2,59,60
 343 170 343 170 348 174.5 c 128,-1,61
 353 179 353 179 372.5 180.5 c 128,-1,62
 392 182 392 182 411 188 c 0,63,64
 440 197 440 197 440 180 c 2,65,-1
 440 144 l 2,66,67
 440 137 440 137 435 129 c 0,68,69
 422 113 422 113 360 110 c 0,70,71
 354 109 354 109 348.5 113.5 c 128,-1,72
 343 118 343 118 343 123 c 2,73,-1
 343 162 l 2,59,60
308 163 m 2,74,-1
 308 125 l 2,75,76
 308 111 308 111 292 112 c 0,77,78
 247 117 247 117 240 129 c 0,79,80
 236 135 236 135 234 144 c 1,81,-1
 234 180 l 2,82,83
 234 196 234 196 252.5 190.5 c 128,-1,84
 271 185 271 185 289.5 181 c 128,-1,85
 308 177 308 177 308 163 c 2,74,-1
396 266 m 2,86,87
 396 281 396 281 423 291 c 0,88,89
 429 294 429 294 434.5 289.5 c 128,-1,90
 440 285 440 285 440 278 c 2,91,-1
 440 241 l 2,92,93
 440 228 440 228 424.5 220 c 128,-1,94
 409 212 409 212 402.5 217.5 c 128,-1,95
 396 223 396 223 396 229 c 2,96,-1
 396 266 l 2,86,87
365 262 m 2,97,-1
 365 225 l 2,98,99
 365 219 365 219 361 213 c 0,100,101
 356 206 356 206 324.5 206 c 128,-1,102
 293 206 293 206 250 220 c 0,103,104
 234 228 234 228 234 241 c 2,105,-1
 234 278 l 2,106,107
 234 284 234 284 238 288.5 c 128,-1,108
 242 293 242 293 250 291 c 0,109,110
 296 278 296 278 341 277 c 1,111,-1
 350 277 l 2,112,113
 356 277 356 277 360.5 272.5 c 128,-1,114
 365 268 365 268 365 262 c 2,97,-1
319 377.5 m 128,-1,116
 324 382 324 382 328 382 c 2,117,-1
 335 382 l 2,118,119
 381 382 381 382 405 389.5 c 128,-1,120
 429 397 429 397 434.5 394 c 128,-1,121
 440 391 440 391 440 384 c 2,122,-1
 440 340 l 2,123,124
 440 334 440 334 435 327 c 128,-1,125
 430 320 430 320 423 319 c 0,126,127
 377 305 377 305 330 305 c 0,128,129
 324 306 324 306 319 311.5 c 128,-1,130
 314 317 314 317 314 323 c 2,131,-1
 314 366 l 2,132,115
 314 373 314 373 319 377.5 c 128,-1,116
283 370 m 2,133,-1
 283 328 l 1,134,135
 282 321 282 321 278 316 c 0,136,137
 273 312 273 312 253.5 318.5 c 128,-1,138
 234 325 234 325 234 340 c 2,139,-1
 234 384 l 2,140,141
 234 390 234 390 238 393.5 c 128,-1,142
 242 397 242 397 250 394.5 c 128,-1,143
 258 392 258 392 265.5 390 c 128,-1,144
 273 388 273 388 278 382 c 128,-1,145
 283 376 283 376 283 370 c 2,133,-1
447 495 m 0,146,147
 440 495 440 495 438 506 c 0,148,149
 433 528 433 528 446 528 c 1,150,-1
 657 566 l 2,151,152
 661 568 661 568 665 562 c 0,153,154
 670 556 670 556 670 550 c 0,155,156
 671 537 671 537 660 534 c 2,157,-1
 448 496 l 2,158,159
 448 495 448 495 447 495 c 0,146,147
652 388 m 2,160,-1
 470 435 l 2,161,162
 466 436 466 436 463.5 442 c 128,-1,163
 461 448 461 448 462 454 c 0,164,165
 464 469 464 469 473 467 c 2,166,-1
 656 418 l 2,167,168
 666 415 666 415 664 401 c 128,-1,169
 662 387 662 387 654 387 c 0,170,171
 653 387 653 387 652 388 c 2,160,-1
224 489 m 2,172,-1
 223 489 l 1,173,-1
 10 527 l 2,174,175
 0 529 0 529 0 541 c 0,176,177
 0 562 0 562 13 562 c 1,178,-1
 224 523 l 2,179,180
 228 522 228 522 233 514 c 128,-1,181
 238 506 238 506 233 497.5 c 128,-1,182
 228 489 228 489 224 489 c 2,172,-1
32 374 m 2,183,184
 23 374 23 374 21 387 c 128,-1,185
 19 400 19 400 30 405 c 1,186,-1
 211 454 l 2,187,188
 215 455 215 455 219 451 c 0,189,190
 229 441 229 441 221 429 c 0,191,192
 219 424 219 424 216 423 c 2,193,-1
 33 374 l 1,194,-1
 32 374 l 2,183,184
EndSplineSet
Validated: 1
EndChar

StartChar: tower
Encoding: 57390 57390 77
Width: 361
VWidth: 828
Flags: W
VStem: 0 51<514 582> 43 83<-2.3125 106> 103 52<514.069 582> 205 54<514.069 582> 234 84<-0.967773 106> 312 49<514 582>
LayerCount: 2
Fore
SplineSet
195 301 m 1,0,1
 206 303 206 303 207 313 c 1,2,-1
 207 355 l 2,3,4
 207 356 207 356 186 397 c 0,5,6
 183 401 183 401 181 401 c 128,-1,7
 179 401 179 401 177 397 c 2,8,-1
 155 367 l 1,9,10
 153 354 153 354 153 343 c 2,11,-1
 153 313 l 2,12,13
 153 301 153 301 166 301 c 2,14,-1
 195 301 l 1,0,1
251 582 m 2,15,16
 259 582 259 582 259 571 c 2,17,-1
 259 527 l 2,18,19
 259 522 259 522 263 518 c 128,-1,20
 267 514 267 514 272 514 c 2,21,-1
 301 514 l 2,22,23
 305 514 305 514 308.5 518.5 c 128,-1,24
 312 523 312 523 312 527 c 2,25,-1
 312 571 l 2,26,27
 312 575 312 575 315.5 578.5 c 128,-1,28
 319 582 319 582 324 582 c 2,29,-1
 351 582 l 2,30,31
 355 582 355 582 358.5 578.5 c 128,-1,32
 362 575 362 575 361 571 c 1,33,-1
 361 461 l 1,34,35
 362 448 362 448 355 438 c 2,36,-1
 326 400 l 1,37,38
 320 389 320 389 318 378 c 1,39,-1
 318 14 l 2,40,41
 318 10 318 10 314 5 c 128,-1,42
 310 0 310 0 306 -1 c 2,43,-1
 247 -8 l 1,44,45
 234 -8 234 -8 234 3 c 2,46,-1
 234 106 l 1,47,-1
 186 192 l 2,48,49
 182 200 182 200 177 192 c 2,50,-1
 126 106 l 1,51,52
 125 94 125 94 126 84 c 1,53,-1
 126 3 l 1,54,55
 125 -8 125 -8 115 -8 c 1,56,-1
 54 -1 l 2,57,58
 50 0 50 0 46.5 5 c 128,-1,59
 43 10 43 10 43 14 c 2,60,-1
 43 378 l 2,61,62
 43 391 43 391 36 400 c 2,63,-1
 7 438 l 1,64,65
 0 449 0 449 0 461 c 2,66,-1
 0 571 l 2,67,68
 0 575 0 575 3.5 578.5 c 128,-1,69
 7 582 7 582 11 582 c 2,70,-1
 40 582 l 2,71,72
 44 582 44 582 47.5 578.5 c 128,-1,73
 51 575 51 575 51 571 c 2,74,-1
 51 527 l 2,75,76
 51 522 51 522 54 518 c 128,-1,77
 57 514 57 514 61 514 c 2,78,-1
 90 514 l 2,79,80
 94 514 94 514 98.5 518.5 c 128,-1,81
 103 523 103 523 103 527 c 2,82,-1
 103 571 l 2,83,84
 103 575 103 575 106.5 578.5 c 128,-1,85
 110 582 110 582 114 582 c 2,86,-1
 144 582 l 2,87,88
 148 582 148 582 151.5 578.5 c 128,-1,89
 155 575 155 575 155 571 c 2,90,-1
 155 526 l 2,91,92
 155 514 155 514 166 512 c 1,93,-1
 195 512 l 1,94,95
 205 514 205 514 205 526 c 2,96,-1
 205 571 l 2,97,98
 205 575 205 575 210 578.5 c 128,-1,99
 215 582 215 582 218 582 c 2,100,-1
 251 582 l 2,15,16
EndSplineSet
Validated: 1
EndChar

StartChar: wayside_cross
Encoding: 57391 57391 78
Width: 448
VWidth: 828
Flags: W
HStem: 1 21G<89.5 366> 406 83<8.25098 181.749 274.251 439.749>
VStem: 190 76<157 397.234 496.736 643.749>
LayerCount: 2
Fore
SplineSet
238 652 m 2,0,1
 261 652 261 652 266 624 c 1,2,-1
 266 517 l 2,3,4
 266 504 266 504 274 496.5 c 128,-1,5
 282 489 282 489 294 489 c 2,6,-1
 420 489 l 2,7,8
 432 489 432 489 440 480.5 c 128,-1,9
 448 472 448 472 448 460 c 2,10,-1
 448 433 l 2,11,12
 448 421 448 421 439 413.5 c 128,-1,13
 430 406 430 406 420 406 c 2,14,-1
 294 406 l 2,15,16
 282 406 282 406 273 397.5 c 128,-1,17
 264 389 264 389 266 378 c 1,18,-1
 266 157 l 1,19,-1
 378 26 l 1,20,21
 382 16 382 16 377 8.5 c 128,-1,22
 372 1 372 1 360 1 c 2,23,-1
 96 1 l 2,24,25
 83 1 83 1 78.5 8 c 128,-1,26
 74 15 74 15 80 26 c 1,27,-1
 190 157 l 1,28,-1
 190 378 l 2,29,30
 190 391 190 391 182 398 c 128,-1,31
 174 405 174 405 162 406 c 1,32,-1
 28 406 l 2,33,34
 16 406 16 406 8 414 c 128,-1,35
 0 422 0 422 0 433 c 2,36,-1
 0 460 l 2,37,38
 0 473 0 473 9 481 c 128,-1,39
 18 489 18 489 28 489 c 2,40,-1
 162 489 l 2,41,42
 174 489 174 489 182 496.5 c 128,-1,43
 190 504 190 504 190 517 c 2,44,-1
 190 624 l 2,45,46
 190 636 190 636 198 644 c 128,-1,47
 206 652 206 652 220 652 c 2,48,-1
 238 652 l 2,0,1
EndSplineSet
Validated: 1
EndChar

StartChar: theatre
Encoding: 57392 57392 79
Width: 689
VWidth: 828
Flags: W
HStem: -21 89<391.375 506.924> 125 117<379.467 509.414> 195 114<156.046 231> 295 99<513.344 608.586> 498 83<80.7645 177.859>
VStem: 0 62<418 480.199>
LayerCount: 2
Fore
SplineSet
340 176 m 1,0,-1
 350 152 l 2,1,2
 360 128 360 128 382 100.5 c 128,-1,3
 404 73 404 73 426 70 c 0,4,5
 434 68 434 68 445 68 c 128,-1,6
 456 68 456 68 471.5 73 c 128,-1,7
 487 78 487 78 501 86 c 0,8,9
 516 94 516 94 530 108 c 128,-1,10
 544 122 544 122 548 126 c 2,11,-1
 556 133 l 1,12,-1
 540 130 l 2,13,14
 519 126 519 126 495 125 c 0,15,16
 399 126 399 126 340 176 c 1,0,-1
590.5 285.5 m 128,-1,18
 574 295 574 295 566 295 c 2,19,-1
 557 295 l 1,20,21
 542 294 542 294 522.5 280 c 128,-1,22
 503 266 503 266 493 250 c 1,23,-1
 502 238 l 2,24,25
 511 226 511 226 526.5 217.5 c 128,-1,26
 542 209 542 209 551 208 c 1,27,-1
 561 209 l 1,28,29
 578 209 578 209 597.5 224.5 c 128,-1,30
 617 240 617 240 626 255 c 1,31,-1
 617 264 l 1,32,17
 607 276 607 276 590.5 285.5 c 128,-1,18
425 302 m 0,33,34
 395 353 395 353 321 313 c 1,35,-1
 323 299 l 1,36,37
 328 286 328 286 338 270 c 0,38,39
 356 242 356 242 385 242 c 0,40,41
 408 244 408 244 442 259 c 1,42,-1
 438 273 l 1,43,44
 436 285 436 285 425 302 c 0,33,34
322 473 m 0,45,46
 334 487 334 487 341.5 486.5 c 128,-1,47
 349 486 349 486 356.5 485 c 128,-1,48
 364 484 364 484 384 464.5 c 128,-1,49
 404 445 404 445 415.5 435.5 c 128,-1,50
 427 426 427 426 455.5 412 c 128,-1,51
 484 398 484 398 528 394 c 1,52,-1
 537 394 l 1,53,54
 567 391 567 391 622 418 c 0,55,56
 643 428 643 428 651 428 c 2,57,-1
 660 428 l 1,58,59
 690 421 690 421 689 348 c 0,60,61
 689 309 689 309 679 258 c 0,62,63
 659 163 659 163 616.5 97.5 c 128,-1,64
 574 32 574 32 520 2 c 0,65,66
 478 -22 478 -22 438 -22 c 0,67,68
 426 -22 426 -22 417 -21 c 1,69,-1
 416 -21 l 1,70,71
 365 -9 365 -9 328 38 c 0,72,73
 266 117 266 117 266 248 c 0,74,75
 266 289 266 289 272 336 c 0,76,77
 286 431 286 431 322 473 c 0,45,46
150 494 m 1,78,79
 138 498 138 498 124 498 c 0,80,81
 90 498 90 498 72 461 c 0,82,83
 61 438 61 438 62 418 c 1,84,-1
 75 413 l 1,85,86
 92 408 92 408 109 408 c 128,-1,87
 126 408 126 408 140.5 415.5 c 128,-1,88
 155 423 155 423 164 442.5 c 128,-1,89
 173 462 173 462 174.5 471.5 c 128,-1,90
 176 481 176 481 178 487 c 1,91,-1
 169 490 l 1,92,-1
 150 494 l 1,78,79
387 500 m 1,93,94
 355 532 355 532 332.5 532 c 128,-1,95
 310 532 310 532 295 517 c 1,96,97
 282 523 282 523 256 512.5 c 128,-1,98
 230 502 230 502 219 493 c 1,99,-1
 222 483 l 1,100,101
 236 454 236 454 256 440 c 1,102,103
 244 407 244 407 238 368 c 1,104,105
 194 378 194 378 155 330 c 0,106,107
 129 298 129 298 123.5 283.5 c 128,-1,108
 118 269 118 269 116 266 c 1,109,-1
 130 275 l 2,110,111
 143 283 143 283 175 295.5 c 128,-1,112
 207 308 207 308 231 309 c 1,113,114
 229 288 229 288 229 259 c 128,-1,115
 229 230 229 230 235 195 c 1,116,-1
 229 195 l 2,117,118
 189 195 189 195 145 224 c 128,-1,119
 101 253 101 253 63 316.5 c 128,-1,120
 25 380 25 380 13 448 c 128,-1,121
 1 516 1 516 0 551 c 0,122,123
 0 621 0 621 23 621 c 0,124,125
 28 621 28 621 50.5 611 c 128,-1,126
 73 601 73 601 98 591 c 128,-1,127
 123 581 123 581 145 581 c 0,128,129
 204 581 204 581 237.5 598 c 128,-1,130
 271 615 271 615 285 629.5 c 128,-1,131
 299 644 299 644 312 654 c 0,132,133
 335 672 335 672 342 657 c 0,134,135
 379 608 379 608 387 500 c 1,93,94
EndSplineSet
Validated: 1
EndChar

StartChar: train
Encoding: 57393 57393 80
Width: 483
VWidth: 828
Flags: W
HStem: -2 139<69.0625 141.874 342.126 412.219> 158 36<76.9324 140.068 342.932 407.259> 270 41<82.3448 134.655 348.345 409.257> 452 55<157.031 206.687 275.313 325.989> 562 40<160.551 322.348>
VStem: 14 57<197.246 258.655> 14 38<324.312 438.595> 219 45<324.312 438.595> 414 55<198.492 265.703> 432 37<317.109 446.875>
LayerCount: 2
Fore
SplineSet
93 137 m 2,0,-1
 150 137 l 2,1,2
 160 137 160 137 159 125 c 2,3,-1
 142 10 l 1,4,5
 138 -2 138 -2 128 -2 c 2,6,-1
 7 -2 l 2,7,8
 -3 -2 -3 -2 2 8 c 1,9,-1
 76 127 l 2,10,11
 83 137 83 137 93 137 c 2,0,-1
324 125 m 1,12,13
 324 136 324 136 333 137 c 1,14,-1
 389 137 l 2,15,16
 399 137 399 137 405 127 c 2,17,-1
 482 8 l 1,18,19
 486 -2 486 -2 476 -2 c 2,20,-1
 355 -2 l 2,21,22
 346 -2 346 -2 342 10 c 1,23,-1
 324 125 l 1,12,13
374 270 m 128,-1,25
 359 270 359 270 348 259 c 128,-1,26
 337 248 337 248 337 232.5 c 128,-1,27
 337 217 337 217 348 205.5 c 128,-1,28
 359 194 359 194 374 194 c 128,-1,29
 389 194 389 194 401.5 205.5 c 128,-1,30
 414 217 414 217 414 232.5 c 128,-1,31
 414 248 414 248 401.5 259 c 128,-1,24
 389 270 389 270 374 270 c 128,-1,25
108.5 270 m 128,-1,33
 93 270 93 270 82 259 c 128,-1,34
 71 248 71 248 71 232.5 c 128,-1,35
 71 217 71 217 82 205.5 c 128,-1,36
 93 194 93 194 108.5 194 c 128,-1,37
 124 194 124 194 135 205.5 c 128,-1,38
 146 217 146 217 146 232.5 c 128,-1,39
 146 248 146 248 135 259 c 128,-1,32
 124 270 124 270 108.5 270 c 128,-1,33
297 452 m 2,40,41
 285 452 285 452 275 447 c 1,42,-1
 269 439 l 1,43,44
 265 426 265 426 264 418 c 1,45,-1
 264 344 l 2,46,47
 264 330 264 330 275 317 c 1,48,49
 286 312 286 312 297 311 c 1,50,-1
 399 311 l 1,51,52
 412 312 412 312 421 317 c 1,53,54
 432 332 432 332 432 344 c 2,55,-1
 432 418 l 2,56,57
 432 429 432 429 421 447 c 1,58,59
 410 451 410 451 399 452 c 1,60,-1
 297 452 l 2,40,41
83 452 m 2,61,62
 73 452 73 452 63 447 c 1,63,-1
 57 439 l 1,64,65
 53 426 53 426 52 418 c 1,66,-1
 52 344 l 2,67,68
 52 334 52 334 57 324 c 1,69,-1
 63 317 l 1,70,71
 74 312 74 312 83 311 c 1,72,-1
 186 311 l 1,73,74
 198 312 198 312 207 317 c 1,75,-1
 215 324 l 1,76,77
 219 334 219 334 219 344 c 2,78,-1
 219 418 l 2,79,80
 219 430 219 430 215 439 c 1,81,-1
 207 447 l 1,82,83
 197 451 197 451 186 452 c 1,84,-1
 83 452 l 2,61,62
242 562 m 128,-1,86
 206 562 206 562 181 553 c 128,-1,87
 156 544 156 544 156 533.5 c 128,-1,88
 156 523 156 523 181 515 c 128,-1,89
 206 507 206 507 242 507 c 128,-1,90
 278 507 278 507 302.5 515 c 128,-1,91
 327 523 327 523 327 533.5 c 128,-1,92
 327 544 327 544 302.5 553 c 128,-1,85
 278 562 278 562 242 562 c 128,-1,86
24 158 m 2,93,94
 14 158 14 158 14 169 c 2,95,-1
 14 464 l 2,96,97
 14 476 14 476 20 482 c 2,98,-1
 41 504 l 2,99,100
 62 527 62 527 93 554 c 128,-1,101
 124 581 124 581 151.5 591.5 c 128,-1,102
 179 602 179 602 242 602 c 128,-1,103
 305 602 305 602 340 588 c 0,104,105
 370 578 370 578 463 482 c 0,106,107
 469 476 469 476 469 464 c 2,108,-1
 469 169 l 2,109,110
 469 165 469 165 466 161.5 c 128,-1,111
 463 158 463 158 459 158 c 2,112,-1
 24 158 l 2,93,94
EndSplineSet
Validated: 1
EndChar

StartChar: viewpoint
Encoding: 57394 57394 81
Width: 585
VWidth: 828
Flags: W
HStem: 499 77<104 229 356 480>
VStem: 0 176<-0.383301 198.812> 104 125<499 576> 263 63<262 462> 356 124<499 576> 407 178<-0.820312 197.404>
LayerCount: 2
Fore
SplineSet
356 462 m 1,0,-1
 506 462 l 1,1,-1
 585 171 l 1,2,-1
 585 14 l 2,3,4
 585 5 585 5 559 -2 c 128,-1,5
 533 -9 533 -9 497 -9 c 128,-1,6
 461 -9 461 -9 434.5 -2.5 c 128,-1,7
 408 4 408 4 408 14 c 1,8,-1
 407 14 l 1,9,-1
 407 238 l 1,10,-1
 356 238 l 1,11,-1
 356 462 l 1,0,-1
263 462 m 1,12,-1
 326 462 l 1,13,-1
 326 262 l 1,14,-1
 263 262 l 1,15,-1
 263 462 l 1,12,-1
75 462 m 1,16,-1
 229 462 l 1,17,-1
 229 238 l 1,18,-1
 176 238 l 1,19,-1
 176 14 l 1,20,21
 173 5 173 5 148.5 -2 c 128,-1,22
 124 -9 124 -9 88 -9 c 128,-1,23
 52 -9 52 -9 27 -2.5 c 128,-1,24
 2 4 2 4 0 14 c 1,25,-1
 0 171 l 1,26,-1
 75 462 l 1,16,-1
356 576 m 1,27,-1
 480 576 l 1,28,-1
 480 499 l 1,29,-1
 356 499 l 1,30,-1
 356 576 l 1,27,-1
104 576 m 1,31,-1
 229 576 l 1,32,-1
 229 499 l 1,33,-1
 104 499 l 1,34,-1
 104 576 l 1,31,-1
EndSplineSet
Validated: 1
EndChar

StartChar: tram
Encoding: 57395 57395 82
Width: 305
VWidth: 828
Flags: W
HStem: -4 77<56 90 216 248> 97 42<123.407 182.655> 225 46<123.407 182.655> 467 40<102.689 205.187> 538 35<13.6722 42 82 224 262 292.328>
VStem: 0 110<151.892 212.108> 0 36<271 406.492> 194 111<151.892 212.108> 266 39<271 418.179>
LayerCount: 2
Fore
SplineSet
204 73 m 1,0,-1
 248 73 l 1,1,-1
 298 -4 l 1,2,-1
 216 -4 l 1,3,-1
 204 73 l 1,0,-1
56 73 m 1,4,-1
 102 73 l 1,5,-1
 90 -4 l 1,6,-1
 6 -4 l 1,7,-1
 56 73 l 1,4,-1
154 225 m 128,-1,9
 136 225 136 225 123 212.5 c 128,-1,10
 110 200 110 200 110 182 c 128,-1,11
 110 164 110 164 123 151.5 c 128,-1,12
 136 139 136 139 154 139 c 128,-1,13
 172 139 172 139 183 151.5 c 128,-1,14
 194 164 194 164 194 182 c 128,-1,15
 194 200 194 200 183 212.5 c 128,-1,8
 172 225 172 225 154 225 c 128,-1,9
152 467 m 0,16,17
 128 468 128 468 109 460 c 0,18,19
 72 445 72 445 58 415 c 0,20,21
 36 379 36 379 36 342 c 2,22,-1
 36 271 l 1,23,-1
 266 271 l 1,24,-1
 266 341 l 2,25,26
 266 379 266 379 254 404 c 128,-1,27
 242 429 242 429 229 440.5 c 128,-1,28
 216 452 216 452 196 459.5 c 128,-1,29
 176 467 176 467 152 467 c 0,16,17
102 501 m 1,30,31
 154 515 154 515 206 501 c 1,32,-1
 224 538 l 1,33,-1
 82 538 l 1,34,-1
 102 501 l 1,30,31
26 573 m 2,35,-1
 280 573 l 2,36,37
 287 573 287 573 292.5 568 c 128,-1,38
 298 563 298 563 298 555.5 c 128,-1,39
 298 548 298 548 293 543 c 128,-1,40
 288 538 288 538 280 538 c 2,41,-1
 262 538 l 1,42,-1
 236 486 l 1,43,44
 278 459 278 459 291 414 c 128,-1,45
 304 369 304 369 303 345 c 1,46,-1
 305 333 l 1,47,-1
 305 97 l 1,48,-1
 0 97 l 1,49,-1
 0 345 l 2,50,51
 0 367 0 367 10 399 c 0,52,53
 28 460 28 460 70 487 c 1,54,-1
 42 538 l 1,55,-1
 26 538 l 2,56,57
 19 538 19 538 13.5 543 c 128,-1,58
 8 548 8 548 8 555.5 c 128,-1,59
 8 563 8 563 13.5 568 c 128,-1,60
 19 573 19 573 26 573 c 2,35,-1
EndSplineSet
Validated: 1
EndChar

StartChar: tree_cinofer
Encoding: 57396 57396 83
Width: 536
VWidth: 828
Flags: W
HStem: -23 44<234.47 313.251> 87 143<333.938 431.875> 312 128<227.065 317.432> 312 108<236.589 313.75>
LayerCount: 2
Fore
SplineSet
276 420 m 2,0,1
 288 420 288 420 297 430 c 128,-1,2
 306 440 306 440 314 440 c 128,-1,3
 322 440 322 440 341 425 c 128,-1,4
 360 410 360 410 380 380.5 c 128,-1,5
 400 351 400 351 417 325.5 c 128,-1,6
 434 300 434 300 442 293 c 1,7,8
 415 263 415 263 383.5 262.5 c 128,-1,9
 352 262 352 262 321 287 c 128,-1,10
 290 312 290 312 268 312 c 0,11,12
 236 312 236 312 216 274 c 0,13,14
 204 252 204 252 181.5 252 c 128,-1,15
 159 252 159 252 138.5 267 c 128,-1,16
 118 282 118 282 96 282 c 0,17,18
 94 282 94 282 92 282 c 1,19,20
 102 293 102 293 133 336.5 c 128,-1,21
 164 380 164 380 190 401.5 c 128,-1,22
 216 423 216 423 221 435 c 128,-1,23
 226 447 226 447 228 449 c 1,24,-1
 228 448 l 1,25,26
 231 448 231 448 245.5 434 c 128,-1,27
 260 420 260 420 274 420 c 2,28,-1
 276 420 l 2,0,1
234 25 m 1,29,30
 249 21 249 21 269.5 21 c 128,-1,31
 290 21 290 21 314 32 c 1,32,-1
 326 -24 l 1,33,-1
 226 -23 l 1,34,35
 230 -2 230 -2 234 25 c 1,29,30
270 281 m 128,-1,37
 290 281 290 281 321 256 c 128,-1,38
 352 231 352 231 382.5 230.5 c 128,-1,39
 413 230 413 230 432 244 c 1,40,-1
 536 68 l 1,41,-1
 522 62 l 1,42,43
 470 41 470 41 432 74 c 0,44,45
 393 104 393 104 334 65 c 0,46,47
 266 19 266 19 188 65 c 0,48,49
 122 102 122 102 34 78 c 1,50,-1
 0 70 l 1,51,-1
 126 243 l 1,52,-1
 138 236 l 1,53,54
 160 218 160 218 182 220 c 0,55,56
 215 220 215 220 232.5 250.5 c 128,-1,36
 250 281 250 281 270 281 c 128,-1,37
274 446 m 1,57,58
 270 447 270 447 257 460 c 128,-1,59
 244 473 244 473 238 474 c 128,-1,60
 232 475 232 475 226 475 c 0,61,62
 213 475 213 475 204 449 c 0,63,64
 192 422 192 422 166 418 c 0,65,66
 164 416 164 416 162 418 c 0,67,68
 154 418 154 418 134 443 c 1,69,70
 162 457 162 457 216 553 c 0,71,72
 238 594 238 594 258 651 c 1,73,74
 292 562 292 562 356 490 c 0,75,76
 370 476 370 476 378 466 c 1,77,-1
 384 461 l 1,78,79
 378 449 378 449 358 448.5 c 128,-1,80
 338 448 338 448 306 471 c 0,81,82
 303 473 303 473 300.5 472.5 c 128,-1,83
 298 472 298 472 293 459.5 c 128,-1,84
 288 447 288 447 282 446 c 1,85,-1
 274 446 l 1,57,58
EndSplineSet
Validated: 1
EndChar

StartChar: university
Encoding: 57397 57397 84
Width: 730
VWidth: 828
Flags: W
VStem: 5 58<-6.48364 274> 16 37<64.3188 277.78>
LayerCount: 2
Fore
SplineSet
63 64 m 1,0,-1
 63 51 l 1,1,2
 58 45 58 45 61.5 34.5 c 128,-1,3
 65 24 65 24 65 19.5 c 128,-1,4
 65 15 65 15 50 1 c 128,-1,5
 35 -13 35 -13 21.5 -13.5 c 128,-1,6
 8 -14 8 -14 3 2 c 128,-1,7
 -2 18 -2 18 4.5 32 c 128,-1,8
 11 46 11 46 5 52 c 1,9,-1
 5 64 l 1,10,11
 16 74 16 74 16 110 c 2,12,-1
 16 257 l 2,13,14
 16 271 16 271 21 278 c 128,-1,15
 26 285 26 285 33.5 280.5 c 128,-1,16
 41 276 41 276 47 263.5 c 128,-1,17
 53 251 53 251 53 236 c 2,18,-1
 53 110 l 2,19,20
 53 74 53 74 63 64 c 1,0,-1
424 110 m 2,21,-1
 576 197 l 2,22,23
 583 201 583 201 593 181.5 c 128,-1,24
 603 162 603 162 610.5 137.5 c 128,-1,25
 618 113 618 113 617.5 101.5 c 128,-1,26
 617 90 617 90 609.5 75 c 128,-1,27
 602 60 602 60 592 53 c 1,28,-1
 401 -30 l 2,29,30
 388 -36 388 -36 368 -36.5 c 128,-1,31
 348 -37 348 -37 338 -30 c 1,32,-1
 147 52 l 1,33,34
 137 60 137 60 129.5 74 c 128,-1,35
 122 88 122 88 122 95 c 2,36,-1
 122 105 l 1,37,-1
 128 181 l 2,38,39
 130 195 130 195 140 199 c 128,-1,40
 150 203 150 203 162 197 c 2,41,-1
 313 110 l 2,42,43
 350 88 350 88 360 82 c 128,-1,44
 370 76 370 76 383 85 c 128,-1,45
 396 94 396 94 424 110 c 2,21,-1
26 340 m 2,46,47
 13 347 13 347 14.5 356 c 128,-1,48
 16 365 16 365 28 369 c 2,49,-1
 347 476 l 2,50,51
 360 480 360 480 370 482 c 1,52,-1
 382 482 l 2,53,54
 399 482 399 482 412 476 c 1,55,-1
 716 369 l 2,56,57
 730 365 730 365 730 355.5 c 128,-1,58
 730 346 730 346 719 339 c 2,59,-1
 403 155 l 2,60,61
 391 148 391 148 382 148 c 2,62,-1
 372 148 l 2,63,64
 355 148 355 148 341 155 c 1,65,-1
 26 340 l 2,46,47
EndSplineSet
Validated: 1
EndChar

StartChar: tram_stop
Encoding: 57398 57398 85
Width: 420
VWidth: 828
Flags: W
HStem: 1 30<2.05444 108 175 286.843> 153 50<245 301> 454 62<175.063 374.34>
VStem: 74 133<551.207 641.434> 108 137<203 410> 108 67<31 153 410 454 515 560.206> 301 119<203.035 410> 375 45<410 453.346>
LayerCount: 2
Fore
SplineSet
375 410 m 1,0,-1
 375 454 l 1,1,-1
 175 454 l 1,2,-1
 175 410 l 1,3,-1
 245 410 l 1,4,-1
 245 203 l 1,5,-1
 301 203 l 1,6,-1
 301 410 l 1,7,-1
 375 410 l 1,0,-1
349 516 m 2,8,9
 379 516 379 516 400 496.5 c 128,-1,10
 421 477 421 477 420 450 c 1,11,-1
 420 220 l 2,12,13
 420 193 420 193 400 173 c 128,-1,14
 380 153 380 153 349 153 c 2,15,-1
 175 153 l 1,16,-1
 175 31 l 1,17,-1
 274 31 l 2,18,19
 282 31 282 31 287 26.5 c 128,-1,20
 292 22 292 22 292 16 c 128,-1,21
 292 10 292 10 286.5 5.5 c 128,-1,22
 281 1 281 1 274 1 c 2,23,-1
 16 1 l 2,24,25
 11 1 11 1 5.5 5.5 c 128,-1,26
 0 10 0 10 0 16 c 0,27,28
 -2 22 -2 22 4 26 c 0,29,30
 10 30 10 30 16 31 c 1,31,-1
 108 31 l 1,32,-1
 108 544 l 1,33,34
 74 561 74 561 74 592.5 c 128,-1,35
 74 624 74 624 93.5 642 c 128,-1,36
 113 660 113 660 140 660 c 128,-1,37
 167 660 167 660 187 643 c 0,38,39
 207 626 207 626 207 594 c 0,40,41
 207 562 207 562 175 544 c 1,42,-1
 175 515 l 1,43,44
 177 516 177 516 180 516 c 2,45,-1
 349 516 l 2,8,9
EndSplineSet
Validated: 1
EndChar

StartChar: underground
Encoding: 57399 57399 86
Width: 664
VWidth: 828
Flags: W
HStem: -4 118<194 242 428 478> 137 47<181.282 227.687 447.282 499.741> 250 53<181.282 227.687 439.485 499.895> 491 41<239.498 434.23> 580 78<201.195 465.819>
VStem: 0 80<45 470.137> 118 53<193.282 238.202 303 432.505> 500 52<187.485 248.432 303 432.25> 586 78<45 472.648>
LayerCount: 2
Fore
SplineSet
410 114 m 1,0,-1
 478 114 l 1,1,-1
 552 -4 l 1,2,-1
 428 -4 l 1,3,-1
 410 114 l 1,0,-1
194 114 m 1,4,-1
 260 114 l 1,5,-1
 242 -4 l 1,6,-1
 118 -4 l 1,7,-1
 194 114 l 1,4,-1
204 248 m 128,-1,9
 190 248 190 248 181 238.5 c 128,-1,10
 172 229 172 229 172 215.5 c 128,-1,11
 172 202 172 202 181 193 c 128,-1,12
 190 184 190 184 204 184 c 128,-1,13
 218 184 218 184 228 193 c 128,-1,14
 238 202 238 202 238 215.5 c 128,-1,15
 238 229 238 229 228 238.5 c 128,-1,8
 218 248 218 248 204 248 c 128,-1,9
468 250 m 128,-1,17
 456 250 456 250 447 240.5 c 128,-1,18
 438 231 438 231 438 217.5 c 128,-1,19
 438 204 438 204 447 195 c 128,-1,20
 456 186 456 186 468 186 c 128,-1,21
 480 186 480 186 491 195 c 128,-1,22
 502 204 502 204 502 217.5 c 128,-1,23
 502 231 502 231 491 240.5 c 128,-1,16
 480 250 480 250 468 250 c 128,-1,17
336 491 m 0,24,25
 257 491 257 491 213.5 454.5 c 128,-1,26
 170 418 170 418 171 363 c 1,27,-1
 171 303 l 1,28,-1
 500 303 l 1,29,-1
 500 377 l 1,30,31
 496 410 496 410 468 446 c 0,32,33
 454 464 454 464 418.5 477.5 c 128,-1,34
 383 491 383 491 336 491 c 0,24,25
514 465 m 0,35,36
 540 434 540 434 548 396 c 0,37,38
 552 379 552 379 552 373 c 2,39,-1
 552 137 l 1,40,-1
 118 137 l 1,41,-1
 118 373 l 1,42,43
 130 435 130 435 156 465 c 0,44,45
 212 532 212 532 333 532 c 128,-1,46
 454 532 454 532 514 465 c 0,35,36
336 658 m 128,-1,48
 508 658 508 658 594 566 c 0,49,50
 652 508 652 508 662 410 c 0,51,52
 664 395 664 395 664 385 c 2,53,-1
 664 45 l 1,54,-1
 586 45 l 1,55,-1
 586 388 l 1,56,57
 590 405 590 405 576 447 c 0,58,59
 528 579 528 579 338 580 c 1,60,-1
 336 580 l 2,61,62
 146 580 146 580 94 455 c 0,63,64
 80 422 80 422 80 408 c 2,65,-1
 80 45 l 1,66,-1
 0 45 l 1,67,-1
 0 386 l 2,68,69
 0 444 0 444 32 508 c 0,70,71
 48 540 48 540 74 566 c 0,72,47
 164 658 164 658 336 658 c 128,-1,48
EndSplineSet
Validated: 1
EndChar

StartChar: adit
Encoding: 57400 57400 87
Width: 697
VWidth: 828
Flags: W
HStem: 176 150<319.625 384.625>
LayerCount: 2
Fore
SplineSet
500 334 m 2,0,-1
 437 270 l 2,1,2
 429 262 429 262 428.5 249.5 c 128,-1,3
 428 237 428 237 437 229 c 2,4,-1
 606 60 l 2,5,6
 615 51 615 51 615 39 c 128,-1,7
 615 27 615 27 606 17 c 2,8,-1
 586 -3 l 2,9,10
 578 -11 578 -11 566 -11.5 c 128,-1,11
 554 -12 554 -12 544 -3 c 2,12,-1
 374 166 l 2,13,14
 366 175 366 175 353 175.5 c 128,-1,15
 340 176 340 176 332 166 c 1,16,-1
 173 6 l 2,17,18
 165 -3 165 -3 152.5 -3 c 128,-1,19
 140 -3 140 -3 130 6 c 1,20,-1
 110 27 l 2,21,22
 101 36 101 36 100.5 48 c 128,-1,23
 100 60 100 60 110 70 c 2,24,-1
 269 229 l 2,25,26
 277 237 277 237 277.5 249.5 c 128,-1,27
 278 262 278 262 269 270 c 2,28,-1
 202 338 l 2,29,30
 193 346 193 346 181 346.5 c 128,-1,31
 169 347 169 347 160 338 c 2,32,-1
 140 318 l 2,33,34
 132 310 132 310 117 303 c 128,-1,35
 102 296 102 296 89 296 c 2,36,-1
 28 296 l 2,37,38
 15 296 15 296 7.5 304.5 c 128,-1,39
 0 313 0 313 0 326 c 2,40,-1
 2 391 l 1,41,42
 4 420 4 420 24 440 c 0,43,44
 103 519 103 519 183 600 c 0,45,46
 192 609 192 609 204 608.5 c 128,-1,47
 216 608 216 608 224 600 c 2,48,-1
 302 523 l 2,49,50
 311 514 311 514 311.5 502 c 128,-1,51
 312 490 312 490 302 481 c 2,52,-1
 266 444 l 2,53,54
 257 435 257 435 256.5 422.5 c 128,-1,55
 256 410 256 410 266 400 c 2,56,-1
 332 334 l 2,57,58
 340 326 340 326 353.5 326 c 128,-1,59
 367 326 367 326 374 334 c 2,60,-1
 437 397 l 2,61,62
 445 405 445 405 445.5 417.5 c 128,-1,63
 446 430 446 430 437 437 c 1,64,-1
 395 481 l 2,65,66
 386 490 386 490 386 501 c 128,-1,67
 386 512 386 512 395 523 c 1,68,-1
 472 600 l 2,69,70
 481 609 481 609 493 608.5 c 128,-1,71
 505 608 505 608 515 600 c 1,72,-1
 552 564 l 2,73,74
 556 560 556 560 562.5 552 c 128,-1,75
 569 544 569 544 597 518 c 1,76,-1
 673 440 l 1,77,78
 695 411 695 411 697 391 c 1,79,-1
 697 326 l 1,80,81
 698 313 698 313 689.5 304.5 c 128,-1,82
 681 296 681 296 670 296 c 2,83,-1
 608 296 l 2,84,85
 595 296 595 296 580.5 303 c 128,-1,86
 566 310 566 310 559 318 c 1,87,-1
 541 334 l 2,88,89
 533 342 533 342 520.5 342 c 128,-1,90
 508 342 508 342 500 334 c 2,0,-1
EndSplineSet
Validated: 1
EndChar

StartChar: post_office
Encoding: 57401 57401 88
Width: 724
VWidth: 828
Flags: W
HStem: 2 197<212.656 290.781 434.562 505.062> 2 120<326.52 399.48>
VStem: 531 193<214.188 282.938>
LayerCount: 2
Fore
SplineSet
699 412 m 2,0,1
 709 421 709 421 716.5 417.5 c 128,-1,2
 724 414 724 414 724 399 c 2,3,-1
 724 74 l 2,4,5
 724 61 724 61 717 57 c 128,-1,6
 710 53 710 53 701 63 c 2,7,-1
 540 227 l 2,8,9
 531 237 531 237 531 249.5 c 128,-1,10
 531 262 531 262 540 272 c 1,11,-1
 699 412 l 2,0,1
182 273 m 2,12,13
 192 265 192 265 191.5 251.5 c 128,-1,14
 191 238 191 238 182 229 c 2,15,-1
 26 67 l 2,16,17
 16 57 16 57 8 60 c 128,-1,18
 0 63 0 63 0 78 c 2,19,-1
 0 399 l 2,20,21
 0 413 0 413 8 417.5 c 128,-1,22
 16 422 16 422 26 412 c 2,23,-1
 182 273 l 2,12,13
76 453 m 2,24,25
 66 462 66 462 67.5 468 c 128,-1,26
 69 474 69 474 83 474 c 2,27,-1
 643 474 l 2,28,29
 671 474 671 474 648 453 c 2,30,-1
 386 219 l 2,31,32
 376 210 376 210 362 209.5 c 128,-1,33
 348 209 348 209 339 219 c 1,34,-1
 76 453 l 2,24,25
357 122 m 1,35,-1
 369 122 l 1,36,37
 382 129 382 129 407 151 c 2,38,-1
 449 190 l 2,39,40
 459 198 459 198 472.5 197.5 c 128,-1,41
 486 197 486 197 495 188 c 2,42,-1
 656 25 l 2,43,44
 665 15 665 15 663 8.5 c 128,-1,45
 661 2 661 2 647 2 c 2,46,-1
 74 2 l 2,47,48
 61 2 61 2 58.5 8.5 c 128,-1,49
 56 15 56 15 67 25 c 1,50,-1
 225 190 l 1,51,52
 236 199 236 199 250.5 199 c 128,-1,53
 265 199 265 199 276 190 c 2,54,-1
 319 151 l 2,55,56
 344 128 344 128 357 122 c 1,35,-1
EndSplineSet
Validated: 1
EndChar

StartChar: spring
Encoding: 57402 57402 89
Width: 445
VWidth: 828
Flags: W
HStem: -58 96<162.884 293.704> 84 73<123.313 197.953> 167 73<248.667 323.61>
LayerCount: 2
Fore
SplineSet
123 87 m 1,0,1
 180 42 180 42 223 38 c 1,2,3
 269 38 269 38 304 68 c 128,-1,4
 339 98 339 98 345 144 c 1,5,6
 324 168 324 168 304 167 c 0,7,8
 270 167 270 167 223.5 125.5 c 128,-1,9
 177 84 177 84 144 84 c 0,10,11
 133 83 133 83 123 87 c 1,0,1
324 236 m 1,12,13
 284 287 284 287 223 286 c 0,14,15
 177 286 177 286 142.5 256 c 128,-1,16
 108 226 108 226 100 181 c 1,17,18
 122 158 122 158 148 158 c 0,19,20
 174 158 174 158 220 195 c 0,21,22
 266 233 266 233 279.5 236.5 c 128,-1,23
 293 240 293 240 303 240 c 128,-1,24
 313 240 313 240 324 236 c 1,12,13
223 660 m 1,25,26
 282 509 282 509 351 391 c 0,27,28
 377 347 377 347 400 307 c 0,29,30
 446 225 446 225 445 164 c 0,31,32
 445 71 445 71 380 6.5 c 128,-1,33
 315 -58 315 -58 223.5 -58 c 128,-1,34
 132 -58 132 -58 66 6.5 c 128,-1,35
 0 71 0 71 0 164 c 0,36,37
 1 220 1 220 53 308 c 0,38,39
 77 348 77 348 103 392 c 0,40,41
 178 519 178 519 223 660 c 1,25,26
EndSplineSet
Validated: 1
EndChar

StartChar: stadium
Encoding: 57403 57403 90
Width: 744
VWidth: 828
Flags: W
HStem: -30 83<298.704 424.812> 104 70<265.672 457.96> 194 31<169.742 554.141> 314 79<138.251 338 360 584.422> 455 22<706.291 724.907>
VStem: 18 20<337 409.906> 292 139<-23.2963 46.8118> 336 24<393 521.611> 626 22<361 412.166>
LayerCount: 2
Fore
SplineSet
720 237 m 1026,0,-1
2 237 m 1,1,2
 14 212 14 212 114 193 c 128,-1,3
 214 174 214 174 362 174 c 128,-1,4
 510 174 510 174 609 193 c 128,-1,5
 708 212 708 212 720 237 c 1,6,-1
 654 61 l 1,7,-1
 652 61 l 1,8,9
 652 39 652 39 599 21.5 c 128,-1,10
 546 4 546 4 462 -4 c 1,11,-1
 462 86 l 2,12,13
 462 92 462 92 457 98 c 128,-1,14
 452 104 452 104 446 104 c 2,15,-1
 278 104 l 2,16,17
 271 104 271 104 265.5 99 c 128,-1,18
 260 94 260 94 260 86 c 2,19,-1
 260 -4 l 1,20,21
 175 3 175 3 122.5 20.5 c 128,-1,22
 70 38 70 38 70 61 c 1,23,-1
 68 61 l 1,24,-1
 2 237 l 1,1,2
431 32 m 2,25,-1
 431 -8 l 2,26,27
 431 -17 431 -17 424.5 -23.5 c 128,-1,28
 418 -30 418 -30 410 -30 c 2,29,-1
 314 -30 l 2,30,31
 305 -30 305 -30 298.5 -23.5 c 128,-1,32
 292 -17 292 -17 292 -8 c 2,33,-1
 292 32 l 2,34,35
 292 41 292 41 299 47 c 128,-1,36
 306 53 306 53 314 53 c 2,37,-1
 410 53 l 2,38,39
 419 53 419 53 425 47 c 128,-1,40
 431 41 431 41 431 32 c 2,25,-1
360 393 m 1,41,-1
 362 393 l 1,42,43
 520 394 520 394 626 361 c 1,44,-1
 626 498 l 1,45,-1
 630 497 l 1,46,-1
 630 498 l 1,47,48
 644 492 644 492 666 488 c 0,49,50
 722 479 722 479 744 455 c 1,51,52
 724 459 724 459 680 427 c 0,53,54
 660 413 660 413 648 405 c 1,55,-1
 648 353 l 1,56,57
 722 326 722 326 720 294 c 1,58,-1
 720 291 l 2,59,60
 720 254 720 254 629 226 c 128,-1,61
 538 198 538 198 400 194 c 1,62,-1
 324 194 l 1,63,64
 187 198 187 198 93.5 226 c 128,-1,65
 0 254 0 254 0 291 c 2,66,-1
 0 294 l 2,67,68
 0 308 0 308 18 321 c 1,69,-1
 18 498 l 1,70,71
 35 491 35 491 59.5 487.5 c 128,-1,72
 84 484 84 484 105 478 c 128,-1,73
 126 472 126 472 144 455 c 1,74,75
 142 456 142 456 138 456 c 0,76,77
 114 456 114 456 83 433.5 c 128,-1,78
 52 411 52 411 38 405 c 1,79,-1
 38 337 l 1,80,81
 80 360 80 360 160 376 c 128,-1,82
 240 392 240 392 338 393 c 1,83,-1
 336 503 l 1,84,-1
 336 518 l 1,85,-1
 334 603 l 2,86,87
 335 603 335 603 343.5 599.5 c 128,-1,88
 352 596 352 596 376 592.5 c 128,-1,89
 400 589 400 589 421 583 c 128,-1,90
 442 577 442 577 458 561 c 1,91,92
 456 562 456 562 454 562 c 0,93,94
 432 563 432 563 390 534 c 0,95,96
 368 520 368 520 360 511 c 1,97,-1
 360 393 l 1,41,-1
616 270 m 128,-1,99
 616 289 616 289 542 301.5 c 128,-1,100
 468 314 468 314 362 314 c 128,-1,101
 256 314 256 314 181 301.5 c 128,-1,102
 106 289 106 289 106 270 c 128,-1,103
 106 251 106 251 181 238 c 128,-1,104
 256 225 256 225 362 225 c 128,-1,105
 468 225 468 225 542 238 c 128,-1,98
 616 251 616 251 616 270 c 128,-1,99
EndSplineSet
Validated: 1
EndChar

StartChar: swimming_pool
Encoding: 57404 57404 91
Width: 612
VWidth: 828
Flags: W
HStem: -13 60<92.3013 282.21> -8 25<399.392 546.5> 59 28<391.426 530.352> 133 34<394.232 528.5> 488 81<306.957 391.719> 576 78<130.437 202.814>
VStem: 34 72<188.377 259 328.065 413 489.132 565.808> 220 72<92.924 220.165 282 374.221 436.745 469.437>
LayerCount: 2
Fore
SplineSet
348 117 m 1,0,1
 401 167 401 167 462.5 166.5 c 128,-1,2
 524 166 524 166 572 119 c 0,3,4
 580 113 580 113 588 100 c 1,5,6
 530 134 530 134 480 132.5 c 128,-1,7
 430 131 430 131 395.5 125 c 128,-1,8
 361 119 361 119 348 117 c 1,0,1
598 -26 m 1,9,10
 538 -9 538 -9 492 -8 c 1,11,-1
 474 -8 l 1,12,13
 430 -12 430 -12 389 -21 c 128,-1,14
 348 -30 348 -30 338 -32 c 1,15,16
 372 -2 372 -2 418 10.5 c 128,-1,17
 464 23 464 23 496 17 c 0,18,19
 556 8 556 8 590 -17 c 1,20,-1
 598 -26 l 1,9,10
584 37 m 0,21,22
 538 59 538 59 486 59 c 2,23,-1
 472 59 l 1,24,25
 414 56 414 56 340 29.5 c 128,-1,26
 266 3 266 3 240 -5 c 128,-1,27
 214 -13 214 -13 182 -13 c 0,28,29
 124 -13 124 -13 70 22 c 0,30,31
 28 52 28 52 0 100 c 1,32,33
 86 48 86 48 198 47 c 0,34,35
 276 47 276 47 366 73 c 0,36,37
 422 87 422 87 463 86.5 c 128,-1,38
 504 86 504 86 545 67 c 128,-1,39
 586 48 586 48 610 24 c 1,40,-1
 612 21 l 1,41,42
 584 35 584 35 584 37 c 0,21,22
220 282 m 1,43,-1
 220 355 l 2,44,45
 220 365 220 365 210 369 c 0,46,47
 170 387 170 387 106 413 c 1,48,-1
 106 341 l 2,49,50
 106 330 106 330 110 328 c 0,51,52
 134 318 134 318 220 282 c 1,43,-1
222 128 m 2,53,-1
 220 202 l 2,54,55
 220 211 220 211 216 212 c 0,56,57
 192 223 192 223 108 259 c 1,58,-1
 108 215 l 1,59,60
 107 197 107 197 95.5 186 c 128,-1,61
 84 175 84 175 72 175 c 2,62,-1
 70 175 l 1,63,64
 55 176 55 176 44.5 188 c 128,-1,65
 34 200 34 200 34 219 c 0,66,67
 31 456 31 456 31.5 515 c 128,-1,68
 32 574 32 574 65 612.5 c 128,-1,69
 98 651 98 651 148 654 c 1,70,-1
 158 654 l 2,71,72
 216 654 216 654 260 602 c 1,73,74
 280 571 280 571 259 550 c 0,75,76
 248 539 248 539 232 539 c 128,-1,77
 216 539 216 539 204 553 c 0,78,79
 187 566 187 566 177.5 571 c 128,-1,80
 168 576 168 576 156 576 c 128,-1,81
 144 576 144 576 126 565 c 128,-1,82
 108 554 108 554 105.5 523.5 c 128,-1,83
 103 493 103 493 107.5 488.5 c 128,-1,84
 112 484 112 484 130 475 c 128,-1,85
 148 466 148 466 175 456 c 0,86,87
 193 449 193 449 218 436 c 1,88,89
 222 460 222 460 222 464 c 0,90,91
 232 513 232 513 268 541 c 128,-1,92
 304 569 304 569 340 569 c 2,93,-1
 346 569 l 1,94,95
 418 563 418 563 458 501 c 1,96,97
 481 476 481 476 457 448 c 0,98,99
 446 436 446 436 430 437 c 0,100,101
 406 437 406 437 396 462 c 1,102,103
 378 488 378 488 349.5 488 c 128,-1,104
 321 488 321 488 306.5 470 c 128,-1,105
 292 452 292 452 292 430 c 2,106,-1
 296 128 l 2,107,108
 296 97 296 97 272 87 c 0,109,110
 254 79 254 79 238.5 92.5 c 128,-1,111
 223 106 223 106 222 128 c 2,53,-1
EndSplineSet
Validated: 1
EndChar

StartChar: cityhall
Encoding: 57405 57405 92
Width: 617
VWidth: 828
Flags: W
HStem: 0 57<38 88 133 182 443 494 530 580> 130 42<38 88 133 182 443 494 530 580> 142 82<260.627 356.342> 190 62<47.6875 200 416 568.312> 282 21<318 350.906> 362 61<260.627 358.923>
VStem: 0 38<57 130> 88 45<57 130> 182 76<57 129.781> 200 40<252.486 340.857> 294 28<529 578> 358 85<57 129.663> 378 38<252.486 338.904> 494 36<57 130> 580 37<57 130>
LayerCount: 2
Fore
SplineSet
580 130 m 1,0,-1
 530 130 l 1,1,-1
 530 57 l 1,2,-1
 580 57 l 1,3,-1
 580 130 l 1,0,-1
494 130 m 1,4,-1
 443 130 l 1,5,-1
 443 57 l 1,6,-1
 494 57 l 1,7,-1
 494 130 l 1,4,-1
378 292 m 128,-1,9
 378 321 378 321 357 341.5 c 128,-1,10
 336 362 336 362 308 362 c 128,-1,11
 280 362 280 362 260 341.5 c 128,-1,12
 240 321 240 321 240 292 c 128,-1,13
 240 263 240 263 260 243.5 c 128,-1,14
 280 224 280 224 308 224 c 128,-1,15
 336 224 336 224 357 243.5 c 128,-1,8
 378 263 378 263 378 292 c 128,-1,9
182 130 m 1,16,-1
 133 130 l 1,17,-1
 133 57 l 1,18,-1
 182 57 l 1,19,-1
 182 130 l 1,16,-1
88 130 m 1,20,-1
 38 130 l 1,21,-1
 38 57 l 1,22,-1
 88 57 l 1,23,-1
 88 130 l 1,20,-1
406 423 m 2,24,25
 416 423 416 423 416 412 c 2,26,-1
 416 252 l 1,27,-1
 534 252 l 2,28,29
 544 252 544 252 552 244 c 2,30,-1
 610 195 l 2,31,32
 616 189 616 189 606 190 c 1,33,-1
 416 190 l 1,34,-1
 416 172 l 1,35,-1
 606 172 l 2,36,37
 610 172 610 172 613.5 169 c 128,-1,38
 617 166 617 166 617 162 c 2,39,-1
 617 12 l 2,40,41
 617 8 617 8 613.5 4 c 128,-1,42
 610 0 610 0 606 0 c 2,43,-1
 358 0 l 1,44,-1
 358 121 l 1,45,46
 337 142 337 142 308.5 141.5 c 128,-1,47
 280 141 280 141 258 121 c 1,48,-1
 258 0 l 1,49,-1
 10 0 l 2,50,51
 0 0 0 0 0 12 c 2,52,-1
 0 162 l 2,53,54
 0 172 0 172 10 172 c 2,55,-1
 200 172 l 1,56,-1
 200 190 l 1,57,-1
 10 190 l 2,58,59
 6 190 6 190 4 192 c 128,-1,60
 2 194 2 194 6 195 c 1,61,-1
 64 244 l 2,62,63
 72 251 72 251 82 252 c 1,64,-1
 200 252 l 1,65,-1
 200 412 l 2,66,67
 200 416 200 416 204 419.5 c 128,-1,68
 208 423 208 423 212 423 c 2,69,-1
 406 423 l 2,24,25
344 303 m 2,70,71
 354 303 354 303 354 292.5 c 128,-1,72
 354 282 354 282 344 282 c 2,73,-1
 312 282 l 2,74,75
 308 282 308 282 306 284 c 2,76,-1
 266 320 l 2,77,78
 258 327 258 327 264 335 c 128,-1,79
 270 343 270 343 280 336 c 1,80,-1
 318 303 l 1,81,-1
 344 303 l 2,70,71
296 626 m 1,82,83
 308 642 308 642 318 644 c 0,84,85
 330 644 330 644 340 635 c 128,-1,86
 350 626 350 626 361 618.5 c 128,-1,87
 372 611 372 611 385 612 c 128,-1,88
 398 613 398 613 408 626 c 1,89,-1
 408 564 l 1,90,91
 398 550 398 550 386 548 c 128,-1,92
 374 546 374 546 356 560 c 128,-1,93
 338 574 338 574 322 578 c 1,94,-1
 322 529 l 1,95,-1
 430 438 l 1,96,-1
 186 438 l 1,97,-1
 294 529 l 1,98,-1
 294 626 l 1,99,-1
 296 626 l 1,82,83
EndSplineSet
Validated: 1
EndChar

StartChar: bus
Encoding: 57406 57406 93
Width: 530
VWidth: 828
Flags: W
HStem: -17 157<61.4644 123.871 407.84 478.16> 85 189<146 262 304 390> 220 54<71.704 127.77> 308 43<308.591 405.174> 399 167<65 195.957> 489 77<196 463.812>
VStem: 0 65<280.188 399> 0 54<151.861 207.624> 38 108<-2.56128 85> 390 106<-2.56128 85> 470 60<275.033 482.297> 482 48<144.054 215.77>
LayerCount: 2
Fore
SplineSet
54 179.5 m 128,-1,1
 54 163 54 163 65 151.5 c 128,-1,2
 76 140 76 140 92 140 c 128,-1,3
 108 140 108 140 120 151.5 c 128,-1,4
 132 163 132 163 132 179.5 c 128,-1,5
 132 196 132 196 120 208 c 128,-1,6
 108 220 108 220 92 220 c 128,-1,7
 76 220 76 220 65 208 c 128,-1,0
 54 196 54 196 54 179.5 c 128,-1,1
470 468 m 2,8,9
 470 476 470 476 464 482.5 c 128,-1,10
 458 489 458 489 448 489 c 2,11,-1
 196 489 l 1,12,-1
 196 423 l 2,13,14
 196 413 196 413 189 406 c 128,-1,15
 182 399 182 399 174 399 c 2,16,-1
 65 399 l 1,17,-1
 65 296 l 2,18,19
 65 286 65 286 71.5 280 c 128,-1,20
 78 274 78 274 88 274 c 2,21,-1
 262 274 l 1,22,23
 263 306 263 306 290.5 328.5 c 128,-1,24
 318 351 318 351 357 351 c 128,-1,25
 396 351 396 351 423 329 c 128,-1,26
 450 307 450 307 452 275 c 1,27,28
 459 276 459 276 464.5 283 c 128,-1,29
 470 290 470 290 470 296 c 2,30,-1
 470 468 l 2,8,9
482 179.5 m 128,-1,32
 482 196 482 196 470 208 c 128,-1,33
 458 220 458 220 443 220 c 128,-1,34
 428 220 428 220 416 208 c 128,-1,35
 404 196 404 196 404 179.5 c 128,-1,36
 404 163 404 163 416 151.5 c 128,-1,37
 428 140 428 140 443 140 c 128,-1,38
 458 140 458 140 470 151.5 c 128,-1,31
 482 163 482 163 482 179.5 c 128,-1,32
304 274 m 1,39,-1
 410 274 l 1,40,41
 409 288 409 288 392.5 298 c 128,-1,42
 376 308 376 308 356 308 c 128,-1,43
 336 308 336 308 320.5 298 c 128,-1,44
 305 288 305 288 304 274 c 1,39,-1
506 566 m 2,45,46
 516 566 516 566 523 558 c 128,-1,47
 530 550 530 550 530 540 c 2,48,-1
 530 108 l 2,49,50
 530 98 530 98 523 91.5 c 128,-1,51
 516 85 516 85 506 85 c 2,52,-1
 496 85 l 1,53,-1
 496 30 l 2,54,55
 496 10 496 10 481 -3.5 c 128,-1,56
 466 -17 466 -17 443 -17 c 128,-1,57
 420 -17 420 -17 405 -3 c 128,-1,58
 390 11 390 11 390 30 c 2,59,-1
 390 85 l 1,60,-1
 146 85 l 1,61,-1
 146 30 l 2,62,63
 146 10 146 10 131 -3.5 c 128,-1,64
 116 -17 116 -17 93 -17 c 128,-1,65
 70 -17 70 -17 54 -3 c 128,-1,66
 38 11 38 11 38 30 c 2,67,-1
 38 85 l 1,68,-1
 24 85 l 2,69,70
 14 85 14 85 7 91.5 c 128,-1,71
 0 98 0 98 0 108 c 2,72,-1
 0 540 l 2,73,74
 0 550 0 550 8 558 c 128,-1,75
 16 566 16 566 24 566 c 2,76,-1
 506 566 l 2,45,46
EndSplineSet
Validated: 1
EndChar

StartChar: volcano
Encoding: 57407 57407 94
Width: 603
VWidth: 828
Flags: W
HStem: 346 30<202.399 377.587> 399 25<274.469 322.996> 455 32<337 370.621> 577 39<208.183 313.842> 592 47<303.423 384.792>
VStem: 149 56<522.796 571.147> 178 36<467.305 527.744> 323 14<443.375 454.68>
LayerCount: 2
Fore
SplineSet
490 43 m 2,0,1
 501 29 501 29 503.5 31 c 128,-1,2
 506 33 506 33 498 49 c 1,3,-1
 397 307 l 2,4,5
 391 322 391 322 374.5 334 c 128,-1,6
 358 346 358 346 342 346 c 2,7,-1
 229 344 l 2,8,9
 213 344 213 344 202 331 c 128,-1,10
 191 318 191 318 192 300 c 2,11,-1
 194 271 l 2,12,13
 195 253 195 253 202 251.5 c 128,-1,14
 209 250 209 250 217 264.5 c 128,-1,15
 225 279 225 279 236.5 278 c 128,-1,16
 248 277 248 277 253 260 c 1,17,-1
 275 202 l 1,18,19
 280 185 280 185 291 185 c 128,-1,20
 302 185 302 185 311 199 c 2,21,-1
 320 214 l 2,22,23
 328 228 328 228 341.5 228.5 c 128,-1,24
 355 229 355 229 366 217 c 1,25,-1
 490 43 l 2,0,1
603 21 m 0,26,27
 603 1 603 1 578 2 c 1,28,-1
 25 2 l 2,29,30
 8 2 8 2 3 13 c 0,31,32
 0 17 0 17 0 23.5 c 128,-1,33
 0 30 0 30 5 39 c 2,34,-1
 180 340 l 2,35,36
 188 355 188 355 205 365.5 c 128,-1,37
 222 376 222 376 231 376 c 2,38,-1
 361 376 l 2,39,40
 378 376 378 376 397 365.5 c 128,-1,41
 416 355 416 355 425 340 c 2,42,-1
 599 39 l 1,43,44
 603 29 603 29 603 21 c 0,26,27
274 428 m 0,45,46
 289 424 289 424 306 424 c 128,-1,47
 323 424 323 424 323 434 c 0,48,49
 323 441 323 441 317.5 452 c 128,-1,50
 312 463 312 463 312 469.5 c 128,-1,51
 312 476 312 476 317 482 c 128,-1,52
 322 488 322 488 328 487 c 1,53,-1
 332 487 l 1,54,55
 359 488 359 488 371 500 c 1,56,-1
 404 540 l 1,57,58
 412 548 412 548 408 552 c 1,59,-1
 403 561 l 1,60,61
 382 568 382 568 368 585 c 0,62,63
 361 592 361 592 342 592 c 128,-1,64
 323 592 323 592 314 585 c 0,65,66
 309 578 309 578 298.5 575.5 c 128,-1,67
 288 573 288 573 282 575 c 128,-1,68
 276 577 276 577 256 577 c 128,-1,69
 236 577 236 577 220.5 568.5 c 128,-1,70
 205 560 205 560 205 546 c 2,71,-1
 205 537 l 1,72,73
 212 532 212 532 214 522.5 c 128,-1,74
 216 513 216 513 210.5 505.5 c 128,-1,75
 205 498 205 498 213.5 487.5 c 128,-1,76
 222 477 222 477 246 453 c 128,-1,77
 270 429 270 429 274 428 c 0,45,46
323 400 m 1,78,-1
 316 401 l 1,79,-1
 282 399 l 1,80,-1
 278 399 l 1,81,82
 275 398 275 398 269.5 401 c 128,-1,83
 264 404 264 404 223.5 436 c 128,-1,84
 183 468 183 468 178 490 c 1,85,-1
 178 493 l 1,86,87
 174 515 174 515 155 533 c 0,88,89
 149 540 149 540 149 555 c 0,90,91
 149 581 149 581 176.5 598.5 c 128,-1,92
 204 616 204 616 244 616 c 2,93,-1
 263 616 l 1,94,95
 288 608 288 608 307.5 623.5 c 128,-1,96
 327 639 327 639 352.5 639 c 128,-1,97
 378 639 378 639 399 621 c 1,98,-1
 406 616 l 1,99,100
 423 600 423 600 436 593 c 0,101,102
 464 579 464 579 464 555 c 0,103,104
 464 534 464 534 455 528 c 1,105,-1
 426 500 l 2,106,107
 416 490 416 490 410 482.5 c 128,-1,108
 404 475 404 475 382 465 c 128,-1,109
 360 455 360 455 350 455 c 2,110,-1
 337 455 l 1,111,112
 337 454 337 454 349 435 c 0,113,114
 353 427 353 427 346.5 413.5 c 128,-1,115
 340 400 340 400 323 400 c 1,78,-1
EndSplineSet
Validated: 1
EndChar

StartChar: architecture
Encoding: 57408 57408 95
Width: 664
VWidth: 828
Flags: W
HStem: 295 112<236.314 286.717 372.08 429.686> 332 75<109.533 150 516 556.467> 433 37<55.094 611.937> 498 103<0 660.39>
VStem: 150 77<4 284.171> 296 73<4 284.171> 440 76<4 284.171>
LayerCount: 2
Fore
SplineSet
0 554 m 6,0,1
 0 566 0 566 14 568 c 5,2,-1
 652 568 l 6,3,4
 657 568 657 568 660.5 564 c 132,-1,5
 664 560 664 560 664 554 c 6,6,-1
 664 477 l 6,7,8
 664 472 664 472 660 468.5 c 132,-1,9
 656 465 656 465 652 465 c 6,10,-1
 14 465 l 6,11,12
 9 465 9 465 4.5 468.5 c 132,-1,13
 0 472 0 472 0 477 c 6,14,-1
 0 554 l 6,0,1
606 437 m 6,15,16
 614 437 614 437 614 430 c 6,17,-1
 614 408 l 6,18,19
 614 400 614 400 606 400 c 6,20,-1
 62 400 l 6,21,22
 52 400 52 400 52 408 c 6,23,-1
 52 430 l 6,24,25
 52 437 52 437 62 437 c 6,26,-1
 606 437 l 6,15,16
92 374 m 5,27,-1
 574 374 l 5,28,-1
 574 350 l 6,29,30
 574 328 574 328 557 313.5 c 132,-1,31
 540 299 540 299 516 299 c 5,32,-1
 516 -29 l 5,33,-1
 440 -29 l 5,34,-1
 440 227 l 6,35,36
 440 241 440 241 430 251.5 c 132,-1,37
 420 262 420 262 405 262 c 132,-1,38
 390 262 390 262 380 251.5 c 132,-1,39
 370 241 370 241 369 227 c 5,40,-1
 369 -29 l 5,41,-1
 296 -29 l 5,42,-1
 296 227 l 6,43,44
 296 241 296 241 287 251.5 c 132,-1,45
 278 262 278 262 262 262 c 132,-1,46
 246 262 246 262 236 251.5 c 132,-1,47
 226 241 226 241 227 227 c 5,48,-1
 227 -29 l 5,49,-1
 150 -29 l 5,50,-1
 150 299 l 5,51,52
 126 299 126 299 109 314 c 132,-1,53
 92 329 92 329 92 350 c 6,54,-1
 92 374 l 5,27,-1
EndSplineSet
Validated: 1
EndChar

StartChar: arrow_up
Encoding: 57409 57409 96
Width: 543
VWidth: 828
Flags: W
VStem: 203 137<1.84473 296.326> 203 124<-13.625 295.573>
LayerCount: 2
Fore
SplineSet
528 234 m 2,0,-1
 371 297 l 1,1,2
 358 301 358 301 349 296.5 c 128,-1,3
 340 292 340 292 340 278 c 2,4,-1
 340 59 l 2,5,6
 340 28 340 28 327 1 c 1,7,8
 327 -9 327 -9 308 -22.5 c 128,-1,9
 289 -36 289 -36 272 -36.5 c 128,-1,10
 255 -37 255 -37 241 -27 c 128,-1,11
 227 -17 227 -17 222 -9 c 2,12,-1
 217 1 l 2,13,14
 204 29 204 29 203 59 c 1,15,-1
 203 278 l 2,16,17
 203 291 203 291 194.5 296.5 c 128,-1,18
 186 302 186 302 173 298 c 1,19,-1
 16 234 l 2,20,21
 4 229 4 229 1 232.5 c 128,-1,22
 -2 236 -2 236 5 246 c 2,23,-1
 255 644 l 2,24,25
 262 655 262 655 271.5 654.5 c 128,-1,26
 281 654 281 654 289 644 c 1,27,-1
 539 246 l 2,28,29
 545 236 545 236 542.5 232.5 c 128,-1,30
 540 229 540 229 528 234 c 2,0,-1
EndSplineSet
Validated: 1
EndChar

StartChar: archaeological
Encoding: 57410 57410 97
Width: 534
VWidth: 828
Flags: W
HStem: -2 74<341 390.079> 509 88<109.925 163.373>
VStem: 0 47<388.715 487.971> 47 344<214.363 319.422> 425 63<214.022 311.558> 488 46<387.204 488.341>
LayerCount: 2
Fore
SplineSet
461 383 m 1,0,1
 488 405 488 405 488 436.5 c 128,-1,2
 488 468 488 468 467 489 c 128,-1,3
 446 510 446 510 418.5 509 c 128,-1,4
 391 508 391 508 371 491 c 0,5,6
 362 479 362 479 361 471.5 c 128,-1,7
 360 464 360 464 371 460 c 0,8,9
 430 428 430 428 461 383 c 1,0,1
375 159 m 0,10,11
 425 216 425 216 425 266 c 0,12,13
 425 294 425 294 408.5 307 c 128,-1,14
 392 320 392 320 386 320 c 1,15,-1
 389 309 l 2,16,17
 391 302 391 302 391 292 c 2,18,-1
 391 264 l 2,19,20
 391 247 391 247 380 224 c 0,21,22
 349 146 349 146 306 97 c 1,23,-1
 328 112 l 2,24,25
 348 126 348 126 375 159 c 0,10,11
166 460 m 0,26,27
 173 464 173 464 175 471 c 0,28,29
 175 479 175 479 164 491 c 0,30,31
 144 508 144 508 116.5 508 c 128,-1,32
 89 508 89 508 68 488 c 128,-1,33
 47 468 47 468 47 436.5 c 128,-1,34
 47 405 47 405 76 383 c 1,35,36
 103 428 103 428 166 460 c 0,26,27
195 72 m 1,37,38
 52 180 52 180 47 297 c 0,39,40
 47 319 47 319 54 340 c 1,41,42
 30 355 30 355 15 382 c 128,-1,43
 0 409 0 409 0 446.5 c 128,-1,44
 0 484 0 484 31.5 518.5 c 128,-1,45
 63 553 63 553 108 556 c 1,46,47
 95 578 95 578 96 600 c 1,48,-1
 96 605 l 1,49,50
 194 592 194 592 267 597 c 1,51,-1
 290 597 l 2,52,53
 366 597 366 597 443 605 c 1,54,55
 445 583 445 583 427 556 c 1,56,57
 473 552 473 552 504 518.5 c 128,-1,58
 535 485 535 485 534 438 c 0,59,60
 534 375 534 375 483 340 c 1,61,62
 488 319 488 319 488 297 c 0,63,64
 488 252 488 252 461 205 c 0,65,66
 423 135 423 135 341 72 c 1,67,68
 413 50 413 50 413 17 c 0,69,70
 413 -8 413 -8 267 -8 c 128,-1,71
 121 -8 121 -8 121 17 c 0,72,73
 121 34 121 34 141 48.5 c 128,-1,74
 161 63 161 63 195 72 c 1,37,38
EndSplineSet
Validated: 1
EndChar

StartChar: arrow_up_double
Encoding: 57411 57411 98
Width: 652
VWidth: 828
Flags: W
HStem: 78 150<262.562 389.438> 394 151<262.562 389.438>
LayerCount: 2
Fore
SplineSet
652 -37 m 2,0,1
 652 -67 652 -67 626 -70 c 0,2,3
 617 -70 617 -70 607 -64 c 2,4,-1
 371 68 l 2,5,6
 353 79 353 79 326 78.5 c 128,-1,7
 299 78 299 78 281 68 c 2,8,-1
 45 -64 l 2,9,10
 34 -70 34 -70 25 -70 c 0,11,12
 0 -66 0 -66 0 -37 c 2,13,-1
 0 -6 l 2,14,15
 0 16 0 16 12.5 38.5 c 128,-1,16
 25 61 25 61 43 72 c 2,17,-1
 281 218 l 1,18,19
 299 231 299 231 326 228 c 1,20,-1
 328 228 l 2,21,22
 353 228 353 228 371 218 c 2,23,-1
 607 72 l 2,24,25
 625 60 625 60 638.5 37 c 128,-1,26
 652 14 652 14 652 -6 c 2,27,-1
 652 -37 l 2,0,1
45 253 m 2,28,29
 34 248 34 248 27 246 c 0,30,31
 0 246 0 246 0 278 c 2,32,-1
 0 310 l 2,33,34
 0 332 0 332 12.5 355 c 128,-1,35
 25 378 25 378 43 388 c 2,36,-1
 281 534 l 2,37,38
 299 546 299 546 325 545 c 128,-1,39
 351 544 351 544 371 534 c 1,40,-1
 607 388 l 2,41,42
 625 377 625 377 638.5 354 c 128,-1,43
 652 331 652 331 652 310 c 2,44,-1
 652 278 l 2,45,46
 652 256 652 256 637 250 c 0,47,48
 632 246 632 246 624.5 246 c 128,-1,49
 617 246 617 246 607 253 c 1,50,-1
 371 384 l 2,51,52
 353 394 353 394 326 394 c 128,-1,53
 299 394 299 394 281 384 c 2,54,-1
 45 253 l 2,28,29
EndSplineSet
Validated: 1
EndChar

StartChar: building
Encoding: 57412 57412 99
Width: 353
VWidth: 828
Flags: W
HStem: -1 84<56.6415 142.328> 166 41<52 148 207 297.359> 295 41<52 148 207.023 302> 426 55<52.0322 148 207 302> 508 43<61.0449 292.953> 577 75<153 201>
VStem: 0 52<87.641 169 207 295 336 426> 148 59<86.6105 165.938 207 295 336 426 578.027 651.179> 302 51<3.23047 161.359 207 295 336 426>
LayerCount: 2
Fore
SplineSet
176.5 577 m 128,-1,1
 167 577 167 577 160 581 c 128,-1,2
 153 585 153 585 153 591 c 2,3,-1
 153 640 l 2,4,5
 153 644 153 644 160 648 c 128,-1,6
 167 652 167 652 176.5 652 c 128,-1,7
 186 652 186 652 193.5 648 c 128,-1,8
 201 644 201 644 201 640 c 2,9,-1
 201 591 l 2,10,11
 201 587 201 587 193.5 582 c 128,-1,0
 186 577 186 577 176.5 577 c 128,-1,1
302 411 m 2,12,13
 302 415 302 415 297.5 420.5 c 128,-1,14
 293 426 293 426 286 426 c 2,15,-1
 223 426 l 2,16,17
 218 426 218 426 212.5 421 c 128,-1,18
 207 416 207 416 207 411 c 2,19,-1
 207 353 l 1,20,21
 206 348 206 348 211.5 342 c 128,-1,22
 217 336 217 336 223 336 c 2,23,-1
 286 336 l 2,24,25
 292 336 292 336 297 341 c 128,-1,26
 302 346 302 346 302 353 c 2,27,-1
 302 411 l 2,12,13
302 280 m 2,28,29
 302 294 302 294 286 295 c 1,30,-1
 223 295 l 2,31,32
 218 295 218 295 212.5 291 c 128,-1,33
 207 287 207 287 207 280 c 2,34,-1
 207 223 l 2,35,36
 207 218 207 218 212 212.5 c 128,-1,37
 217 207 217 207 223 207 c 2,38,-1
 286 207 l 2,39,40
 292 207 292 207 297 212.5 c 128,-1,41
 302 218 302 218 302 223 c 2,42,-1
 302 280 l 2,28,29
148 411 m 2,43,44
 148 415 148 415 142.5 420.5 c 128,-1,45
 137 426 137 426 131 426 c 2,46,-1
 69 426 l 2,47,48
 64 426 64 426 58.5 421 c 128,-1,49
 53 416 53 416 52 411 c 1,50,-1
 52 353 l 2,51,52
 52 348 52 348 56.5 342 c 128,-1,53
 61 336 61 336 69 336 c 2,54,-1
 131 336 l 2,55,56
 137 336 137 336 142.5 341 c 128,-1,57
 148 346 148 346 148 353 c 2,58,-1
 148 411 l 2,43,44
148 280 m 2,59,60
 148 294 148 294 131 295 c 1,61,-1
 69 295 l 2,62,63
 64 295 64 295 58 291 c 128,-1,64
 52 287 52 287 52 280 c 2,65,-1
 52 223 l 2,66,67
 52 218 52 218 56.5 212.5 c 128,-1,68
 61 207 61 207 69 207 c 2,69,-1
 131 207 l 2,70,71
 137 207 137 207 142.5 212.5 c 128,-1,72
 148 218 148 218 148 223 c 2,73,-1
 148 280 l 2,59,60
131 83 m 2,74,75
 148 83 148 83 148 98 c 2,76,-1
 148 156 l 2,77,78
 148 161 148 161 142.5 165 c 128,-1,79
 137 169 137 169 131 169 c 2,80,-1
 69 169 l 2,81,82
 64 169 64 169 58 165 c 128,-1,83
 52 161 52 161 52 156 c 2,84,-1
 52 98 l 2,85,86
 52 92 52 92 56.5 87.5 c 128,-1,87
 61 83 61 83 69 83 c 2,88,-1
 131 83 l 2,74,75
353 445 m 2,89,-1
 353 37 l 2,90,91
 353 23 353 23 341 11 c 128,-1,92
 329 -1 329 -1 313 -1 c 2,93,-1
 302 -1 l 1,94,-1
 302 151 l 2,95,96
 302 157 302 157 297.5 161.5 c 128,-1,97
 293 166 293 166 286 166 c 2,98,-1
 223 166 l 2,99,100
 218 166 218 166 212.5 162 c 128,-1,101
 207 158 207 158 207 151 c 2,102,-1
 207 -1 l 1,103,-1
 40 -1 l 2,104,105
 23 -1 23 -1 11.5 10 c 128,-1,106
 0 21 0 21 0 37 c 2,107,-1
 0 445 l 2,108,109
 0 461 0 461 12 470 c 128,-1,110
 24 479 24 479 40 481 c 1,111,-1
 313 481 l 2,112,113
 330 481 330 481 341.5 471 c 128,-1,114
 353 461 353 461 353 445 c 2,89,-1
61 530.5 m 128,-1,116
 61 540 61 540 72.5 545.5 c 128,-1,117
 84 551 84 551 100 551 c 2,118,-1
 252 551 l 2,119,120
 269 551 269 551 281 545.5 c 128,-1,121
 293 540 293 540 293 530.5 c 128,-1,122
 293 521 293 521 281 514.5 c 128,-1,123
 269 508 269 508 252 508 c 2,124,-1
 100 508 l 2,125,126
 83 508 83 508 72 514.5 c 128,-1,115
 61 521 61 521 61 530.5 c 128,-1,116
EndSplineSet
Validated: 1
EndChar

StartChar: toilet
Encoding: 57413 57413 100
Width: 622
VWidth: 828
Flags: W
HStem: 295 151<414 516> 470 150<81.9858 187.311 414.627 513.373>
VStem: 0 256<173.892 444.695> 62 148<490.721 600.279> 66 130<7.95471 161> 394 140<493.205 597.826> 414 102<295 335.32>
LayerCount: 2
Fore
SplineSet
214 457 m 2,0,1
 231 457 231 457 243.5 443 c 128,-1,2
 256 429 256 429 256 412 c 2,3,-1
 256 204 l 2,4,5
 256 186 256 186 243 173.5 c 128,-1,6
 230 161 230 161 212 161 c 2,7,-1
 196 161 l 1,8,-1
 196 43 l 2,9,10
 196 22 196 22 181 7.5 c 128,-1,11
 166 -7 166 -7 144 -7 c 2,12,-1
 114 -7 l 2,13,14
 93 -7 93 -7 79.5 7.5 c 128,-1,15
 66 22 66 22 66 43 c 2,16,-1
 66 161 l 1,17,-1
 46 161 l 2,18,19
 28 161 28 161 14 173.5 c 128,-1,20
 0 186 0 186 0 204 c 2,21,-1
 0 412 l 2,22,23
 0 430 0 430 14 443.5 c 128,-1,24
 28 457 28 457 46 457 c 2,25,-1
 86 457 l 1,26,27
 102 446 102 446 122 445 c 1,28,-1
 144 445 l 1,29,30
 166 448 166 448 182 457 c 1,31,-1
 214 457 l 2,0,1
322 225 m 1,32,-1
 368 454 l 2,33,34
 370 461 370 461 375 466 c 128,-1,35
 380 471 380 471 384 471 c 2,36,-1
 394 471 l 1,37,38
 398 469 398 469 402 466 c 0,39,40
 430 446 430 446 462 446 c 2,41,-1
 464 446 l 1,42,43
 496 445 496 445 526 466 c 1,44,45
 540 482 540 482 556 471 c 0,46,47
 564 467 564 467 564 457 c 1,48,-1
 610 227 l 2,49,50
 612 219 612 219 606 210.5 c 128,-1,51
 600 202 600 202 585 202 c 128,-1,52
 570 202 570 202 566 219 c 2,53,-1
 532 393 l 1,54,-1
 516 295 l 1,55,-1
 414 295 l 1,56,-1
 398 385 l 1,57,-1
 364 217 l 1,58,59
 357 195 357 195 339.5 199.5 c 128,-1,60
 322 204 322 204 322 225 c 1,32,-1
514 278 m 1,61,-1
 622 4 l 1,62,-1
 512 4 l 1,63,64
 498 -10 498 -10 478 -11 c 1,65,-1
 444 -11 l 2,66,67
 422 -11 422 -11 406 4 c 1,68,-1
 304 4 l 1,69,-1
 416 278 l 1,70,-1
 514 278 l 1,61,-1
464 470 m 128,-1,72
 434 470 434 470 414 492.5 c 128,-1,73
 394 515 394 515 394 546 c 128,-1,74
 394 577 394 577 414 598.5 c 128,-1,75
 434 620 434 620 464 620 c 128,-1,76
 494 620 494 620 514 598.5 c 128,-1,77
 534 577 534 577 534 546 c 128,-1,78
 534 515 534 515 514 492.5 c 128,-1,71
 494 470 494 470 464 470 c 128,-1,72
62 545 m 0,79,80
 63 577 63 577 84.5 600.5 c 128,-1,81
 106 624 106 624 136 624 c 128,-1,82
 166 624 166 624 188 601 c 128,-1,83
 210 578 210 578 210 545.5 c 128,-1,84
 210 513 210 513 188 490 c 128,-1,85
 166 467 166 467 136 467 c 128,-1,86
 106 467 106 467 84 490 c 128,-1,87
 62 513 62 513 62 545 c 0,79,80
EndSplineSet
Validated: 1
EndChar

StartChar: watermill
Encoding: 57414 57414 101
Width: 686
VWidth: 828
Flags: W
HStem: -37 60<195.99 374.582> 34 28<473.014 610.067> 85 42<245.767 257.876> 113 40<476.633 615.03> 221 58<318.063 348.5> 239 32<91.8809 110> 351 77<192.063 194 315.938 334 334 347.906> 523 92<250.125 325.75>
VStem: 90 60<239.127 270.999> 254 34<68.4033 84.9377 423 443.967> 408 80<551 615.265>
LayerCount: 2
Fore
SplineSet
258 514 m 0,0,1
 148 428 148 428 92 379 c 1,2,-1
 56 349 l 1,3,4
 46 342 46 342 32 342 c 1,5,-1
 30 341 l 1,6,7
 16 342 16 342 8 356 c 0,8,9
 0 366 0 366 0 373 c 2,10,-1
 0 382 l 1,11,12
 2 397 2 397 12 407 c 1,13,-1
 266 608 l 1,14,15
 289 624 289 624 310 608 c 2,16,-1
 562 407 l 2,17,18
 576 396 576 396 575 380 c 0,19,20
 573 341 573 341 542 341 c 0,21,22
 528 341 528 341 520 349 c 0,23,24
 380 467 380 467 316 514 c 0,25,26
 303 523 303 523 287 523 c 128,-1,27
 271 523 271 523 258 514 c 0,0,1
488 596 m 2,28,-1
 488 488 l 1,29,-1
 408 551 l 1,30,-1
 408 596 l 2,31,32
 408 608 408 608 416 615.5 c 128,-1,33
 424 623 424 623 434 623 c 2,34,-1
 460 623 l 2,35,36
 471 623 471 623 479.5 615.5 c 128,-1,37
 488 608 488 608 488 596 c 2,28,-1
150 244 m 1,38,-1
 154 220 l 2,39,40
 155 214 155 214 160 219 c 2,41,-1
 188 246 l 2,42,43
 194 251 194 251 188 258 c 2,44,-1
 160 285 l 2,45,46
 154 291 154 291 154 284 c 1,47,-1
 150 259 l 1,48,-1
 150 244 l 1,38,-1
178 320 m 2,49,-1
 212 284 l 2,50,51
 218 278 218 278 224 284 c 2,52,-1
 240 301 l 2,53,54
 246 306 246 306 240 312 c 2,55,-1
 206 348 l 2,56,57
 203 351 203 351 198.5 351 c 128,-1,58
 194 351 194 351 192 349 c 2,59,-1
 178 331 l 1,60,61
 172 325 172 325 178 320 c 2,49,-1
238 365 m 2,62,-1
 264 338 l 2,63,64
 270 332 270 332 276 338 c 2,65,-1
 302 365 l 2,66,67
 306 370 306 370 300 374 c 0,68,69
 284 378 284 378 270 378 c 1,70,-1
 242 374 l 1,71,72
 234 370 234 370 238 365 c 2,62,-1
300 312 m 2,73,74
 294 307 294 307 300 301 c 2,75,-1
 318 282 l 2,76,77
 321 279 321 279 324.5 279 c 128,-1,78
 328 279 328 279 330 282 c 2,79,-1
 364 317 l 2,80,81
 370 322 370 322 364 328 c 1,82,-1
 348 349 l 1,83,84
 345 351 345 351 341.5 351 c 128,-1,85
 338 351 338 351 334 348 c 2,86,-1
 300 312 l 2,73,74
354 256 m 2,87,88
 350 251 350 251 354 244 c 1,89,-1
 380 220 l 2,90,91
 383 217 383 217 385 217 c 0,92,93
 388 216 388 216 388 220 c 2,94,-1
 390 244 l 1,95,96
 392 250 392 250 390 259 c 1,97,-1
 388 280 l 2,98,99
 387 284 387 284 385.5 284 c 128,-1,100
 384 284 384 284 380 282 c 1,101,-1
 354 256 l 2,87,88
362 185 m 2,102,-1
 330 219 l 2,103,104
 326 223 326 223 318 219 c 1,105,-1
 304 202 l 1,106,107
 298 197 298 197 304 190 c 2,108,-1
 336 156 l 2,109,110
 342 150 342 150 348 156 c 2,111,-1
 362 172 l 2,112,113
 368 180 368 180 362 185 c 2,102,-1
250 246 m 1,114,-1
 266 228 l 2,115,116
 272 222 272 222 278 228 c 2,117,-1
 296 244 l 2,118,119
 302 249 302 249 296 256 c 2,120,-1
 276 275 l 2,121,122
 273 278 273 278 269.5 278 c 128,-1,123
 266 278 266 278 264 275 c 2,124,-1
 250 258 l 2,125,126
 244 251 244 251 250 246 c 1,114,-1
304 139 m 2,127,-1
 278 164 l 2,128,129
 274 168 274 168 266 164 c 1,130,-1
 242 137 l 2,131,132
 237 132 237 132 245.5 129.5 c 128,-1,133
 254 127 254 127 268 127 c 128,-1,134
 282 127 282 127 300 130 c 0,135,136
 308 134 308 134 304 139 c 2,127,-1
244 190 m 2,137,138
 250 195 250 195 244 202 c 1,139,-1
 224 220 l 2,140,141
 216 226 216 226 212 220 c 1,142,-1
 178 185 l 2,143,144
 172 180 172 180 178 172 c 2,145,-1
 194 153 l 1,146,147
 199 150 199 150 208 154 c 1,148,-1
 244 190 l 2,137,138
328 73 m 1,149,150
 317 87 317 87 312 87 c 2,151,-1
 304 88 l 1,152,153
 288 86 288 86 288 82 c 1,154,-1
 284 68 l 1,155,156
 280 61 280 61 271 60.5 c 128,-1,157
 262 60 262 60 258 68 c 0,158,159
 254 81 254 81 254 82 c 2,160,-1
 242 87 l 1,161,162
 234 89 234 89 226 91 c 0,163,164
 225 91 225 91 219.5 85 c 128,-1,165
 214 79 214 79 208 79 c 2,166,-1
 206 79 l 1,167,168
 202 80 202 80 196 82 c 128,-1,169
 190 84 190 84 190 93 c 2,170,-1
 190 105 l 1,171,-1
 172 120 l 1,172,173
 166 120 166 120 158 115 c 1,174,-1
 154 115 l 1,175,-1
 150 116 l 1,176,-1
 136 128 l 1,177,178
 140 138 140 138 142 142 c 128,-1,179
 144 146 144 146 138 158 c 0,180,181
 131 170 131 170 129.5 170.5 c 128,-1,182
 128 171 128 171 126 171 c 2,183,-1
 118 169 l 1,184,185
 106 169 106 169 100 190 c 1,186,-1
 112 201 l 2,187,188
 116 205 116 205 114 212 c 1,189,-1
 114 218 l 1,190,-1
 110 236 l 1,191,-1
 98 239 l 1,192,193
 91 243 91 243 90.5 253.5 c 128,-1,194
 90 264 90 264 99 267.5 c 128,-1,195
 108 271 108 271 110 271 c 1,196,-1
 112 282 l 1,197,198
 116 296 116 296 114 298 c 2,199,-1
 102 311 l 2,200,201
 97 316 97 316 98.5 319 c 128,-1,202
 100 322 100 322 100 325 c 128,-1,203
 100 328 100 328 102 329 c 1,204,-1
 104 335 l 1,205,206
 108 336 108 336 112 336 c 2,207,-1
 120 336 l 2,208,209
 124 336 124 336 136 343 c 1,210,211
 146 357 146 357 144 361 c 2,212,-1
 136 374 l 1,213,214
 133 381 133 381 137.5 385 c 128,-1,215
 142 389 142 389 144 392 c 1,216,-1
 148 395 l 1,217,-1
 166 386 l 1,218,-1
 178 391 l 1,219,220
 190 398 190 398 190 400 c 2,221,-1
 190 418 l 2,222,223
 190 428 190 428 194 428 c 1,224,-1
 208 433 l 1,225,226
 223 418 223 418 230 418 c 2,227,-1
 236 418 l 1,228,229
 254 420 254 420 254 423 c 2,230,-1
 258 436 l 1,231,232
 262 443 262 443 271 444 c 128,-1,233
 280 445 280 445 284 435.5 c 128,-1,234
 288 426 288 426 288 423 c 1,235,-1
 298 418 l 1,236,237
 311 415 311 415 313.5 415.5 c 128,-1,238
 316 416 316 416 323 422 c 0,239,240
 334 432 334 432 334 428 c 1,241,242
 336 428 336 428 350 423 c 1,243,-1
 350 407 l 2,244,245
 350 403 350 403 359 394 c 128,-1,246
 368 385 368 385 370 385 c 2,247,-1
 390 392 l 1,248,249
 394 392 394 392 400 383 c 1,250,-1
 406 380 l 1,251,-1
 398 365 l 2,252,253
 393 356 393 356 402.5 345 c 128,-1,254
 412 334 412 334 414 333 c 1,255,-1
 426 333 l 1,256,257
 432 332 432 332 433 329.5 c 128,-1,258
 434 327 434 327 436 325 c 2,259,-1
 442 316 l 1,260,261
 435 308 435 308 429.5 304.5 c 128,-1,262
 424 301 424 301 426 294 c 1,263,-1
 426 289 l 1,264,265
 428 272 428 272 430 271 c 2,266,-1
 442 266 l 2,267,268
 449 263 449 263 449.5 253 c 128,-1,269
 450 243 450 243 441 239.5 c 128,-1,270
 432 236 432 236 430 236 c 1,271,-1
 428 222 l 1,272,273
 424 205 424 205 426 203.5 c 128,-1,274
 428 202 428 202 431 200 c 128,-1,275
 434 198 434 198 438 194 c 0,276,277
 448 186 448 186 436 171 c 0,278,279
 427 165 427 165 420 169 c 1,280,-1
 418 169 l 2,281,282
 416 169 416 169 406 162 c 0,283,284
 392 148 392 148 396 145 c 1,285,-1
 404 130 l 2,286,287
 408 123 408 123 402 117.5 c 128,-1,288
 396 112 396 112 388 112 c 2,289,-1
 386 112 l 1,290,291
 378 118 378 118 372 118 c 1,292,-1
 360 115 l 1,293,294
 348 109 348 109 349 105.5 c 128,-1,295
 350 102 350 102 352 94 c 1,296,-1
 352 86 l 2,297,298
 352 76 352 76 336 73 c 1,299,-1
 328 73 l 1,149,150
424 95 m 1,300,301
 478 148 478 148 550 153 c 0,302,303
 594 153 594 153 634 120 c 0,304,305
 654 104 654 104 660 89 c 1,306,-1
 668 78 l 1,307,308
 612 114 612 114 558 113 c 1,309,-1
 531 113 l 2,310,311
 508 113 508 113 472 105 c 128,-1,312
 436 97 436 97 424 95 c 1,300,301
686 -4 m 1,313,314
 658 10 658 10 658 13 c 0,315,316
 568 59 568 59 429 6 c 0,317,318
 356 -22 356 -22 333 -29.5 c 128,-1,319
 310 -37 310 -37 280 -37 c 0,320,321
 224 -37 224 -37 180 -5 c 128,-1,322
 136 27 136 27 110 74 c 1,323,324
 190 24 190 24 296 23 c 0,325,326
 368 23 368 23 438.5 42.5 c 128,-1,327
 509 62 509 62 547.5 62 c 128,-1,328
 586 62 586 62 623.5 41.5 c 128,-1,329
 661 21 661 21 686 -4 c 1,313,314
EndSplineSet
Validated: 1
EndChar

StartChar: pharmacy
Encoding: 57415 57415 102
Width: 601
VWidth: 828
Flags: W
HStem: -33 76<237.053 294.219> 509 66<291.704 325.265>
VStem: 125 42<265.191 294.391> 213 72<464.159 502.296> 213 22<50.5625 67.8411> 333 60<14.4707 51 465.128 502.296> 430 48<180 266>
LayerCount: 2
Fore
SplineSet
282 46 m 0,0,1
 362 84 362 84 396 116 c 128,-1,2
 430 148 430 148 430 180 c 128,-1,3
 430 212 430 212 406.5 232.5 c 128,-1,4
 383 253 383 253 342 268 c 1,5,-1
 349 190 l 1,6,7
 360 185 360 185 364 180 c 1,8,9
 357 168 357 168 333 153 c 1,10,-1
 333 339 l 1,11,-1
 285 329 l 1,12,-1
 285 290 l 1,13,14
 250 304 250 304 236 311 c 1,15,16
 249 324 249 324 285 343 c 1,17,-1
 285 342 l 1,18,-1
 333 364 l 1,19,-1
 333 365 l 1,20,21
 355 376 355 376 375 382 c 0,22,23
 403 393 403 393 402.5 416 c 128,-1,24
 402 439 402 439 387 446.5 c 128,-1,25
 372 454 372 454 358.5 449 c 128,-1,26
 345 444 345 444 333 438 c 1,27,-1
 333 485 l 2,28,29
 333 496 333 496 325.5 502.5 c 128,-1,30
 318 509 318 509 308 509 c 128,-1,31
 298 509 298 509 291.5 502.5 c 128,-1,32
 285 496 285 496 285 485 c 2,33,-1
 285 418 l 1,34,35
 222 388 222 388 194.5 363 c 128,-1,36
 167 338 167 338 167 310 c 0,37,38
 167 270 167 270 218 245 c 0,39,40
 235 237 235 237 249 231 c 2,41,-1
 282 219 l 1,42,-1
 285 218 l 1,43,-1
 285 122 l 1,44,-1
 254 109 l 1,45,46
 224 87 224 87 240 59 c 0,47,48
 247 43 247 43 268 43 c 0,49,50
 277 42 277 42 282 46 c 0,0,1
333 40 m 2,51,-1
 333 51 l 1,52,-1
 285 36 l 1,53,54
 287 27 287 27 294 21 c 128,-1,55
 301 15 301 15 309.5 14.5 c 128,-1,56
 318 14 318 14 325.5 21.5 c 128,-1,57
 333 29 333 29 333 40 c 2,51,-1
586 176 m 1,58,59
 601 163 601 163 601 146 c 128,-1,60
 601 129 601 129 597 120 c 1,61,-1
 538 30 l 1,62,63
 525 13 525 13 508.5 13 c 128,-1,64
 492 13 492 13 484 20 c 1,65,-1
 424 63 l 1,66,67
 411 74 411 74 401.5 68.5 c 128,-1,68
 392 63 392 63 393 47 c 1,69,-1
 393 6 l 2,70,71
 393 -10 393 -10 382 -21.5 c 128,-1,72
 371 -33 371 -33 354 -33 c 2,73,-1
 250 -33 l 2,74,75
 234 -33 234 -33 223.5 -21.5 c 128,-1,76
 213 -10 213 -10 213 6 c 2,77,-1
 213 47 l 2,78,79
 213 63 213 63 203 68 c 128,-1,80
 193 73 193 73 181 63 c 1,81,-1
 119 20 l 1,82,83
 105 11 105 11 90 14 c 128,-1,84
 75 17 75 17 67 30 c 2,85,-1
 7 120 l 2,86,87
 0 130 0 130 0.5 138 c 128,-1,88
 1 146 1 146 3 156 c 128,-1,89
 5 166 5 166 17 176 c 1,90,-1
 112 244 l 2,91,92
 125 253 125 253 125 266 c 128,-1,93
 125 279 125 279 112 289 c 2,94,-1
 17 358 l 2,95,96
 4 368 4 368 1.5 383.5 c 128,-1,97
 -1 399 -1 399 7 413 c 1,98,-1
 67 502 l 1,99,100
 80 519 80 519 95 520 c 128,-1,101
 110 521 110 521 119 513 c 1,102,-1
 181 469 l 2,103,104
 194 459 194 459 203.5 464 c 128,-1,105
 213 469 213 469 213 486 c 2,106,-1
 213 536 l 2,107,108
 213 552 213 552 223.5 563.5 c 128,-1,109
 234 575 234 575 250 575 c 2,110,-1
 354 575 l 2,111,112
 368 575 368 575 380 563.5 c 128,-1,113
 392 552 392 552 393 536 c 1,114,-1
 393 486 l 2,115,116
 393 469 393 469 402.5 465 c 128,-1,117
 412 461 412 461 424 469 c 2,118,-1
 484 513 l 2,119,120
 494 521 494 521 502 522 c 0,121,122
 526 522 526 522 538 502 c 1,123,-1
 597 413 l 1,124,125
 601 401 601 401 599.5 383.5 c 128,-1,126
 598 366 598 366 586 358 c 2,127,-1
 491 289 l 2,128,129
 478 280 478 280 478 266.5 c 128,-1,130
 478 253 478 253 491 244 c 2,131,-1
 586 176 l 1,58,59
EndSplineSet
Validated: 1
EndChar

StartChar: waterpark
Encoding: 57416 57416 103
Width: 706
VWidth: 828
Flags: W
HStem: 2 64<101.27 297.712> 7 30<427.821 576.951> 78 30<411.996 558.93> 178 60<116.087 232.273>
VStem: 26 60<268.124 352>
LayerCount: 2
Fore
SplineSet
356 -20 m 1,0,1
 393 11 393 11 433.5 24 c 128,-1,2
 474 37 474 37 494 36.5 c 128,-1,3
 514 36 514 36 537 33 c 128,-1,4
 560 30 560 30 586 18 c 128,-1,5
 612 6 612 6 622 -3 c 2,6,-1
 632 -13 l 1,7,8
 570 7 570 7 519 7 c 128,-1,9
 468 7 468 7 418.5 -5 c 128,-1,10
 369 -17 369 -17 356 -20 c 1,0,1
648 37 m 1,11,12
 618 53 618 53 616 53 c 0,13,14
 566 76 566 76 510 78 c 1,15,-1
 498 78 l 1,16,17
 436 75 436 75 358 46 c 128,-1,18
 280 17 280 17 253 9.5 c 128,-1,19
 226 2 226 2 192 2 c 0,20,21
 130 2 130 2 76 39 c 0,22,23
 30 69 30 69 0 120 c 1,24,25
 90 67 90 67 210 66 c 0,26,27
 293 66 293 66 365.5 85.5 c 128,-1,28
 438 105 438 105 484 108 c 1,29,-1
 492 108 l 2,30,31
 534 108 534 108 574 86 c 0,32,33
 632 58 632 58 648 37 c 1,11,12
706 544 m 1,34,35
 701 527 701 527 690 468 c 1,36,37
 676 415 676 415 630 380 c 1,38,-1
 472 302 l 2,39,40
 468 300 468 300 464 301 c 1,41,-1
 248 196 l 1,42,43
 216 176 216 176 178 178 c 0,44,45
 176 178 176 178 174 178 c 0,46,47
 113 178 113 178 69.5 221.5 c 128,-1,48
 26 265 26 265 26 326 c 2,49,-1
 26 371 l 2,50,51
 26 391 26 391 44 398 c 1,52,-1
 444 597 l 2,53,54
 455 602 455 602 466.5 597.5 c 128,-1,55
 478 593 478 593 485 582 c 128,-1,56
 492 571 492 571 487 559 c 128,-1,57
 482 547 482 547 472 541 c 2,58,-1
 86 352 l 1,59,-1
 86 326 l 2,60,61
 86 290 86 290 112 264 c 128,-1,62
 138 238 138 238 168 238 c 128,-1,63
 198 238 198 238 218 250 c 0,64,65
 260 274 260 274 260 324 c 0,66,67
 260 344 260 344 278 352 c 2,68,-1
 676 547 l 2,69,70
 682 550 682 550 689.5 550 c 128,-1,71
 697 550 697 550 706 544 c 1,34,35
EndSplineSet
Validated: 1
EndChar

StartChar: viewtower
Encoding: 57417 57417 104
Width: 340
VWidth: 828
Flags: W
HStem: -23 76<76.1255 203.844> -9 77<76.1255 154.637 243 259.813> 84 71<180 270.582> 95 69<72.0444 144.506> 184 69<74.7432 197.359> 280 77<149 270.844>
VStem: 0 63<515.875 584.887> 72 73<95.1597 156.34> 72 47<292.125 367.154> 137 69<513.641 562.812> 149 128<293.444 357> 180 97<105.25 148.843> 232 45<193.756 264.125> 243 34<-8.87451 67.3895> 280 60<521.765 585.225>
LayerCount: 2
Fore
SplineSet
280 565 m 1,0,1
 279 580 279 580 298 584 c 0,2,3
 310 588 310 588 322 591 c 0,4,5
 343 598 343 598 340 582 c 1,6,-1
 340 498 l 1,7,8
 337 494 337 494 334.5 490.5 c 128,-1,9
 332 487 332 487 318.5 473 c 128,-1,10
 305 459 305 459 286 441.5 c 128,-1,11
 267 424 267 424 266 423 c 1,12,-1
 266 400 l 2,13,14
 266 395 266 395 239 391 c 0,15,16
 166 379 166 379 90 393 c 0,17,18
 76 397 76 397 75 401 c 1,19,-1
 75 417 l 2,20,21
 75 423 75 423 56 440 c 0,22,23
 35 457 35 457 22.5 472.5 c 128,-1,24
 10 488 10 488 7 491 c 128,-1,25
 4 494 4 494 3 497 c 1,26,-1
 0 498 l 1,27,-1
 0 590 l 2,28,29
 0 598 0 598 16 593 c 128,-1,30
 32 588 32 588 43 584 c 0,31,32
 63 579 63 579 63 563 c 2,33,-1
 63 536 l 2,34,35
 63 530 63 530 67.5 524 c 128,-1,36
 72 518 72 518 86.5 515.5 c 128,-1,37
 101 513 101 513 121 509 c 0,38,39
 127 509 127 509 132 513.5 c 128,-1,40
 137 518 137 518 137 526 c 2,41,-1
 137 551 l 2,42,43
 137 557 137 557 141.5 563 c 128,-1,44
 146 569 146 569 154 568.5 c 128,-1,45
 162 568 162 568 171 568 c 2,46,-1
 190 569 l 2,47,48
 196 569 196 569 201 564.5 c 128,-1,49
 206 560 206 560 206 553 c 2,50,-1
 206 526 l 2,51,52
 206 520 206 520 211 514.5 c 128,-1,53
 216 509 216 509 222 509 c 0,54,55
 268 513 268 513 274 521.5 c 128,-1,56
 280 530 280 530 280 536 c 2,57,-1
 280 565 l 1,0,1
259 68 m 1,58,-1
 260 68 l 1,59,60
 266 71 266 71 271 67.5 c 128,-1,61
 276 64 276 64 277 56 c 1,62,-1
 277 12 l 2,63,64
 277 7 277 7 271.5 -1 c 128,-1,65
 266 -9 266 -9 260 -11 c 128,-1,66
 254 -13 254 -13 248.5 -9 c 128,-1,67
 243 -5 243 -5 243 1 c 2,68,-1
 243 46 l 2,69,70
 243 52 243 52 248 59 c 128,-1,71
 253 66 253 66 259 68 c 1,58,-1
209 40 m 2,72,-1
 209 -4 l 2,73,74
 209 -10 209 -10 204 -16 c 128,-1,75
 199 -22 199 -22 191 -22.5 c 128,-1,76
 183 -23 183 -23 155.5 -23 c 128,-1,77
 128 -23 128 -23 86 -11 c 0,78,79
 80 -9 80 -9 76 -2 c 128,-1,80
 72 5 72 5 72 12 c 2,81,-1
 72 56 l 2,82,83
 72 62 72 62 76 66 c 128,-1,84
 80 70 80 70 86 68 c 0,85,86
 133 54 133 54 183 53 c 1,87,-1
 193 53 l 1,88,89
 199 55 199 55 204 50.5 c 128,-1,90
 209 46 209 46 209 40 c 2,72,-1
184.5 149 m 128,-1,92
 189 154 189 154 208.5 155 c 128,-1,93
 228 156 228 156 247 162 c 128,-1,94
 266 168 266 168 271 165 c 128,-1,95
 276 162 276 162 277 155 c 1,96,-1
 277 119 l 1,97,98
 276 113 276 113 271 105 c 0,99,100
 258 90 258 90 196 84 c 0,101,102
 190 84 190 84 185 89 c 128,-1,103
 180 94 180 94 180 99 c 2,104,-1
 180 137 l 2,105,91
 180 144 180 144 184.5 149 c 128,-1,92
145 138 m 2,106,-1
 145 101 l 1,107,108
 146 95 146 95 141 88 c 0,109,110
 130 77 130 77 86 95 c 0,111,112
 72 100 72 100 72 119 c 2,113,-1
 72 155 l 1,114,115
 71 171 71 171 88 165.5 c 128,-1,116
 105 160 105 160 125 156 c 128,-1,117
 145 152 145 152 145 138 c 2,106,-1
232 241 m 2,118,119
 232 247 232 247 237 254 c 128,-1,120
 242 261 242 261 248 262 c 2,121,-1
 260 266 l 2,122,123
 266 268 266 268 271 264.5 c 128,-1,124
 276 261 276 261 277 255 c 1,125,-1
 277 217 l 2,126,127
 277 212 277 212 271.5 204 c 128,-1,128
 266 196 266 196 260.5 195 c 128,-1,129
 255 194 255 194 248.5 192 c 128,-1,130
 242 190 242 190 237 193 c 128,-1,131
 232 196 232 196 232 202 c 2,132,-1
 232 241 l 2,118,119
202 237 m 2,133,-1
 202 199 l 2,134,135
 202 192 202 192 198 188 c 0,136,137
 192 184 192 184 186 184 c 2,138,-1
 171 184 l 1,139,140
 127 185 127 185 86 195 c 0,141,142
 80 197 80 197 76 204 c 128,-1,143
 72 211 72 211 72 217 c 2,144,-1
 72 255 l 2,145,146
 72 261 72 261 76 264.5 c 128,-1,147
 80 268 80 268 104 260.5 c 128,-1,148
 128 253 128 253 172 253 c 2,149,-1
 187 253 l 2,150,151
 193 253 193 253 197.5 248 c 128,-1,152
 202 243 202 243 202 237 c 2,133,-1
154 352 m 128,-1,154
 159 357 159 357 164 357 c 2,155,-1
 176 357 l 2,156,157
 220 357 220 357 243 365 c 128,-1,158
 266 373 266 373 271 369.5 c 128,-1,159
 276 366 276 366 277 359 c 1,160,-1
 277 315 l 2,161,162
 277 309 277 309 271.5 303 c 128,-1,163
 266 297 266 297 260 295 c 0,164,165
 216 281 216 281 170 280 c 1,166,-1
 163 280 l 2,167,168
 159 280 159 280 154 286 c 128,-1,169
 149 292 149 292 149 297 c 2,170,-1
 149 342 l 2,171,153
 149 347 149 347 154 352 c 128,-1,154
119 345 m 2,172,-1
 119 302 l 1,173,174
 116 283 116 283 86 295 c 0,175,176
 72 300 72 300 72 315 c 2,177,-1
 72 359 l 2,178,179
 72 365 72 365 76 369 c 128,-1,180
 80 373 80 373 86.5 370.5 c 128,-1,181
 93 368 93 368 101 366 c 128,-1,182
 109 364 109 364 114 357.5 c 128,-1,183
 119 351 119 351 119 345 c 2,172,-1
EndSplineSet
Validated: 1
EndChar

StartChar: city
Encoding: 57418 57418 105
Width: 551
VWidth: 828
Flags: W
HStem: -32 87<199.22 251> -32 36<287 332.781> 10 53<14.7347 115.842> 63 63<287 326> 86 45<418.359 526.571> 184 33<259.156 286.988> 220 40<455 526.055> 275 43<213.016 287> 404 31<63.9297 93.6119> 525 35<72.153 161.78>
VStem: 0 110<196.281 284.701> 0 61<435.168 524.832> 0 7<74.3578 136.48> 38 34<560 627.812> 116 37<64.1444 149.627> 169 34<436.627 516.749> 192 95<4 54.9375> 192 62<131.672 178.843> 192 21<219.472 272.417> 251 89<63.1328 108.843> 284 25<361 413.265> 326 14<128.966 181.034> 386 69<260.066 314.359> 386 32<132.758 218.277> 416 135<342.735 413.265> 527 24<135.133 215.311 260.709 314.359>
LayerCount: 2
Fore
SplineSet
326 144 m 2,0,-1
 326 166 l 2,1,2
 326 173 326 173 321.5 178.5 c 128,-1,3
 317 184 317 184 311 184 c 2,4,-1
 270 184 l 2,5,6
 264 184 264 184 259 179 c 128,-1,7
 254 174 254 174 254 166 c 2,8,-1
 254 144 l 2,9,10
 254 137 254 137 258.5 131.5 c 128,-1,11
 263 126 263 126 270 126 c 2,12,-1
 311 126 l 2,13,14
 317 126 317 126 321.5 131.5 c 128,-1,15
 326 137 326 137 326 144 c 2,0,-1
232 217 m 2,16,-1
 270 217 l 2,17,18
 276 217 276 217 281.5 222 c 128,-1,19
 287 227 287 227 287 234 c 2,20,-1
 287 257 l 2,21,22
 287 264 287 264 282 269.5 c 128,-1,23
 277 275 277 275 270 275 c 2,24,-1
 232 275 l 2,25,26
 226 275 226 275 219.5 270 c 128,-1,27
 213 265 213 265 213 257 c 2,28,-1
 213 234 l 2,29,30
 213 227 213 227 219.5 222 c 128,-1,31
 226 217 226 217 232 217 c 2,16,-1
251 97 m 2,32,33
 251 114 251 114 228 114 c 2,34,-1
 192 114 l 1,35,-1
 192 291 l 2,36,37
 192 303 192 303 199 310.5 c 128,-1,38
 206 318 206 318 217 318 c 2,39,-1
 316 318 l 2,40,41
 326 318 326 318 333 310 c 128,-1,42
 340 302 340 302 340 291 c 2,43,-1
 340 63 l 1,44,-1
 303 63 l 2,45,46
 297 63 297 63 292 57 c 128,-1,47
 287 51 287 51 287 45 c 2,48,-1
 287 22 l 2,49,50
 287 15 287 15 292 9.5 c 128,-1,51
 297 4 297 4 303 4 c 2,52,-1
 340 4 l 1,53,-1
 340 -4 l 2,54,55
 340 -16 340 -16 333 -24 c 128,-1,56
 326 -32 326 -32 316 -32 c 2,57,-1
 217 -32 l 2,58,59
 206 -32 206 -32 199 -23.5 c 128,-1,60
 192 -15 192 -15 192 -4 c 2,61,-1
 192 55 l 1,62,-1
 234 55 l 2,63,64
 240 55 240 55 245.5 61.5 c 128,-1,65
 251 68 251 68 251 75 c 2,66,-1
 251 97 l 2,32,33
86 435 m 2,67,-1
 144 435 l 2,68,69
 154 435 154 435 161.5 443.5 c 128,-1,70
 169 452 169 452 169 464 c 2,71,-1
 169 498 l 2,72,73
 169 509 169 509 162 517 c 128,-1,74
 155 525 155 525 144 525 c 2,75,-1
 86 525 l 2,76,77
 76 525 76 525 68.5 516.5 c 128,-1,78
 61 508 61 508 61 498 c 2,79,-1
 61 464 l 2,80,81
 61 452 61 452 68.5 443.5 c 128,-1,82
 76 435 76 435 86 435 c 2,67,-1
116 122 m 2,83,84
 116 133 116 133 108 142 c 128,-1,85
 100 151 100 151 90 151 c 2,86,-1
 31 151 l 2,87,88
 21 151 21 151 14 142 c 128,-1,89
 7 133 7 133 7 122 c 2,90,-1
 7 88 l 2,91,92
 7 76 7 76 14.5 69.5 c 128,-1,93
 22 63 22 63 31 63 c 2,94,-1
 90 63 l 2,95,96
 100 63 100 63 108 70.5 c 128,-1,97
 116 78 116 78 116 88 c 2,98,-1
 116 122 l 2,83,84
75 340 m 2,99,100
 92 340 92 340 94 361 c 1,101,-1
 94 385 l 2,102,103
 94 392 94 392 88.5 398 c 128,-1,104
 83 404 83 404 75 404 c 2,105,-1
 31 404 l 2,106,107
 24 404 24 404 18.5 398 c 128,-1,108
 13 392 13 392 13 385 c 2,109,-1
 13 361 l 2,110,111
 13 353 13 353 19 346.5 c 128,-1,112
 25 340 25 340 31 340 c 2,113,-1
 75 340 l 2,99,100
136 285 m 2,114,115
 126 285 126 285 118 276.5 c 128,-1,116
 110 268 110 268 110 258 c 2,117,-1
 110 224 l 2,118,119
 110 212 110 212 118 204 c 128,-1,120
 126 196 126 196 136 196 c 2,121,-1
 153 196 l 1,122,-1
 153 18 l 2,123,124
 153 14 153 14 155 10 c 1,125,-1
 25 10 l 2,126,127
 0 10 0 10 0 37 c 2,128,-1
 0 532 l 2,129,130
 0 544 0 544 7.5 551.5 c 128,-1,131
 15 559 15 559 25 560 c 1,132,-1
 38 560 l 1,133,-1
 38 614 l 2,134,135
 38 622 38 622 42.5 628 c 128,-1,136
 47 634 47 634 54 634 c 128,-1,137
 61 634 61 634 66.5 628.5 c 128,-1,138
 72 623 72 623 72 614 c 2,139,-1
 72 560 l 1,140,-1
 177 560 l 2,141,142
 187 560 187 560 195 552 c 128,-1,143
 203 544 203 544 203 532 c 2,144,-1
 203 367 l 1,145,146
 182 366 182 366 167.5 350.5 c 128,-1,147
 153 335 153 335 153 311 c 2,148,-1
 153 285 l 1,149,-1
 136 285 l 2,114,115
455 279 m 2,150,151
 455 262 455 262 471 260 c 1,152,-1
 511 260 l 2,153,154
 517 260 517 260 522 266 c 128,-1,155
 527 272 527 272 527 279 c 2,156,-1
 527 302 l 2,157,158
 527 310 527 310 522 314.5 c 128,-1,159
 517 319 517 319 511 319 c 2,160,-1
 471 319 l 2,161,162
 465 319 465 319 460 314.5 c 128,-1,163
 455 310 455 310 455 302 c 2,164,-1
 455 279 l 2,150,151
527 158 m 2,165,-1
 527 193 l 2,166,167
 527 204 527 204 519 212 c 128,-1,168
 511 220 511 220 502 220 c 2,169,-1
 442 220 l 2,170,171
 432 220 432 220 425 211 c 128,-1,172
 418 202 418 202 418 193 c 2,173,-1
 418 158 l 2,174,175
 418 147 418 147 425.5 139 c 128,-1,176
 433 131 433 131 442 131 c 2,177,-1
 502 131 l 2,178,179
 512 131 512 131 519.5 139 c 128,-1,180
 527 147 527 147 527 158 c 2,165,-1
527 485 m 2,181,182
 537 480 537 480 544 467 c 128,-1,183
 551 454 551 454 551 443 c 2,184,-1
 551 114 l 2,185,186
 551 102 551 102 543.5 94 c 128,-1,187
 536 86 536 86 524 86 c 2,188,-1
 386 86 l 1,189,-1
 386 306 l 2,190,191
 386 321 386 321 378 335 c 1,192,-1
 393 335 l 2,193,194
 403 335 403 335 409.5 342.5 c 128,-1,195
 416 350 416 350 416 361 c 2,196,-1
 416 395 l 2,197,198
 416 406 416 406 409.5 413.5 c 128,-1,199
 403 421 403 421 393 421 c 2,200,-1
 333 421 l 2,201,202
 323 421 323 421 316 413.5 c 128,-1,203
 309 406 309 406 309 395 c 2,204,-1
 309 361 l 1,205,-1
 284 361 l 1,206,-1
 284 443 l 2,207,208
 284 455 284 455 291 467 c 128,-1,209
 298 479 298 479 308 485 c 2,210,-1
 394 538 l 2,211,212
 404 543 404 543 417.5 543.5 c 128,-1,213
 431 544 431 544 440 538 c 2,214,-1
 527 485 l 2,181,182
EndSplineSet
Validated: 1
EndChar

StartChar: battlefield
Encoding: 57419 57419 106
Width: 555
VWidth: 828
Flags: W
HStem: 202 26<480.781 520.536>
VStem: 0 80<14.25 50.874> 196 22<38.9478 57>
LayerCount: 2
Fore
SplineSet
332 73 m 1,0,1
 332 101 332 101 359 153 c 1,2,-1
 277 226 l 1,3,-1
 193 152 l 1,4,5
 208 130 208 130 214.5 108 c 128,-1,6
 221 86 221 86 221 81 c 2,7,-1
 221 73 l 1,8,9
 219 63 219 63 218.5 51.5 c 128,-1,10
 218 40 218 40 210.5 38.5 c 128,-1,11
 203 37 203 37 196 57 c 1,12,-1
 178 85 l 1,13,14
 165 99 165 99 146 120 c 1,15,-1
 78 51 l 1,16,17
 87 39 87 39 73.5 22.5 c 128,-1,18
 60 6 60 6 47.5 4 c 128,-1,19
 35 2 35 2 28 8 c 1,20,-1
 5 33 l 1,21,22
 -2 39 -2 39 0 51 c 128,-1,23
 2 63 2 63 14 74.5 c 128,-1,24
 26 86 26 86 34.5 86 c 128,-1,25
 43 86 43 86 47 84 c 1,26,-1
 113 153 l 1,27,28
 68 197 68 197 50.5 204 c 128,-1,29
 33 211 33 211 34 218 c 128,-1,30
 35 225 35 225 55 228 c 1,31,-1
 69 228 l 2,32,33
 102 228 102 228 144 202 c 1,34,-1
 216 282 l 1,35,-1
 20 459 l 1,36,-1
 7 562 l 1,37,-1
 108 544 l 1,38,-1
 277 352 l 1,39,-1
 448 544 l 1,40,-1
 549 559 l 1,41,-1
 531 456 l 1,42,-1
 339 282 l 1,43,-1
 409 202 l 1,44,45
 430 216 430 216 451 223 c 128,-1,46
 472 230 472 230 478 228 c 1,47,-1
 486 228 l 1,48,49
 495 226 495 226 499 228 c 0,50,51
 521 225 521 225 521 217.5 c 128,-1,52
 521 210 521 210 502 202.5 c 128,-1,53
 483 195 483 195 440 153 c 1,54,-1
 506 85 l 1,55,56
 520 96 520 96 540 76 c 0,57,58
 550 66 550 66 553.5 53 c 128,-1,59
 557 40 557 40 549 34 c 1,60,-1
 526 9 l 2,61,62
 520 3 520 3 507 5.5 c 128,-1,63
 494 8 494 8 483.5 19.5 c 128,-1,64
 473 31 473 31 473 38.5 c 128,-1,65
 473 46 473 46 476 51 c 1,66,-1
 408 121 l 1,67,68
 365 75 365 75 357.5 56.5 c 128,-1,69
 350 38 350 38 343 39 c 128,-1,70
 336 40 336 40 333 62 c 2,71,-1
 332 73 l 1,0,1
EndSplineSet
Validated: 1
EndChar

StartChar: clean
Encoding: 57420 57420 107
Width: 718
VWidth: 828
Flags: W
HStem: 583 20<645.766 686.718>
VStem: 696 18<532.767 574.019>
LayerCount: 2
Fore
SplineSet
570 177 m 6,0,-1
 558 135 l 6,1,2
 554 120 554 120 542 116 c 132,-1,3
 530 112 530 112 518 121 c 6,4,-1
 207 343 l 6,5,6
 195 352 195 352 195 364 c 132,-1,7
 195 376 195 376 208 384 c 6,8,-1
 246 409 l 6,9,10
 259 417 259 417 277 417 c 132,-1,11
 295 417 295 417 307 408 c 6,12,-1
 359 371 l 6,13,14
 371 362 371 362 386.5 364.5 c 132,-1,15
 402 367 402 367 410 379 c 6,16,-1
 622 675 l 6,17,18
 631 687 631 687 646 690 c 132,-1,19
 661 693 661 693 673 684 c 6,20,-1
 691 671 l 6,21,22
 703 662 703 662 706 647 c 132,-1,23
 709 632 709 632 700 619 c 6,24,-1
 489 323 l 6,25,26
 480 311 480 311 482.5 296 c 132,-1,27
 485 281 485 281 497 272 c 6,28,-1
 551 234 l 6,29,30
 563 225 563 225 568.5 208.5 c 132,-1,31
 574 192 574 192 570 177 c 6,0,-1
421 -37 m 4,32,33
 390 -53 390 -53 367 -44 c 4,34,35
 340 -34 340 -34 300 -8 c 5,36,37
 308 7 308 7 315 23 c 4,38,39
 328 52 328 52 329 56 c 5,40,41
 302 33 302 33 269 13 c 5,42,43
 234 35 234 35 202 47 c 5,44,45
 207 60 207 60 217 87 c 5,46,47
 205 71 205 71 189 53 c 5,48,49
 156 65 156 65 120 70 c 5,50,51
 135 131 135 131 158 185 c 6,52,-1
 166 204 l 5,53,54
 100 135 100 135 60 76 c 5,55,56
 42 76 42 76 23 75 c 4,57,58
 -35 72 -35 72 110 263 c 4,59,60
 158 324 158 324 160.5 326.5 c 132,-1,61
 163 329 163 329 169.5 330 c 132,-1,62
 176 331 176 331 181 327 c 6,63,-1
 500 100 l 6,64,65
 512 91 512 91 512 80 c 4,66,67
 511 54 511 54 490 21.5 c 132,-1,68
 469 -11 469 -11 421 -37 c 4,32,33
EndSplineSet
Validated: 1
EndChar

StartChar: judaism
Encoding: 57421 57421 108
Width: 590
VWidth: 828
Flags: W
HStem: 4 53<96 170 262 324 420 494> 298 55<96 170 262 324 420 494>
LayerCount: 2
Fore
SplineSet
458 123 m 1,0,-1
 420 57 l 1,1,-1
 494 57 l 1,2,-1
 458 123 l 1,0,-1
294 -51 m 1,3,-1
 324 4 l 1,4,-1
 262 4 l 1,5,-1
 294 -51 l 1,3,-1
96 57 m 1,6,-1
 170 57 l 1,7,-1
 134 122 l 1,8,-1
 96 57 l 1,6,-1
96 298 m 1,9,-1
 134 232 l 1,10,-1
 170 298 l 1,11,-1
 96 298 l 1,9,-1
294 408 m 1,12,-1
 262 353 l 1,13,-1
 324 353 l 1,14,-1
 294 408 l 1,12,-1
426 179 m 1,15,-1
 356 298 l 1,16,-1
 232 298 l 1,17,-1
 162 179 l 1,18,-1
 232 57 l 1,19,-1
 356 57 l 1,20,-1
 426 179 l 1,15,-1
494 298 m 1,21,-1
 420 298 l 1,22,-1
 458 232 l 1,23,-1
 494 298 l 1,21,-1
488 179 m 1,24,-1
 590 4 l 1,25,-1
 388 4 l 1,26,-1
 294 -161 l 1,27,-1
 198 4 l 1,28,-1
 0 4 l 1,29,-1
 102 179 l 1,30,-1
 0 353 l 1,31,-1
 198 353 l 1,32,-1
 294 518 l 1,33,-1
 388 353 l 1,34,-1
 590 353 l 1,35,-1
 488 179 l 1,24,-1
EndSplineSet
Validated: 1
EndChar

StartChar: christianism
Encoding: 57422 57422 109
Width: 544
VWidth: 828
Flags: W
HStem: -15 36<259.25 289.153> 352 106<9.28198 36.1562 504.018 543.904> 380 20<163.024 230.762 311.522 378.229> 608 33<264.5 281.652>
VStem: 0 38<392.795 412.125> 215 125<-6.74902 43.6922> 224 90<601.963 640.965> 238 28<248.36 357.427> 278 17<435.586 506.148> 506 38<392.352 411.587>
LayerCount: 2
Fore
SplineSet
68 393 m 2,0,-1
 202 399 l 2,1,2
 207 400 207 400 219.5 400 c 128,-1,3
 232 400 232 400 232 392.5 c 128,-1,4
 232 385 232 385 202 380 c 2,5,-1
 28 348 l 2,6,7
 17 345 17 345 8.5 352.5 c 128,-1,8
 0 360 0 360 0 372 c 2,9,-1
 0 433 l 2,10,11
 0 446 0 446 9 453 c 128,-1,12
 18 460 18 460 30 458 c 2,13,-1
 202 428 l 2,14,15
 232 423 232 423 232 415 c 0,16,17
 232 412 232 412 224 410 c 1,18,-1
 202 410 l 1,19,-1
 68 412 l 1,20,21
 38 414 38 414 38 402.5 c 128,-1,22
 38 391 38 391 68 393 c 2,0,-1
478 392 m 1,23,24
 507 392 507 392 506.5 402 c 128,-1,25
 506 412 506 412 478 412 c 1,26,-1
 340 405 l 2,27,28
 328 404 328 404 320 406.5 c 128,-1,29
 312 409 312 409 312 411 c 0,30,31
 312 419 312 419 340 426 c 1,32,-1
 516 457 l 2,33,34
 528 460 528 460 536 453 c 128,-1,35
 544 446 544 446 544 433 c 2,36,-1
 544 372 l 2,37,38
 544 360 544 360 535 353 c 128,-1,39
 526 346 526 346 516 347 c 2,40,-1
 340 377 l 1,41,42
 311 383 311 383 311.5 390 c 128,-1,43
 312 397 312 397 340 397 c 1,44,-1
 478 392 l 1,23,24
272 608 m 0,45,46
 264 608 264 608 264 579 c 1,47,-1
 270 464 l 1,48,-1
 270 454 l 2,49,50
 270 434 270 434 263 434.5 c 128,-1,51
 256 435 256 435 252 464 c 1,52,-1
 224 611 l 2,53,54
 221 623 221 623 228.5 632 c 128,-1,55
 236 641 236 641 248 641 c 2,56,-1
 296 641 l 2,57,58
 308 641 308 641 315 632 c 128,-1,59
 322 623 322 623 320 611 c 2,60,-1
 295 464 l 1,61,62
 292 434 292 434 284 435 c 0,63,64
 278 435 278 435 278 459 c 2,65,-1
 278 464 l 1,66,-1
 282 579 l 2,67,68
 283 591 283 591 279.5 599.5 c 128,-1,69
 276 608 276 608 272 608 c 0,45,46
278 329 m 1,70,71
 278 358 278 358 289 358 c 0,72,73
 294 358 294 358 299 350 c 128,-1,74
 304 342 304 342 306 329 c 2,75,-1
 340 13 l 2,76,77
 342 1 342 1 334 -7 c 128,-1,78
 326 -15 326 -15 314 -15 c 2,79,-1
 234 -15 l 2,80,81
 222 -15 222 -15 215 -6.5 c 128,-1,82
 208 2 208 2 210 14 c 2,83,-1
 238 329 l 2,84,85
 239 341 239 341 244.5 349.5 c 128,-1,86
 250 358 250 358 254 358 c 0,87,88
 266 358 266 358 266 329 c 2,89,-1
 258 50 l 2,90,91
 258 38 258 38 263 29.5 c 128,-1,92
 268 21 268 21 276 21 c 0,93,94
 290 21 290 21 290 50 c 1,95,-1
 278 329 l 1,70,71
EndSplineSet
Validated: 1
EndChar

